<svg xmlns="http://www.w3.org/2000/svg" width="214" height="215" viewBox="0 0 214 215">
  <g id="cleaning" transform="translate(-664 -1637)">
    <rect id="Rectangle_46" data-name="Rectangle 46" width="214" height="215" rx="20" transform="translate(664 1637)" fill="#efe9f6"/>
    <g id="facial-treatment" transform="translate(355.997 1332)">
      <path id="Path_85" data-name="Path 85" d="M418.284,348c1.777.315,3.578.542,5.332.961,14.018,3.345,23.656,11.8,29.12,25.088.125.3.251.6.5,1.212.741-4.12,1.429-7.918,2.109-11.716.464-2.58.89-5.163,1.388-7.735.454-2.36,1.855-3.345,4.184-2.935q7.617,1.341,15.217,2.749a3.153,3.153,0,0,1,2.725,3.974q-5.225,23.241-10.5,46.476A23.043,23.043,0,0,1,459.2,419.8c-7.488,5.518-14.976,11.039-22.515,16.49a22.275,22.275,0,0,1-3.886,1.76c0,1.991-.061,4.424.061,6.848.02.406.782.961,1.3,1.127,3.382,1.063,6.794,2.035,10.193,3.043a5.866,5.866,0,0,1,1.3.484,1.729,1.729,0,0,1,.85,2.265,1.689,1.689,0,0,1-2.1,1.215c-4.181-1.192-8.375-2.363-12.488-3.768-2.079-.711-2.942-2.569-2.952-4.746-.017-3.257,0-6.517-.014-9.773,0-.528-.1-1.06-.169-1.74-4.519,2.1-8.93,3.91-13.822,3.9-4.854-.014-9.242-1.787-13.741-3.9a14.452,14.452,0,0,0-.21,1.649c-.017,3.131,0,6.263-.01,9.391-.007,3.24-1.266,4.8-4.411,5.782-5.518,1.726-11.046,3.426-16.493,5.355a24.691,24.691,0,0,0-8.592,5.281c-3.69,3.439-5.112,7.745-4.929,12.691.027.741.3,1.107,1.073,1.036.251-.024.508,0,.762,0h93.155c1.818,0,1.784,0,1.818-1.811.129-6.7-3.128-11.388-8.67-14.736-.867-.525-1.784-.968-2.634-1.517a1.754,1.754,0,0,1-.664-2.437,1.665,1.665,0,0,1,2.346-.887c6.12,3.04,11.161,7.136,12.783,14.167a31.779,31.779,0,0,1,.586,6.791c.024,2.224-1.425,3.5-3.4,4.242H366.229c-1.97-.745-3.318-2.007-3.439-4.238-.376-6.858,1.845-12.62,7.221-17.051a40.084,40.084,0,0,1,13.213-6.831c4.049-1.337,8.169-2.461,12.255-3.683.819-.244,1.7-.454,1.7-1.567.01-2.322,0-4.645,0-7.085-1.828.234-3.152-.63-4.469-1.6-7.315-5.4-14.661-10.758-21.984-16.151a23.209,23.209,0,0,1-9.191-13.863q-5.261-23.109-10.427-46.242a3.17,3.17,0,0,1,2.759-4.059q7.546-1.386,15.095-2.732c2.387-.427,3.819.559,4.269,2.982.741,3.988,1.429,7.986,2.139,11.98.217,1.205.443,2.41.663,3.615.21,1.154.42,2.312.691,3.8.25-.616.362-.884.467-1.154a40.824,40.824,0,0,1,10.328-15.332c1.517-1.412,2.58-1.618,3.49-.67.945.985.7,1.97-.846,3.412a36.638,36.638,0,0,0-10.4,16.984,2.332,2.332,0,0,0-.034,1.649c1.371,2.062,2.867,4.039,4.4,6.154a22.847,22.847,0,0,1,5.934-7.4,74.865,74.865,0,0,1,6.513-5.047c10.565-7.133,22.041-12.471,33.927-16.987.515-.2,1.016-.413,1.72-.7a36.52,36.52,0,0,0-33.751-.416c-1.513.758-2.613.5-3.145-.66-.5-1.093-.054-2.092,1.476-2.745a64.245,64.245,0,0,1,7.2-2.773c2.495-.724,5.1-1.06,7.664-1.567Q414.988,348,418.284,348Zm-3.07,23.612c-.467,0-.931.02-1.395,0-3.754-.176-7.288.085-10.606,2.39-4.482,3.114-9.167,5.931-12.9,9.99a11.733,11.733,0,0,0-3.037,5.2,2.188,2.188,0,0,0,.362,1.98,8.641,8.641,0,0,1,1.615,2.952c.86,4.137,1.537,8.311,2.261,12.475a5.9,5.9,0,0,1-1.523,5.291c-.951,1-.785,1.662.088,2.536,2.928,2.935,5.8,5.928,8.714,8.879a10.142,10.142,0,0,1,2.756,4.909,1.449,1.449,0,0,0,.562.89c3.788,2.024,7.708,3.737,12.065,3.961,5,.257,9.408-1.72,13.714-3.957a1.434,1.434,0,0,0,.545-.9,10.022,10.022,0,0,1,2.762-4.9c2.945-2.979,5.853-6,8.8-8.974.789-.8.938-1.439.071-2.346a6.088,6.088,0,0,1-1.581-5.515c.636-3.534,1.31-7.065,1.875-10.613a8.205,8.205,0,0,1,1.97-4.7,1.808,1.808,0,0,0,.359-1.97,23.285,23.285,0,0,0-15.9-16.54C423.01,371.385,419.1,371.619,415.214,371.612ZM460.5,356.676c-.112.454-.21.775-.271,1.1-1.046,5.863-2.112,11.727-3.114,17.6a9.8,9.8,0,0,1-1.811,4.37c-3.456,4.648-6.825,9.36-10.207,14.062a3.875,3.875,0,0,0-.718,1.442q-1.137,5.977-2.18,11.97a2.6,2.6,0,0,0,5.078,1.07,7.565,7.565,0,0,0,.193-.863c.7-3.91,1.385-7.82,2.092-11.73.278-1.544,1.134-2.251,2.373-2.011,1.1.213,1.638,1.1,1.388,2.563-.738,4.289-1.466,8.582-2.322,12.847a6.023,6.023,0,0,1-4.347,4.7,4.109,4.109,0,0,0-2.888,2.041,8.585,8.585,0,0,1-.775.836c-3.077,3.145-6.165,6.276-9.228,9.435a5.6,5.6,0,0,0-1.1,6.649c.511,1.005.972,1.127,1.916.427,7.441-5.515,14.922-10.968,22.376-16.459a19.785,19.785,0,0,0,7.81-11.93q4.545-20.149,9.093-40.295c.386-1.71.748-3.426,1.137-5.22Zm-105.511,2.6c.085.477.135.846.217,1.209q4.9,21.82,9.8,43.643a19.907,19.907,0,0,0,7.458,12.16c7.657,5.714,15.4,11.324,23.077,17,.806.6,1.215.42,1.666-.379a5.615,5.615,0,0,0-1.066-6.862c-2.945-3.037-5.938-6.026-8.856-9.089a27.46,27.46,0,0,1-1.6-2.346,1.587,1.587,0,0,0-.975-.542,6.327,6.327,0,0,1-5.829-5.3c-.5-2.485-.924-4.983-1.371-7.478-.328-1.831-.68-3.656-.934-5.5a1.745,1.745,0,0,1,1.517-2.116,1.793,1.793,0,0,1,2.163,1.476c.085.328.142.66.2.992.691,3.869,1.368,7.739,2.075,11.6.332,1.818,1.6,2.762,3.209,2.458,1.473-.281,2.251-1.672,1.933-3.436-.647-3.619-1.256-7.244-1.95-10.853a5.694,5.694,0,0,0-.917-2.167c-3.561-4.99-7.18-9.939-10.752-14.922a5.081,5.081,0,0,1-.9-1.916c-.745-3.9-1.408-7.817-2.106-11.726-.5-2.82-1.022-5.633-1.547-8.521C364.614,357.55,359.848,358.406,354.994,359.276Zm90.9,26.913c1.374-1.889,2.756-3.7,4.022-5.6a2.494,2.494,0,0,0,.318-1.811,36.454,36.454,0,0,0-12.823-19.309,1.814,1.814,0,0,0-2.065-.308c-6.083,2.522-12.177,5.017-18.263,7.532-.63.261-1.232.592-1.848.894C429.638,366.923,440.075,372.529,445.894,386.189Z" fill="#6429a2"/>
      <path id="Path_86" data-name="Path 86" d="M522.884,552.872c-2.359-.569-4.743-1.056-7.068-1.737a1.9,1.9,0,0,1-1.415-2.647c.43-1.026,1.466-1.368,2.8-.857a15.577,15.577,0,0,0,11.49.01c1.385-.528,2.471-.146,2.854.944.4,1.127-.139,2.109-1.537,2.61a24.286,24.286,0,0,1-3.392.989c-1.2.237-2.424.294-3.636.43C522.945,552.7,522.915,552.787,522.884,552.872Z" transform="translate(-107.972 -131.896)" fill="#6429a2"/>
      <path id="Path_87" data-name="Path 87" d="M486.624,484.96c1.615.589,3.1,1.026,4.492,1.672a1.846,1.846,0,0,1,.863,2.576,1.819,1.819,0,0,1-2.613.731,5.244,5.244,0,0,0-5.518.017,1.828,1.828,0,0,1-2.607-.762,1.79,1.79,0,0,1,.792-2.495C483.5,486.009,485.057,485.539,486.624,484.96Z" transform="translate(-86.004 -90.596)" fill="#6429a2"/>
      <path id="Path_88" data-name="Path 88" d="M571.55,485.02c1.554.562,3.043,1,4.431,1.638a1.847,1.847,0,0,1,.914,2.563,1.866,1.866,0,0,1-2.722.721,5.087,5.087,0,0,0-5.284-.017,1.887,1.887,0,1,1-1.77-3.307C568.513,485.985,570,485.568,571.55,485.02Z" transform="translate(-142.166 -90.635)" fill="#6429a2"/>
    </g>
  </g>
</svg>
