<svg xmlns="http://www.w3.org/2000/svg" width="214" height="215" viewBox="0 0 214 215">
  <g id="epilasion" transform="translate(-1430 -1637)">
    <rect id="Rectangle_46" data-name="Rectangle 46" width="214" height="215" rx="20" transform="translate(1430 1637)" fill="#efe9f6"/>
    <g id="beard-trimming" transform="translate(1049.224 1332)">
      <path id="Path_80" data-name="Path 80" d="M513.393,348a2.479,2.479,0,0,1,1.354,2.5c-.041,5.667-.007,11.337-.024,17-.01,3.074-1.693,4.736-4.8,4.811-3.135.074-5.257,1.669-5.755,4.492,1.446,0,2.864,0,4.282,0,3.517.01,5.2,1.7,5.2,5.213,0,5.413-.074,10.83.024,16.243a37.429,37.429,0,0,1-1.92,11.954,115.558,115.558,0,0,0-3.385,11.927c-1.27,6.385-.565,12.8.555,19.164.108.623.278,1.239.369,1.865a1.918,1.918,0,0,1-1.449,2.322,1.847,1.847,0,0,1-2.285-1.645c-.572-4.479-1.063-8.968-1.567-13.457a19.1,19.1,0,0,1-.01-1.94c-10.508,6.7-20.908,6.71-31.6-.095a37.512,37.512,0,0,1-.037,5.261c-.826,5.552-1.892,11.067-2.708,16.619a51.373,51.373,0,0,0-.792,9.2c.21,5.877,3.429,10.041,8.639,12.441a24.9,24.9,0,0,0,21.487.03c6.205-2.823,9.211-8.277,8.7-15.078-.1-1.307-.244-2.61-.355-3.914-.118-1.388.5-2.285,1.655-2.4,1.171-.119,1.97.609,2.133,1.984.457,3.873.884,7.766-.379,11.564-2.329,7-7.485,10.941-14.357,12.888-1.737.491-3.551.711-5.328,1.053h-5.586a61.88,61.88,0,0,1-7.6-1.828c-6.652-2.482-11.2-7.035-12.58-14.2-.779-4.042-.183-8.094.535-12.1.789-4.4,1.8-8.778,2.431-13.2a46.436,46.436,0,0,0-1.886-21.774,92.416,92.416,0,0,1-3.257-12.207c-.494-2.576-.22-5.308-.217-7.969a1.787,1.787,0,0,1,1.872-1.825,1.831,1.831,0,0,1,1.889,1.821,26.843,26.843,0,0,1,.014,3.043,33.641,33.641,0,0,0,1.875,11.822c1.317,4.269,2.383,8.616,3.6,12.918a2.74,2.74,0,0,0,.755,1.242,22.983,22.983,0,0,0,30.779-.024,2.528,2.528,0,0,0,.7-1.134c1.28-4.547,2.444-9.127,3.805-13.646a34.744,34.744,0,0,0,1.7-10.711c-.091-5.369-.058-10.745,0-16.118.014-1.209-.416-1.51-1.544-1.506q-20.053.041-40.1,0c-1.222,0-1.672.376-1.574,1.6a31.849,31.849,0,0,1,.01,3.551,1.9,1.9,0,1,1-3.788-.047c-.03-1.395-.02-2.793-.007-4.188a4.439,4.439,0,0,1,4.692-4.7c1.557-.03,3.118-.007,4.675-.007-.03-2.184-2.2-4.228-4.624-4.452-.8-.074-1.615-.047-2.4-.2a4.044,4.044,0,0,1-3.385-3.893c-.058-6.09-.071-12.184.024-18.274.01-.67.829-1.324,1.27-1.987h1.27a2.977,2.977,0,0,1,1.219,2.854c-.054,1.8-.014,3.6-.014,5.437h4.374c0-1.93.054-3.781-.02-5.63a2.639,2.639,0,0,1,1.3-2.661h1.27a2.737,2.737,0,0,1,1.28,2.681c-.071,1.879-.02,3.761-.02,5.626h4.36c0-1.909.047-3.758-.017-5.6a2.833,2.833,0,0,1,1.249-2.7h1.27a2.55,2.55,0,0,1,1.324,2.637c-.068,1.882-.017,3.768-.017,5.643h4.4c0-1.859.044-3.629-.013-5.4A3.13,3.13,0,0,1,487.486,348h1.523a3.133,3.133,0,0,1,1.158,2.881c-.058,1.794-.017,3.6-.017,5.4h4.408c0-1.984.051-3.88-.02-5.769A2.487,2.487,0,0,1,495.861,348h1.269a2.845,2.845,0,0,1,1.253,2.7c-.068,1.845-.017,3.693-.017,5.593h4.36c0-1.92.054-3.771-.02-5.62a2.723,2.723,0,0,1,1.28-2.678h1.27a2.644,2.644,0,0,1,1.3,2.664c-.074,1.879-.02,3.764-.02,5.606h4.374c0-1.913.044-3.731-.017-5.545A2.92,2.92,0,0,1,512.107,348Zm-2.481,12.255H465.593v6.395c0,1.8,0,1.8,1.76,1.872a9.368,9.368,0,0,1,8.734,7.058c.1.4.23.785.339,1.151H499.7a37.365,37.365,0,0,1,2.823-5,8.619,8.619,0,0,1,7.14-3.23c.592,0,1.249.071,1.249-.836C510.912,365.218,510.912,362.773,510.912,360.255Z" transform="translate(0 0)" fill="#6429a2"/>
      <path id="Path_81" data-name="Path 81" d="M533.277,506.556a29.9,29.9,0,0,1-.389,4.391,7.022,7.022,0,0,1-7.749,5.271,7.141,7.141,0,0,1-6.215-6.909c-.037-1.859-.041-3.717,0-5.572a7.118,7.118,0,0,1,14.232.024c.024.928,0,1.859,0,2.786Zm-3.934-.02h.007c0-.884.031-1.771-.007-2.654a3.3,3.3,0,0,0-6.6-.058q-.086,2.717,0,5.437a3.3,3.3,0,0,0,6.591.054C529.39,508.391,529.343,507.46,529.343,506.536Z" transform="translate(-37.781 -98.426)" fill="#6429a2"/>
    </g>
  </g>
</svg>
