<svg xmlns="http://www.w3.org/2000/svg" width="214" height="215" viewBox="0 0 214 215">
  <g id="eyebrow" transform="translate(-1430 -1125)">
    <rect id="Rectangle_46" data-name="Rectangle 46" width="214" height="215" rx="20" transform="translate(1430 1125)" fill="#efe9f6"/>
    <g id="eyebrow-pencil" transform="translate(1124.03 805.087)">
      <path id="Path_82" data-name="Path 82" d="M347.98,394.991c.132-.44.267-.883.4-1.324a10.768,10.768,0,0,1,7.948-7.779c5.873-1.581,11.773-3.057,17.659-4.576.2-.054.41-.1.616-.142a1.937,1.937,0,0,1,2.481,1.351,1.875,1.875,0,0,1-1.469,2.3c-2.278.633-4.576,1.2-6.865,1.791-3.927,1.016-7.863,1.984-11.773,3.063a7.063,7.063,0,0,0-5.189,7,6.97,6.97,0,0,0,5.338,6.736,8.371,8.371,0,0,0,3.744.014q29.952-7.139,59.867-14.413a7.766,7.766,0,0,1,6.915,1.381q8.088,6.027,16.261,11.935a7.431,7.431,0,0,0,9.471-.247c.843-.724.863-1.215.058-2.024-7.122-7.115-14.183-14.295-21.312-21.4a15.643,15.643,0,0,0-15.838-4.3q-15.588,3.986-31.165,8.012a6.182,6.182,0,0,1-.738.183,1.895,1.895,0,1,1-.836-3.693c2.241-.613,4.5-1.164,6.746-1.743,8.506-2.19,17-4.455,25.526-6.547a18.709,18.709,0,0,1,18.4,4.864c7.616,7.4,15.016,15.016,22.48,22.571a4.263,4.263,0,0,1-.034,6.154,11.039,11.039,0,0,1-14.545,1.537c-5.487-3.886-10.889-7.89-16.272-11.918a5.11,5.11,0,0,0-4.7-.961q-29.541,7.22-59.112,14.3c-6.594,1.588-12.264-1.916-13.858-8.49a4.648,4.648,0,0,0-.217-.582C347.98,397.022,347.98,396.007,347.98,394.991Z" transform="translate(0)" fill="#6429a2"/>
      <path id="Path_83" data-name="Path 83" d="M616.675,478.129c-3.28,5.812-6.75,11.529-9.783,17.47-2.566,5.027-4.624,10.311-6.871,15.4,2.745,2.305,2.942,3.436,1.3,6.289q-9.825,17.02-19.657,34.039c-1.506,2.607-2.948,3-5.521,1.52q-8.185-4.717-16.36-9.444c-2.261-1.31-2.691-2.915-1.391-5.189q1.858-3.245,3.744-6.479c.762-1.3,1.791-1.676,2.82-1.066,1.046.616,1.219,1.645.464,2.975-1.205,2.126-2.43,4.238-3.713,6.472l16.525,9.542c6.729-11.654,13.421-23.241,20.2-34.984l-16.495-9.532c-.3.481-.548.86-.775,1.252q-5.3,9.165-10.592,18.336a7.136,7.136,0,0,1-.677,1.07,1.775,1.775,0,0,1-2.292.477,1.733,1.733,0,0,1-.951-2.129,4.522,4.522,0,0,1,.528-1.141q5.6-9.723,11.218-19.44c1.344-2.326,2.5-2.735,5.04-1.987a1.629,1.629,0,0,0,1.266-.589,122.721,122.721,0,0,0,14.738-21.363c.721-1.34,1.5-2.644,2.251-3.971a3.508,3.508,0,0,1,3.436-1.94c2.41.1,4.82.257,7.23.217a4.317,4.317,0,0,1,4.323,2.42C616.675,476.944,616.675,477.536,616.675,478.129Zm-12.027,12.849c-1.787-1.026-3.666-2.105-5.352-3.077-3.994,5.44-7.877,10.73-11.79,16.058l9.126,5.257C599.313,503.113,601.943,497.132,604.648,490.978Zm7.911-13.225c-2.539-.071-4.844-.142-7.146-.19a.694.694,0,0,0-.535.247c-1.3,2.19-2.569,4.4-3.876,6.655,2.007,1.161,3.849,2.224,5.765,3.331C608.689,484.462,610.555,481.229,612.558,477.753Z" transform="translate(-138.711 -68.667)" fill="#6429a2"/>
      <path id="Path_84" data-name="Path 84" d="M463.67,520.529l-8.452,4.922c.545,1.493,1.147,3.138,1.747,4.786.159.437.332.87.467,1.313a1.924,1.924,0,0,1-1.019,2.542,1.872,1.872,0,0,1-2.539-1.222c-.65-1.648-1.229-3.327-1.841-4.993-.146-.393-.3-.779-.437-1.127-3.175.552-6.286,1.09-9.59,1.665,0,1.357,0,2.864,0,4.373,0,.8.044,1.611-.034,2.41a1.846,1.846,0,0,1-1.946,1.77,1.781,1.781,0,0,1-1.808-1.882c-.044-1.777-.017-3.554-.017-5.331v-1.334c-3.25-.565-6.391-1.114-9.651-1.679-.65,1.777-1.32,3.635-2.011,5.487a4.787,4.787,0,0,1-.582,1.256,1.874,1.874,0,0,1-3.26-1.75c.748-2.143,1.523-4.275,2.244-6.3-2.82-1.638-5.551-3.223-8.442-4.9-1.208,1.435-2.525,3.013-3.862,4.576a3.891,3.891,0,0,1-1.005.941,1.87,1.87,0,0,1-2.346-2.823c1.087-1.351,2.217-2.667,3.327-4,.349-.416.691-.836,1.222-1.479a18.512,18.512,0,0,1-1.51-1.229,1.926,1.926,0,0,1-.247-2.9c.829-.836,1.906-.8,2.9.206a35.717,35.717,0,0,0,10.5,7.427,34.988,34.988,0,0,0,39.11-6.828c.3-.3.586-.613.911-.88a1.874,1.874,0,0,1,2.664,2.627,15.674,15.674,0,0,1-1.882,1.537c1.591,1.906,2.948,3.517,4.292,5.145.934,1.134.944,2.285.054,3.019s-2.017.528-2.969-.589C466.3,523.677,464.949,522.053,463.67,520.529Z" transform="translate(-40.252 -94.674)" fill="#6429a2"/>
    </g>
  </g>
</svg>
