<svg xmlns="http://www.w3.org/2000/svg" width="214" height="215" viewBox="0 0 214 215">
  <g id="hair_dye" transform="translate(-664 -1125)">
    <rect id="Rectangle_46" data-name="Rectangle 46" width="214" height="215" rx="20" transform="translate(664 1125)" fill="#efe9f6"/>
    <g id="hair-dye" transform="translate(357 817.049)">
      <path id="Path_93" data-name="Path 93" d="M348,416.993c.433-2.531.732-5.089,1.324-7.582a35.164,35.164,0,0,1,9.563-17.5c1.458-1.427,2.613-1.626,3.528-.643s.674,1.95-.794,3.387c-5.1,5-7.84,11.2-9.064,18.124-1.265,7.162-.939,14.2,1.9,21,.148.358.32.7.488,1.049a3.553,3.553,0,0,0,.224.344,23.918,23.918,0,0,1,3.153-2.362,28.013,28.013,0,0,1,4.632-1.857c.7-.223,1.1-.461,1.21-1.217.7-4.965,2.82-9.452,5-13.864,6.021-12.2,21.8-20.686,38.453-11.519,1.2.66,2.369,1.393,3.514,2.152a1.916,1.916,0,0,1,.791,2.758,1.964,1.964,0,0,1-2.933.437,30.339,30.339,0,0,0-11.512-4.934,22.081,22.081,0,0,0-15.6,2.888,7.124,7.124,0,0,0-.674.54c5.227-.571,10.065.179,14.394,2.875,7.912,4.931,14.693,11.031,18.95,19.524,1,1.987,1.836,4.061,2.648,6.134.547,1.4.076,2.493-1.045,2.878s-2.122-.22-2.593-1.644a41.4,41.4,0,0,0-5.821-11c-.237-.33-.519-.629-1-1.2.241,1.492.45,2.624.6,3.762.64,4.9-.358,9.669-1.173,14.449-.746,4.37-1.571,8.779-.478,13.169,2.5,10.02,9.177,15.769,19.029,18.121a29.947,29.947,0,0,0,3.177.505c1.523.189,2.29.908,2.2,2.132s-1,1.888-2.52,1.726c-9.215-.994-16.653-5.055-21.955-12.777-.189-.275-.385-.547-.567-.811a3.026,3.026,0,0,0-1.922,3.253c.124,4.078.069,8.163.017,12.245-.01.9.3,1.224,1.128,1.5,4.67,1.561,9.4,2.985,13.94,4.883a15.571,15.571,0,0,1,8.809,8.768,15.735,15.735,0,0,1,.918,6.966,3.654,3.654,0,0,1-3.38,3.325c-.426.038-.86.021-1.289.021H356.218c-3.5,0-4.783-1.351-4.766-4.859.034-6.114,3.077-10.374,8.149-13.407,4.25-2.538,8.981-3.824,13.682-5.178,3.036-.877,3.043-.853,3.043-4.044,0-3.652.034-7.307-.034-10.959a2.556,2.556,0,0,0-.777-1.716,35.1,35.1,0,0,1-9.494-12.2c-.392-.856-1.049-.88-1.76-.987a14.2,14.2,0,0,1-9.2-4.941,9.971,9.971,0,0,1-2.256-8.545,2.133,2.133,0,0,0-.155-1.338,35.03,35.03,0,0,1-4.453-14.535,2.661,2.661,0,0,0-.2-.6Q348,420.349,348,416.993Zm55.9,15.986-.175-.041c-.1-1.111-.12-2.235-.3-3.332-1.245-7.475-4.862-13.266-12.038-16.326-7.843-3.346-14.586-.488-19.063,5.808a23.383,23.383,0,0,0-2.4,4.539c-2.269,5.443-2.716,11.206-2.957,17.028-.574,13.943,9.838,24.162,18.19,27.549a10.553,10.553,0,0,0,6.031.9c4.6-.884,8.246-3.5,11.646-6.519a1,1,0,0,0,.107-.884c-2.087-5.453-1.836-11.02-.9-16.642C402.7,441.038,403.284,437.005,403.9,432.979Zm-48.517,70.067h68.657c.327-4.154-1.1-7.537-4.474-9.748a43.86,43.86,0,0,0-8.022-4c-2.868-1.121-5.9-1.819-8.858-2.7a4.212,4.212,0,0,1-3.4-4.394c-.021-1.633,0-3.267-.007-4.9v-7.352c-6.416,4.092-12.709,4.061-19.087.055,0,4.243.017,8.149-.007,12.059a4.283,4.283,0,0,1-3.428,4.532c-2.386.708-4.786,1.358-7.162,2.1a32.039,32.039,0,0,0-9.655,4.456A10.546,10.546,0,0,0,355.386,503.045Zm8.751-53.366c-1.4-4.979-1.049-9.879-.781-14.8-3.992.856-6.887,4-6.863,7.355C356.521,445.7,359.591,448.782,364.137,449.679Z" transform="translate(0 -26.053)" fill="#6429a2"/>
      <path id="Path_94" data-name="Path 94" d="M515.7,395.066c-.285,1.857-.509,3.724-.867,5.567a47.645,47.645,0,0,1-10.309,21.89c-.134.162-.251.333-.471.629.605.117,1.1.2,1.582.313,2.493.567,3.8,3.456,2.211,5.433-8.507,10.553-18.2,19.562-31.631,23.516a26.5,26.5,0,0,1-2.624.636c-1.4.265-2.352-.3-2.579-1.451s.43-2.073,1.812-2.345a39.936,39.936,0,0,0,13.489-5.567,74.177,74.177,0,0,0,17.492-15.865,6.784,6.784,0,0,0,.389-.626c-.512-.1-.915-.179-1.314-.268-3.022-.681-3.927-3.555-2.094-6.052a73.942,73.942,0,0,0,6.3-9.377,42.473,42.473,0,0,0,4.449-24.857c-.052-.454-.172-.9-.279-1.451-8.538,5.1-17.285,3.865-26.229,1.4a23.475,23.475,0,0,0,1.788,1.53,17.73,17.73,0,0,1,7.909,15.112c.021,1.805,0,3.61,0,5.416,0,3.793-.533,4.412-4.4,4.886V416.8c0,1.633.034,3.267-.021,4.9a1.871,1.871,0,0,1-1.991,2.042,1.829,1.829,0,0,1-1.836-2.049c-.045-2.235-.017-4.47-.017-6.705V413.5h-3.755v2.091c0,2.018.021,4.04-.007,6.059a1.894,1.894,0,0,1-1.936,2.094,1.916,1.916,0,0,1-1.915-2.125c-.028-2.276-.007-4.556-.01-6.832,0-.419-.038-.836-.058-1.31h-3.669v6.468c0,.557.021,1.118-.01,1.675-.076,1.365-.767,2.115-1.922,2.118s-1.895-.732-1.919-2.1c-.041-2.235-.014-4.47-.017-6.705v-1.454H467.5v6.547c0,.6.028,1.2-.01,1.805a1.883,1.883,0,0,1-1.857,1.912,1.855,1.855,0,0,1-1.977-1.919c-.048-2.362-.017-4.728-.021-7.09v-1.083c-.155-.11-.217-.2-.289-.2-3.4-.265-4.161-1.028-4.085-4.5a73.342,73.342,0,0,1,.519-10,16.048,16.048,0,0,1,7.015-10.563,7.769,7.769,0,0,0,3.3-8.552,1.319,1.319,0,0,0-.626-.715c-8.748-4.745-17.206-10.04-26.428-13.881-6.777-2.823-13.747-4.869-21.157-5.086a37.63,37.63,0,0,0-15.855,2.785c-1.857.777-2.94.605-3.469-.554-.567-1.241.058-2.228,1.946-3.012,8.5-3.538,17.261-3.851,26.177-2.063,10.016,2.008,19.067,6.43,27.921,11.316,3.384,1.867,6.743,3.769,10.116,5.653.4.223.815.426,1.41.736v-1.537c0-5.158-.041-10.316.014-15.47a6.843,6.843,0,0,1,8.758-6.767,6.767,6.767,0,0,1,4.89,6.791c.021,7.434.031,14.868-.017,22.3a1.674,1.674,0,0,0,1.331,1.919,38.975,38.975,0,0,0,14.624,2.541,18.762,18.762,0,0,0,9.48-2.926c2.771-1.788,5.471-.554,5.966,2.7.193,1.262.368,2.531.55,3.793C515.7,390.6,515.7,392.831,515.7,395.066ZM490.85,409.474c0-2.2.028-4.3-.007-6.4a13.664,13.664,0,0,0-6.169-11.694,10.5,10.5,0,0,1-4.762-9.311c.031-7.995.01-15.989-.01-23.984a2.936,2.936,0,0,0-2.9-3.249,3.017,3.017,0,0,0-3.016,3.177c-.017.344,0,.688,0,1.032,0,7.606-.069,15.215.027,22.821a10.707,10.707,0,0,1-5,9.7,12.207,12.207,0,0,0-5.536,8.373,94.341,94.341,0,0,0-.512,9.535C472.364,409.474,481.5,409.474,490.85,409.474Z" transform="translate(-35.664)" fill="#6429a2"/>
      <path id="Path_95" data-name="Path 95" d="M454.837,575.4c-2.084-.578-4.119-1.045-6.086-1.716a1.874,1.874,0,0,1-1.348-2.62,1.9,1.9,0,0,1,2.8-.918,10.988,10.988,0,0,0,9.219.017c1.314-.574,2.379-.2,2.833.863a1.91,1.91,0,0,1-1.31,2.651C458.97,574.345,456.934,574.823,454.837,575.4Z" transform="translate(-65.111 -143.656)" fill="#6429a2"/>
      <path id="Path_96" data-name="Path 96" d="M430.263,491.36c1.616.56,3.174.994,4.635,1.644a1.853,1.853,0,0,1,.911,2.6,1.879,1.879,0,0,1-2.634.8,5.591,5.591,0,0,0-5.732-.01,1.863,1.863,0,0,1-2.644-.76,1.789,1.789,0,0,1,.849-2.6C427.1,492.367,428.653,491.927,430.263,491.36Z" transform="translate(-50.223 -92.129)" fill="#6429a2"/>
      <path id="Path_97" data-name="Path 97" d="M435.688,521.328c0-.471-.034-.949.01-1.417a1.764,1.764,0,0,1,1.709-1.764,1.719,1.719,0,0,1,2.046,1.52,13.569,13.569,0,0,1,.014,3.463,1.732,1.732,0,0,1-2,1.585,1.774,1.774,0,0,1-1.771-1.84C435.66,522.359,435.688,521.843,435.688,521.328Z" transform="translate(-57.529 -109.698)" fill="#6429a2"/>
    </g>
  </g>
</svg>
