<svg xmlns="http://www.w3.org/2000/svg" width="214" height="215" viewBox="0 0 214 215">
  <g id="hair_cutting" transform="translate(-281 -1125)">
    <rect id="Rectangle_46" data-name="Rectangle 46" width="214" height="215" rx="20" transform="translate(281 1125)" fill="#efe9f6"/>
    <g id="hair-cutting" transform="translate(-29.372 820.02)">
      <path id="Path_89" data-name="Path 89" d="M467.489,347.987a3.79,3.79,0,0,0,.538.267,7.355,7.355,0,0,1,4.905,9.767c-.3.88-.609,1.757-.945,2.624a7.37,7.37,0,0,1-11.943,3.06c-.159-.135-.311-.274-.592-.518-.525,1.415-1.046,2.725-1.473,4.066-.081.257.2.647.339.958.6,1.327,1.2,2.658,1.828,3.968a2.68,2.68,0,0,0,.8,1.141c5.542,3.321,9.608,7.82,11.493,14.11.02.071.108.125.254.278.5-.3,1.026-.636,1.564-.934A3.4,3.4,0,0,1,479.4,389.2a45.325,45.325,0,0,1-9.3,35.759c-.284.369-.586.721-.873,1.09a1.29,1.29,0,0,0-.1.3c.355.085.7.173,1.053.254,2.861.653,3.92,3.47,2.089,5.731a79.793,79.793,0,0,1-14.252,14.036c-5.413,4.032-11.277,7.167-17.963,8.487-12.119,2.393-24.445-1.493-31.419-12.356-1.324.745-2.285,1.54-2.153,3.379A76.389,76.389,0,0,1,406.5,454a1.578,1.578,0,0,0,1.385,1.913c2.732.735,5.423,1.611,8.118,2.478,1.422.46,2.008,1.442,1.635,2.536s-1.435,1.49-2.834,1.06q-4.235-1.305-8.484-2.583c-2.685-.8-3.592-1.974-3.6-4.756q-.005-3.809-.014-7.617a2.066,2.066,0,0,0-.1-.383c-2.708,1.337-5.464,2.539-8.528,2.539-3.02,0-5.742-1.181-8.6-2.58v7.752c0,3.165-.823,4.164-3.805,5.108-3.822,1.209-7.664,2.383-11.375,3.883a17.362,17.362,0,0,0-4.892,3.311,8.5,8.5,0,0,0-2.583,7.438h62.534a9.043,9.043,0,0,0-2.5-7.427c-1.358-1.449-1.554-2.478-.636-3.368.965-.938,2.068-.68,3.453.8a13.393,13.393,0,0,1,3.521,10.745c-.132,1.652-1.273,2.471-2.6,3.138h-65c-2.068-.88-2.715-2.481-2.678-4.662a13.524,13.524,0,0,1,6-11.3c3.307-2.387,7.1-3.69,10.955-4.851,1.618-.487,3.24-.965,4.871-1.391a1.048,1.048,0,0,0,.948-1.209c-.044-3.216.007-6.432-.047-9.645a1.989,1.989,0,0,0-.64-1.361,34.748,34.748,0,0,1-9.523-11.883,1.962,1.962,0,0,0-1.293-.894,13.9,13.9,0,0,1-9.479-5.315,9.607,9.607,0,0,1-1.777-7.681,2.5,2.5,0,0,0-.3-1.527c-7.041-12.719-5.207-31.47,4.343-42.422a48.705,48.705,0,0,1,6.388-5.549,1.812,1.812,0,0,1,2.779.339,1.891,1.891,0,0,1-.735,2.817c-7.861,5.166-11.51,12.841-12.81,21.815a33.846,33.846,0,0,0,1.98,18.311c.193.46.42.907.68,1.466.291-.244.515-.413.714-.609a11.637,11.637,0,0,1,5.681-3.189c1.534-.318,2-1.053,2.353-2.515,1.466-6.168,3.663-12.089,7.739-17.038,8.4-10.19,21.676-12.488,33.434-5.968.85.471,1.682.975,2.5,1.5,1.815,1.165,2.272,2.187,1.517,3.3s-1.747,1.08-3.534-.081a28.08,28.08,0,0,0-9.245-4.032,21,21,0,0,0-15.312,2.278c-.244.135-.471.308-1.009.66a21.329,21.329,0,0,1,8.954.738,19.472,19.472,0,0,1,4.2,1.743c8.731,5.285,15.776,12.153,19.9,21.683.4.931.762,1.879,1.09,2.837.521,1.513.152,2.576-.972,2.962-1.175.4-2.082-.176-2.6-1.7a39.84,39.84,0,0,0-5.461-10.258,4.1,4.1,0,0,0-.8-.833c1.652,6.405.088,12.621-.951,18.856-.843,5.044-1.026,10.031,1.266,14.787,3.619,7.505,9.692,11.788,17.817,13.138,9.255,1.537,17.455-1.334,25.035-6.419a71.562,71.562,0,0,0,15.122-14.195,2.16,2.16,0,0,0,.193-.379c-.393-.095-.752-.193-1.114-.271-2.922-.633-3.815-3.426-2.038-5.843a70.075,70.075,0,0,0,5.931-8.805,40.5,40.5,0,0,0,4.14-24.611,1.526,1.526,0,0,0-.176-.332,23.029,23.029,0,0,1-12.925,3.253,44.07,44.07,0,0,1-13.335-2.756c-.234.586-.464,1.11-.66,1.649q-3.189,8.749-6.368,17.5c-.68,1.865-1.683,2.7-3.247,2.712-1.727.007-2.671-1.012-3.3-2.5-2.485-5.924-4.093-12.035-3.314-18.508a81.028,81.028,0,0,1,1.811-8.1c.149.183.091.054-.007,0-8.074-4.519-16-9.313-24.618-12.783-6.276-2.529-12.746-4.408-19.557-4.326a77.671,77.671,0,0,0-10.413,1.253c-1.537.227-2.563-.115-2.834-1.3-.257-1.121.406-1.977,1.872-2.383,8.727-2.4,17.336-1.6,25.881.951,7.617,2.278,14.665,5.84,21.585,9.675,3.433,1.9,6.855,3.829,9.777,5.464,1.713-1.466,3.243-2.786,4.787-4.093a11.516,11.516,0,0,1,1.5-1.165c1.9-1.124,3.69-2.3,3.873-4.811a1.42,1.42,0,0,1,.46-.887c1.506-1.259,1.148-2.654.406-4.13a20.281,20.281,0,0,1-.741-1.984,7.713,7.713,0,0,1-6.266,2.39c-2.194-.217-4.191-1.1-5.176-3a23.738,23.738,0,0,1-2.471-7.092c-.467-3.023,1.811-5.938,4.773-7.028.389-.142.768-.308,1.151-.46h2.793c3.463,1.016,5.325,3.48,6.229,6.838.23.853.592,1.669.9,2.5l3.1,8.494h3.1c1.337-3.676,2.793-7.322,3.974-11.053,1.053-3.324,2.834-5.792,6.3-6.781C465.627,347.987,466.558,347.987,467.489,347.987Zm-94.928,69.159c-.267,12.1,6.392,22.7,17,27.167,3.02,1.273,6.046,1.527,8.934,0,2.63-1.395,5.054-3.175,7.576-4.77.7-.447.7-.968.43-1.706a22.573,22.573,0,0,1-1.29-10.721c.589-4.648,1.466-9.266,1.943-13.924.711-6.916-1.29-13-6.5-17.756-4.668-4.269-12.617-6.527-18.971-1.794a17.449,17.449,0,0,0-4.8,5.325C373.641,404.593,372.872,410.815,372.561,417.146Zm66.4-9.066c.288-.684.46-1.049.6-1.429q1.219-3.331,2.427-6.662c2.336-6.425,4.682-12.851,6.987-19.29a1.594,1.594,0,0,0-.064-1.31c-.775-.867-1.686-1.608-2.634-2.478a19.738,19.738,0,0,0-6.964,6.537C434.414,391.454,435.809,399.586,438.957,408.08Zm17.631-27.753c.914,2.512,2.031,5.609,3.179,8.69.1.274.386.647.62.674a21.062,21.062,0,0,0,8.578-.5,19.954,19.954,0,0,0-9.3-12.167C458.656,378.113,457.773,379.061,456.588,380.327Zm-86.925,46.284a39.447,39.447,0,0,1-.653-13.677c-3.626.511-6.547,3.815-6.405,7.126C362.747,423.222,366.206,426.5,369.663,426.611Zm71.011-64.822a3.456,3.456,0,0,0,3.443-4.367,19.769,19.769,0,0,0-1.33-3.673,3.511,3.511,0,0,0-6.554,2.373,22.126,22.126,0,0,0,1.368,3.792A3.258,3.258,0,0,0,440.673,361.789Zm28.88-5.576c.1-2.4-.894-3.785-2.559-4.266a3.385,3.385,0,0,0-4.042,1.781,25.1,25.1,0,0,0-1.374,3.792,3.4,3.4,0,0,0,1.964,3.957,3.334,3.334,0,0,0,4.269-1.114A34.3,34.3,0,0,0,469.554,356.213Zm-13.176,16.879a3.542,3.542,0,0,0-3.572-3.5,3.547,3.547,0,1,0,.1,7.092A3.5,3.5,0,0,0,456.378,373.092Zm-.718,15.854c-.965-2.647-1.828-5.017-2.8-7.688-.8,2.2-1.486,4.086-2.224,6.111Z" fill="#6429a2"/>
      <path id="Path_90" data-name="Path 90" d="M457.536,593.468c-2.018-.562-3.981-1.016-5.877-1.666a1.852,1.852,0,0,1-1.246-2.617,1.886,1.886,0,0,1,2.668-.873,10.393,10.393,0,0,0,8.822.014,1.885,1.885,0,0,1,2.739.938,1.821,1.821,0,0,1-1.232,2.522C461.517,592.435,459.557,592.9,457.536,593.468Z" transform="translate(-63.404 -158.82)" fill="#6429a2"/>
      <path id="Path_91" data-name="Path 91" d="M433.844,512.24c1.55.545,3.047.965,4.445,1.6a1.867,1.867,0,1,1-1.7,3.324,5.407,5.407,0,0,0-5.538.02,1.812,1.812,0,0,1-2.505-.789,1.777,1.777,0,0,1,.853-2.563C430.8,513.2,432.3,512.785,433.844,512.24Z" transform="translate(-48.9 -108.653)" fill="#6429a2"/>
      <path id="Path_92" data-name="Path 92" d="M442.809,541.265c0,.5.037,1.012-.007,1.513a1.746,1.746,0,0,1-1.72,1.706,1.652,1.652,0,0,1-1.923-1.442,14.878,14.878,0,0,1-.007-3.514,1.653,1.653,0,0,1,1.909-1.459,1.728,1.728,0,0,1,1.737,1.682C442.847,540.253,442.809,540.761,442.809,541.265Z" transform="translate(-56.013 -125.734)" fill="#6429a2"/>
    </g>
  </g>
</svg>
