<svg xmlns="http://www.w3.org/2000/svg" width="61.8" height="61.93" viewBox="0 0 61.8 61.93">
  <g id="hairsalon_logo" transform="translate(-58.287 -58.42)">
    <path id="Path_1" data-name="Path 1" d="M97.711,116.9c.076.58.14,1.09.21,1.6.068.492.143.983.225,1.54l-1.961.311c-.177-1.225-.379-2.4-.506-3.592a1.322,1.322,0,0,0-.845-1.2A45.935,45.935,0,0,1,71.034,88.9c-1.524-4.25-3-8.519-4.495-12.778-.066-.189-.146-.374-.254-.65a8.812,8.812,0,0,0-1.867,4.275,15.5,15.5,0,0,0,.7,6.811,2.043,2.043,0,0,1-.136,1.658c-1.136,2.212-2.239,4.441-3.347,6.667a1.953,1.953,0,0,0,1.38,3.045c.06.015.119.037.179.051,2.262.544,1.917.343,2.331,2.5.367,1.913.684,3.835,1.04,5.75a3.444,3.444,0,0,0,4.168,2.93c3.743-.584,7.486-1.165,11.312-1.76.108.528.234,1.143.371,1.814l-3.6.731a12.494,12.494,0,0,1,1.376,5.019c.068,1.716.015,3.437.015,5.2H78.238c0-1.212-.024-2.41.005-3.606a11.8,11.8,0,0,0-1.211-5.718.707.707,0,0,0-.872-.448q-2.765.429-5.538.808a5.382,5.382,0,0,1-5.951-4.311c-.4-2.034-.782-4.071-1.1-6.117-.095-.6-.394-.764-.9-.872A3.963,3.963,0,0,1,59.8,94.08c.715-1.423,1.423-2.851,2.144-4.3a11.342,11.342,0,0,1-3.254-5.374,14.644,14.644,0,0,1-.085-6.483,23.209,23.209,0,0,1,26.645-19.2,27.248,27.248,0,0,1,18.18,10.8,28.823,28.823,0,0,1,5.2,12.179,146.327,146.327,0,0,0,4.683,17.648,19.521,19.521,0,0,0,6.12,8.909,1.8,1.8,0,0,1,.606.885c.152.681-.506,1.177-1.3,1.058a17.382,17.382,0,0,1-6.3-2.192c-.159-.094-.328-.173-.494-.256-.009,0-.033.021-.175.12,1.191.975,2.3,2,3.523,2.855,1.319.927,2.739,1.71,4.124,2.542.739.444.909,1.3.267,1.708a1.715,1.715,0,0,1-1.053.186,50.077,50.077,0,0,1-12.041-2.956c-.09-.034-.185-.056-.278-.083l-.093.194c1.351.7,2.671,1.472,4.06,2.084,2.9,1.279,5.836,2.472,8.755,3.7.228.1.539.165.644.345a1.821,1.821,0,0,1,.309,1.048.866.866,0,0,1-.97.7c-2.116-.016-4.234.024-6.347-.069a44.854,44.854,0,0,1-14.7-3.172A2.091,2.091,0,0,0,97.711,116.9Zm16.092,1.187c-.182-.085-.361-.175-.545-.253q-1.917-.811-3.836-1.618a23.352,23.352,0,0,1-8.753-6.411,4.265,4.265,0,0,0-1.077-.905C89.1,102.833,81.96,93.919,77.429,82.742l1.709-.821a77.791,77.791,0,0,0,5.855,10.859,45.511,45.511,0,0,0,8.308,9.133c-3.351-6.023-4.6-12.683-6.045-19.343l1.92-.424c.475,2.092.963,4.1,1.386,6.131A46.535,46.535,0,0,0,97.5,104.988a2.556,2.556,0,0,0,.689.69,46.449,46.449,0,0,0,11.688,5.575c.671.213,1.346.414,2.025.6.658.179,1.322.33,1.984.493a.811.811,0,0,0-.3-.366,28.419,28.419,0,0,1-8.27-9.347c-2.2-4.218-4.075-8.609-6.076-12.932a.923.923,0,0,1,.47-1.257.939.939,0,0,1,1.258.338,6.145,6.145,0,0,1,.386.638q3.256,5.624,6.512,11.248a15.171,15.171,0,0,0,7.027,6.368c.175.079.358.141.686.269-.192-.254-.274-.371-.364-.482a20.984,20.984,0,0,1-3.765-6.75,148.329,148.329,0,0,1-4.824-18.19A25.556,25.556,0,0,0,95.139,64.5a23.312,23.312,0,0,0-17.16-3.741c-8.755,1.591-14.429,6.858-16.952,15.4a14.838,14.838,0,0,0-.46,7.5,7.779,7.779,0,0,0,2.387,4.162,2.288,2.288,0,0,0,.116-1.036c-.172-.979-.44-1.942-.586-2.923a12.3,12.3,0,0,1,1.675-8.893,21.677,21.677,0,0,1,4.474-4.339l1.276,1.519c-.546.458-1.026.918-1.565,1.294a.746.746,0,0,0-.283,1.038c1.5,4.215,3.015,8.425,4.453,12.662,4.1,12.06,11.756,21.016,23.2,26.651A41.983,41.983,0,0,0,113.8,118.085Z" transform="translate(0 0)" fill="#fff"/>
    <path id="Path_2" data-name="Path 2" d="M760.921,58.68a1.015,1.015,0,0,1,1.048.844c.145.646.257,1.3.394,1.948a2.664,2.664,0,0,0,2.455,2.188c.735.067,1.126.4,1.144.97.019.591-.394.961-1.148,1.03a2.66,2.66,0,0,0-2.452,2.191c-.133.628-.253,1.259-.381,1.888a1,1,0,0,1-1.99,0c-.125-.608-.245-1.218-.371-1.826a2.652,2.652,0,0,0-2.527-2.252c-.673-.061-1.065-.411-1.083-.968-.018-.58.388-.964,1.084-1.028a2.655,2.655,0,0,0,2.525-2.255c.13-.629.246-1.26.383-1.887A1.012,1.012,0,0,1,760.921,58.68Zm.07,4.808-1.05,1.173,1.053,1.175,1.03-1.18Z" transform="translate(-652.867 -0.243)" fill="#fff"/>
    <path id="Path_3" data-name="Path 3" d="M874.416,374.721a1,1,0,0,1-.97,1.015,2.655,2.655,0,0,0-2.674,2.451c-.116.547-.222,1.1-.338,1.643a1,1,0,0,1-1.99-.02c-.127-.629-.246-1.26-.381-1.888a2.663,2.663,0,0,0-2.462-2.18c-.73-.066-1.123-.4-1.136-.979-.014-.593.391-.951,1.155-1.022a2.669,2.669,0,0,0,2.435-2.138c.143-.647.258-1.3.392-1.949a.964.964,0,0,1,.972-.877.974.974,0,0,1,1.018.9c.124.609.245,1.218.37,1.826a2.652,2.652,0,0,0,2.534,2.244C874.011,373.806,874.4,374.163,874.416,374.721Zm-4.979-1.155-1.037,1.186,1.045,1.164,1.033-1.177Z" transform="translate(-754.348 -290.404)" fill="#fff"/>
    <path id="Path_4" data-name="Path 4" d="M316.679,142.356a1,1,0,0,1-.93.989,2.685,2.685,0,0,0-2.736,2.536c-.112.527-.205,1.057-.321,1.583a1,1,0,0,1-1.978,0c-.135-.627-.25-1.259-.381-1.887a2.653,2.653,0,0,0-2.491-2.22c-.717-.064-1.114-.42-1.114-1s.4-.933,1.115-1a2.661,2.661,0,0,0,2.49-2.223c.131-.628.246-1.26.382-1.887a1,1,0,0,1,1.978,0c.132.607.248,1.217.372,1.826a2.646,2.646,0,0,0,2.562,2.284C316.286,141.42,316.68,141.794,316.679,142.356Zm-4.973,1.175,1.038-1.186L311.7,141.18l-1.032,1.178Z" transform="translate(-232.471 -72.957)" fill="#fff"/>
  </g>
</svg>
