<svg id="Layer_1" data-name="Layer 1" xmlns="http://www.w3.org/2000/svg" xmlns:xlink="http://www.w3.org/1999/xlink" viewBox="0 0 3066 1457"><defs><style>.cls-1,.cls-6{fill:none;}.cls-2{opacity:0.1;}.cls-3{clip-path:url(#clip-path);}.cls-4{clip-path:url(#clip-path-2);}.cls-5{clip-path:url(#clip-path-3);}.cls-6{stroke:#fff;stroke-miterlimit:10;stroke-width:1.91px;}.cls-7{clip-path:url(#clip-path-4);}.cls-8{clip-path:url(#clip-path-5);}.cls-9{clip-path:url(#clip-path-7);}.cls-10{clip-path:url(#clip-path-8);}.cls-11{clip-path:url(#clip-path-9);}.cls-12{clip-path:url(#clip-path-10);}.cls-13{clip-path:url(#clip-path-12);}.cls-14{clip-path:url(#clip-path-13);}.cls-15{clip-path:url(#clip-path-14);}.cls-16{clip-path:url(#clip-path-15);}</style><clipPath id="clip-path"><rect class="cls-1" width="3066" height="1457"/></clipPath><clipPath id="clip-path-2"><rect class="cls-1" x="1056.9" y="-466.56" width="1331.15" height="1331.15"/></clipPath><clipPath id="clip-path-3"><rect class="cls-1" x="1056.9" y="-466.56" width="1331.15" height="1331.15"/></clipPath><clipPath id="clip-path-4"><rect class="cls-1" x="1056.9" y="864.58" width="1331.15" height="1331.15"/></clipPath><clipPath id="clip-path-5"><rect class="cls-1" x="1056.9" y="864.59" width="1331.15" height="1331.15"/></clipPath><clipPath id="clip-path-7"><rect class="cls-1" x="2388.04" y="-466.56" width="1331.15" height="1331.15"/></clipPath><clipPath id="clip-path-8"><rect class="cls-1" x="2388.05" y="-466.56" width="1331.15" height="1331.15"/></clipPath><clipPath id="clip-path-9"><rect class="cls-1" x="2388.04" y="864.58" width="1331.15" height="1331.15"/></clipPath><clipPath id="clip-path-10"><rect class="cls-1" x="2388.05" y="864.59" width="1331.15" height="1331.15"/></clipPath><clipPath id="clip-path-12"><rect class="cls-1" x="-274.25" y="-466.56" width="1331.15" height="1331.15"/></clipPath><clipPath id="clip-path-13"><rect class="cls-1" x="-274.25" y="-466.56" width="1331.15" height="1331.15"/></clipPath><clipPath id="clip-path-14"><rect class="cls-1" x="-274.25" y="864.58" width="1331.15" height="1331.15"/></clipPath><clipPath id="clip-path-15"><rect class="cls-1" x="-274.25" y="864.59" width="1331.15" height="1331.15"/></clipPath></defs><g class="cls-2"><g class="cls-3"><g class="cls-4"><g class="cls-5"><rect class="cls-6" x="1272.03" y="-85.04" width="235.32" height="235.32" transform="translate(383.97 992.21) rotate(-45)"/><rect class="cls-6" x="1322.87" y="-34.2" width="133.64" height="133.64" transform="translate(383.97 992.21) rotate(-45)"/><line class="cls-6" x1="1389.68" y1="199.01" x2="1389.68" y2="127.11"/><line class="cls-6" x1="1295.19" y1="32.62" x2="1223.29" y2="32.62"/><line class="cls-6" x1="1556.08" y1="32.62" x2="1484.18" y2="32.62"/><rect class="cls-6" x="1272.03" y="247.74" width="235.32" height="235.32" transform="translate(148.65 1089.68) rotate(-45)"/><rect class="cls-6" x="1322.87" y="298.58" width="133.64" height="133.64" transform="translate(148.65 1089.68) rotate(-45)"/><line class="cls-6" x1="1389.68" y1="531.8" x2="1389.68" y2="459.9"/><line class="cls-6" x1="1389.68" y1="270.91" x2="1389.68" y2="199.01"/><line class="cls-6" x1="1295.19" y1="365.4" x2="1223.29" y2="365.4"/><line class="cls-6" x1="1556.08" y1="365.4" x2="1484.18" y2="365.4"/><rect class="cls-6" x="1438.42" y="81.35" width="235.32" height="235.32" transform="translate(315.04 1158.6) rotate(-45)"/><rect class="cls-6" x="1489.26" y="132.19" width="133.64" height="133.64" transform="translate(315.04 1158.6) rotate(-45)"/><line class="cls-6" x1="1556.08" y1="365.4" x2="1556.08" y2="293.5"/><line class="cls-6" x1="1556.08" y1="104.51" x2="1556.08" y2="32.62"/><line class="cls-6" x1="1461.58" y1="199.01" x2="1389.68" y2="199.01"/><line class="cls-6" x1="1722.47" y1="199.01" x2="1650.57" y2="199.01"/><rect class="cls-6" x="1105.63" y="81.35" width="235.32" height="235.32" transform="translate(217.57 923.29) rotate(-45)"/><rect class="cls-6" x="1156.47" y="132.19" width="133.64" height="133.64" transform="translate(217.57 923.29) rotate(-45)"/><line class="cls-6" x1="1223.29" y1="365.4" x2="1223.29" y2="293.5"/><line class="cls-6" x1="1223.29" y1="104.51" x2="1223.29" y2="32.62"/><line class="cls-6" x1="1128.8" y1="199.01" x2="1056.9" y2="199.01"/><line class="cls-6" x1="1389.68" y1="199.01" x2="1317.79" y2="199.01"/><rect class="cls-6" x="1937.6" y="-85.04" width="235.32" height="235.32" transform="translate(578.91 1462.84) rotate(-45)"/><rect class="cls-6" x="1988.44" y="-34.2" width="133.64" height="133.64" transform="translate(578.91 1462.84) rotate(-45)"/><line class="cls-6" x1="2055.26" y1="199.01" x2="2055.26" y2="127.11"/><line class="cls-6" x1="1960.76" y1="32.62" x2="1888.86" y2="32.62"/><line class="cls-6" x1="2221.65" y1="32.62" x2="2149.75" y2="32.62"/><rect class="cls-6" x="1937.6" y="247.74" width="235.32" height="235.32" transform="translate(343.59 1560.31) rotate(-45)"/><rect class="cls-6" x="1988.44" y="298.58" width="133.64" height="133.64" transform="translate(343.59 1560.31) rotate(-45)"/><line class="cls-6" x1="2055.26" y1="531.8" x2="2055.26" y2="459.9"/><line class="cls-6" x1="2055.26" y1="270.91" x2="2055.26" y2="199.01"/><line class="cls-6" x1="1960.76" y1="365.4" x2="1888.86" y2="365.4"/><line class="cls-6" x1="2221.65" y1="365.4" x2="2149.75" y2="365.4"/><rect class="cls-6" x="2103.99" y="81.35" width="235.32" height="235.32" transform="translate(509.99 1629.23) rotate(-45)"/><rect class="cls-6" x="2154.83" y="132.19" width="133.64" height="133.64" transform="translate(509.99 1629.23) rotate(-45)"/><line class="cls-6" x1="2221.65" y1="365.4" x2="2221.65" y2="293.5"/><line class="cls-6" x1="2221.65" y1="104.51" x2="2221.65" y2="32.62"/><line class="cls-6" x1="2127.16" y1="199.01" x2="2055.26" y2="199.01"/><line class="cls-6" x1="2388.04" y1="199.01" x2="2316.15" y2="199.01"/><rect class="cls-6" x="1771.21" y="81.35" width="235.32" height="235.32" transform="translate(412.51 1393.92) rotate(-45)"/><rect class="cls-6" x="1822.05" y="132.19" width="133.64" height="133.64" transform="translate(412.51 1393.92) rotate(-45)"/><line class="cls-6" x1="1888.86" y1="365.4" x2="1888.86" y2="293.5"/><line class="cls-6" x1="1888.86" y1="104.51" x2="1888.86" y2="32.62"/><line class="cls-6" x1="1794.37" y1="199.01" x2="1722.47" y2="199.01"/><line class="cls-6" x1="2055.26" y1="199.01" x2="1983.36" y2="199.01"/><rect class="cls-6" x="1272.03" y="580.53" width="235.32" height="235.32" transform="translate(-86.67 1187.15) rotate(-45)"/><rect class="cls-6" x="1322.87" y="631.37" width="133.64" height="133.64" transform="translate(-86.67 1187.15) rotate(-45)"/><line class="cls-6" x1="1389.68" y1="864.58" x2="1389.68" y2="792.68"/><line class="cls-6" x1="1389.68" y1="603.69" x2="1389.68" y2="531.8"/><line class="cls-6" x1="1295.19" y1="698.19" x2="1223.29" y2="698.19"/><line class="cls-6" x1="1556.08" y1="698.19" x2="1484.18" y2="698.19"/><rect class="cls-6" x="1272.03" y="913.32" width="235.32" height="235.32" transform="translate(-321.98 1284.62) rotate(-45)"/><rect class="cls-6" x="1322.87" y="964.16" width="133.64" height="133.64" transform="translate(-321.98 1284.62) rotate(-45)"/><line class="cls-6" x1="1389.68" y1="1197.37" x2="1389.68" y2="1125.47"/><line class="cls-6" x1="1389.68" y1="936.48" x2="1389.68" y2="864.58"/><line class="cls-6" x1="1295.19" y1="1030.98" x2="1223.29" y2="1030.98"/><line class="cls-6" x1="1556.08" y1="1030.98" x2="1484.18" y2="1030.98"/><rect class="cls-6" x="1438.42" y="746.92" width="235.32" height="235.32" transform="translate(-155.59 1353.54) rotate(-45)"/><rect class="cls-6" x="1489.26" y="797.76" width="133.64" height="133.64" transform="translate(-155.59 1353.54) rotate(-45)"/><line class="cls-6" x1="1556.08" y1="1030.98" x2="1556.08" y2="959.08"/><line class="cls-6" x1="1556.08" y1="770.09" x2="1556.08" y2="698.19"/><line class="cls-6" x1="1461.58" y1="864.58" x2="1389.68" y2="864.58"/><line class="cls-6" x1="1722.47" y1="864.58" x2="1650.57" y2="864.58"/><rect class="cls-6" x="1105.63" y="746.92" width="235.32" height="235.32" transform="translate(-253.06 1118.23) rotate(-45)"/><rect class="cls-6" x="1156.47" y="797.76" width="133.64" height="133.64" transform="translate(-253.06 1118.23) rotate(-45)"/><line class="cls-6" x1="1223.29" y1="1030.98" x2="1223.29" y2="959.08"/><line class="cls-6" x1="1223.29" y1="770.09" x2="1223.29" y2="698.19"/><line class="cls-6" x1="1128.8" y1="864.58" x2="1056.9" y2="864.58"/><line class="cls-6" x1="1389.68" y1="864.58" x2="1317.79" y2="864.58"/><rect class="cls-6" x="1937.6" y="580.53" width="235.32" height="235.32" transform="translate(108.28 1657.78) rotate(-45)"/><rect class="cls-6" x="1988.44" y="631.37" width="133.64" height="133.64" transform="translate(108.28 1657.78) rotate(-45)"/><line class="cls-6" x1="2055.26" y1="864.58" x2="2055.26" y2="792.68"/><line class="cls-6" x1="2055.26" y1="603.69" x2="2055.26" y2="531.8"/><line class="cls-6" x1="1960.76" y1="698.19" x2="1888.86" y2="698.19"/><line class="cls-6" x1="2221.65" y1="698.19" x2="2149.75" y2="698.19"/><rect class="cls-6" x="1937.6" y="913.32" width="235.32" height="235.32" transform="translate(-127.04 1755.25) rotate(-45)"/><rect class="cls-6" x="1988.44" y="964.16" width="133.64" height="133.64" transform="translate(-127.04 1755.25) rotate(-45)"/><line class="cls-6" x1="2055.26" y1="1197.37" x2="2055.26" y2="1125.47"/><line class="cls-6" x1="2055.26" y1="936.48" x2="2055.26" y2="864.58"/><line class="cls-6" x1="1960.76" y1="1030.98" x2="1888.86" y2="1030.98"/><line class="cls-6" x1="2221.65" y1="1030.98" x2="2149.75" y2="1030.98"/><rect class="cls-6" x="2103.99" y="746.92" width="235.32" height="235.32" transform="translate(39.35 1824.17) rotate(-45)"/><rect class="cls-6" x="2154.83" y="797.76" width="133.64" height="133.64" transform="translate(39.35 1824.17) rotate(-45)"/><line class="cls-6" x1="2221.65" y1="1030.98" x2="2221.65" y2="959.08"/><line class="cls-6" x1="2221.65" y1="770.09" x2="2221.65" y2="698.19"/><line class="cls-6" x1="2127.16" y1="864.58" x2="2055.26" y2="864.58"/><line class="cls-6" x1="2388.04" y1="864.58" x2="2316.15" y2="864.58"/><rect class="cls-6" x="1771.21" y="746.92" width="235.32" height="235.32" transform="translate(-58.12 1588.86) rotate(-45)"/><rect class="cls-6" x="1822.05" y="797.76" width="133.64" height="133.64" transform="translate(-58.12 1588.86) rotate(-45)"/><line class="cls-6" x1="1888.86" y1="1030.98" x2="1888.86" y2="959.08"/><line class="cls-6" x1="1888.86" y1="770.09" x2="1888.86" y2="698.19"/><line class="cls-6" x1="1794.37" y1="864.58" x2="1722.47" y2="864.58"/><line class="cls-6" x1="2055.26" y1="864.58" x2="1983.36" y2="864.58"/><rect class="cls-6" x="1604.81" y="-85.04" width="235.32" height="235.32" transform="translate(481.44 1227.52) rotate(-45)"/><rect class="cls-6" x="1655.65" y="-34.2" width="133.64" height="133.64" transform="translate(481.44 1227.52) rotate(-45)"/><line class="cls-6" x1="1722.47" y1="199.01" x2="1722.47" y2="127.11"/><line class="cls-6" x1="1627.98" y1="32.62" x2="1556.08" y2="32.62"/><line class="cls-6" x1="1888.86" y1="32.62" x2="1816.97" y2="32.62"/><rect class="cls-6" x="1771.21" y="-251.44" width="235.32" height="235.32" transform="translate(647.83 1296.45) rotate(-45)"/><line class="cls-6" x1="1888.86" y1="32.62" x2="1888.86" y2="-39.28"/><rect class="cls-6" x="1438.42" y="-251.44" width="235.32" height="235.32" transform="translate(550.36 1061.13) rotate(-45)"/><line class="cls-6" x1="1556.08" y1="32.62" x2="1556.08" y2="-39.28"/><rect class="cls-6" x="2270.39" y="-85.04" width="235.32" height="235.32" transform="translate(676.38 1698.16) rotate(-45)"/><rect class="cls-6" x="2321.23" y="-34.2" width="133.64" height="133.64" transform="translate(676.38 1698.16) rotate(-45)"/><line class="cls-6" x1="2388.04" y1="199.01" x2="2388.04" y2="127.11"/><line class="cls-6" x1="2293.55" y1="32.62" x2="2221.65" y2="32.62"/><line class="cls-6" x1="2554.44" y1="32.62" x2="2482.54" y2="32.62"/><rect class="cls-6" x="2436.78" y="-251.44" width="235.32" height="235.32" transform="translate(842.77 1767.08) rotate(-45)"/><line class="cls-6" x1="2554.44" y1="32.62" x2="2554.44" y2="-39.28"/><rect class="cls-6" x="2103.99" y="-251.44" width="235.32" height="235.32" transform="translate(745.3 1531.76) rotate(-45)"/><line class="cls-6" x1="2221.65" y1="32.62" x2="2221.65" y2="-39.28"/><rect class="cls-6" x="939.24" y="-85.04" width="235.32" height="235.32" transform="translate(286.5 756.89) rotate(-45)"/><rect class="cls-6" x="990.08" y="-34.2" width="133.64" height="133.64" transform="translate(286.5 756.89) rotate(-45)"/><line class="cls-6" x1="1056.9" y1="199.01" x2="1056.9" y2="127.11"/><line class="cls-6" x1="962.4" y1="32.62" x2="890.5" y2="32.62"/><line class="cls-6" x1="1223.29" y1="32.62" x2="1151.39" y2="32.62"/><rect class="cls-6" x="1105.63" y="-251.44" width="235.32" height="235.32" transform="translate(452.89 825.81) rotate(-45)"/><line class="cls-6" x1="1223.29" y1="32.62" x2="1223.29" y2="-39.28"/><rect class="cls-6" x="772.85" y="-251.44" width="235.32" height="235.32" transform="translate(355.42 590.5) rotate(-45)"/><line class="cls-6" x1="890.5" y1="32.62" x2="890.5" y2="-39.28"/><rect class="cls-6" x="1604.81" y="247.74" width="235.32" height="235.32" transform="translate(246.12 1324.99) rotate(-45)"/><rect class="cls-6" x="1655.65" y="298.58" width="133.64" height="133.64" transform="translate(246.12 1324.99) rotate(-45)"/><line class="cls-6" x1="1722.47" y1="531.8" x2="1722.47" y2="459.9"/><line class="cls-6" x1="1722.47" y1="270.91" x2="1722.47" y2="199.01"/><line class="cls-6" x1="1627.98" y1="365.4" x2="1556.08" y2="365.4"/><line class="cls-6" x1="1888.86" y1="365.4" x2="1816.97" y2="365.4"/><rect class="cls-6" x="1604.81" y="580.53" width="235.32" height="235.32" transform="translate(10.81 1422.47) rotate(-45)"/><rect class="cls-6" x="1655.65" y="631.37" width="133.64" height="133.64" transform="translate(10.81 1422.47) rotate(-45)"/><line class="cls-6" x1="1722.47" y1="864.58" x2="1722.47" y2="792.68"/><line class="cls-6" x1="1722.47" y1="603.69" x2="1722.47" y2="531.8"/><line class="cls-6" x1="1627.98" y1="698.19" x2="1556.08" y2="698.19"/><line class="cls-6" x1="1888.86" y1="698.19" x2="1816.97" y2="698.19"/><rect class="cls-6" x="1771.21" y="414.14" width="235.32" height="235.32" transform="translate(177.2 1491.39) rotate(-45)"/><rect class="cls-6" x="1822.05" y="464.98" width="133.64" height="133.64" transform="translate(177.2 1491.39) rotate(-45)"/><line class="cls-6" x1="1888.86" y1="698.19" x2="1888.86" y2="626.29"/><line class="cls-6" x1="1888.86" y1="437.3" x2="1888.86" y2="365.4"/><line class="cls-6" x1="1794.37" y1="531.8" x2="1722.47" y2="531.8"/><line class="cls-6" x1="2055.26" y1="531.8" x2="1983.36" y2="531.8"/><rect class="cls-6" x="1438.42" y="414.14" width="235.32" height="235.32" transform="translate(79.73 1256.07) rotate(-45)"/><rect class="cls-6" x="1489.26" y="464.98" width="133.64" height="133.64" transform="translate(79.73 1256.07) rotate(-45)"/><line class="cls-6" x1="1556.08" y1="698.19" x2="1556.08" y2="626.29"/><line class="cls-6" x1="1556.08" y1="437.3" x2="1556.08" y2="365.4"/><line class="cls-6" x1="1461.58" y1="531.8" x2="1389.68" y2="531.8"/><line class="cls-6" x1="1722.47" y1="531.8" x2="1650.57" y2="531.8"/><rect class="cls-6" x="2270.39" y="247.74" width="235.32" height="235.32" transform="translate(441.06 1795.63) rotate(-45)"/><rect class="cls-6" x="2321.23" y="298.58" width="133.64" height="133.64" transform="translate(441.06 1795.63) rotate(-45)"/><line class="cls-6" x1="2388.04" y1="531.8" x2="2388.04" y2="459.9"/><line class="cls-6" x1="2388.04" y1="270.91" x2="2388.04" y2="199.01"/><line class="cls-6" x1="2293.55" y1="365.4" x2="2221.65" y2="365.4"/><line class="cls-6" x1="2554.44" y1="365.4" x2="2482.54" y2="365.4"/><rect class="cls-6" x="2270.39" y="580.53" width="235.32" height="235.32" transform="translate(205.75 1893.1) rotate(-45)"/><rect class="cls-6" x="2321.23" y="631.37" width="133.64" height="133.64" transform="translate(205.75 1893.1) rotate(-45)"/><line class="cls-6" x1="2388.04" y1="864.58" x2="2388.04" y2="792.68"/><line class="cls-6" x1="2388.04" y1="603.69" x2="2388.04" y2="531.8"/><line class="cls-6" x1="2293.55" y1="698.19" x2="2221.65" y2="698.19"/><line class="cls-6" x1="2554.44" y1="698.19" x2="2482.54" y2="698.19"/><rect class="cls-6" x="2436.78" y="414.14" width="235.32" height="235.32" transform="translate(372.14 1962.02) rotate(-45)"/><rect class="cls-6" x="2487.62" y="464.98" width="133.64" height="133.64" transform="translate(372.14 1962.02) rotate(-45)"/><line class="cls-6" x1="2554.44" y1="698.19" x2="2554.44" y2="626.29"/><line class="cls-6" x1="2554.44" y1="437.3" x2="2554.44" y2="365.4"/><line class="cls-6" x1="2459.94" y1="531.8" x2="2388.04" y2="531.8"/><line class="cls-6" x1="2720.83" y1="531.8" x2="2648.93" y2="531.8"/><rect class="cls-6" x="2103.99" y="414.14" width="235.32" height="235.32" transform="translate(274.67 1726.7) rotate(-45)"/><rect class="cls-6" x="2154.83" y="464.98" width="133.64" height="133.64" transform="translate(274.67 1726.7) rotate(-45)"/><line class="cls-6" x1="2221.65" y1="698.19" x2="2221.65" y2="626.29"/><line class="cls-6" x1="2221.65" y1="437.3" x2="2221.65" y2="365.4"/><line class="cls-6" x1="2127.16" y1="531.8" x2="2055.26" y2="531.8"/><line class="cls-6" x1="2388.04" y1="531.8" x2="2316.15" y2="531.8"/><rect class="cls-6" x="939.24" y="247.74" width="235.32" height="235.32" transform="translate(51.18 854.36) rotate(-45)"/><rect class="cls-6" x="990.08" y="298.58" width="133.64" height="133.64" transform="translate(51.18 854.36) rotate(-45)"/><line class="cls-6" x1="1056.9" y1="531.8" x2="1056.9" y2="459.9"/><line class="cls-6" x1="1056.9" y1="270.91" x2="1056.9" y2="199.01"/><line class="cls-6" x1="962.4" y1="365.4" x2="890.5" y2="365.4"/><line class="cls-6" x1="1223.29" y1="365.4" x2="1151.39" y2="365.4"/><rect class="cls-6" x="939.24" y="580.53" width="235.32" height="235.32" transform="translate(-184.14 951.83) rotate(-45)"/><rect class="cls-6" x="990.08" y="631.37" width="133.64" height="133.64" transform="translate(-184.14 951.83) rotate(-45)"/><line class="cls-6" x1="1056.9" y1="864.58" x2="1056.9" y2="792.68"/><line class="cls-6" x1="1056.9" y1="603.69" x2="1056.9" y2="531.8"/><line class="cls-6" x1="962.4" y1="698.19" x2="890.5" y2="698.19"/><line class="cls-6" x1="1223.29" y1="698.19" x2="1151.39" y2="698.19"/><rect class="cls-6" x="1105.63" y="414.14" width="235.32" height="235.32" transform="translate(-17.74 1020.76) rotate(-45)"/><rect class="cls-6" x="1156.47" y="464.98" width="133.64" height="133.64" transform="translate(-17.74 1020.76) rotate(-45)"/><line class="cls-6" x1="1223.29" y1="698.19" x2="1223.29" y2="626.29"/><line class="cls-6" x1="1223.29" y1="437.3" x2="1223.29" y2="365.4"/><line class="cls-6" x1="1128.8" y1="531.8" x2="1056.9" y2="531.8"/><line class="cls-6" x1="1389.68" y1="531.8" x2="1317.79" y2="531.8"/><rect class="cls-6" x="772.85" y="414.14" width="235.32" height="235.32" transform="translate(-115.21 785.44) rotate(-45)"/><rect class="cls-6" x="823.69" y="464.98" width="133.64" height="133.64" transform="translate(-115.21 785.44) rotate(-45)"/><line class="cls-6" x1="890.5" y1="698.19" x2="890.5" y2="626.29"/><line class="cls-6" x1="890.5" y1="437.3" x2="890.5" y2="365.4"/><line class="cls-6" x1="796.01" y1="531.8" x2="724.11" y2="531.8"/><line class="cls-6" x1="1056.9" y1="531.8" x2="985" y2="531.8"/></g></g><g class="cls-7"><g class="cls-8"><rect class="cls-6" x="1272.03" y="1246.11" width="235.32" height="235.32" transform="translate(-557.3 1382.09) rotate(-45)"/><rect class="cls-6" x="1322.87" y="1296.95" width="133.64" height="133.64" transform="translate(-557.3 1382.09) rotate(-45)"/><line class="cls-6" x1="1389.68" y1="1269.27" x2="1389.68" y2="1197.37"/><line class="cls-6" x1="1295.19" y1="1363.76" x2="1223.29" y2="1363.76"/><line class="cls-6" x1="1556.08" y1="1363.76" x2="1484.18" y2="1363.76"/><rect class="cls-6" x="1438.42" y="1412.5" width="235.32" height="235.32" transform="translate(-626.22 1548.49) rotate(-45)"/><rect class="cls-6" x="1489.26" y="1463.34" width="133.64" height="133.64" transform="translate(-626.22 1548.49) rotate(-45)"/><line class="cls-6" x1="1556.08" y1="1435.66" x2="1556.08" y2="1363.76"/><rect class="cls-6" x="1105.63" y="1412.5" width="235.32" height="235.32" transform="translate(-723.69 1313.17) rotate(-45)"/><rect class="cls-6" x="1156.47" y="1463.34" width="133.64" height="133.64" transform="translate(-723.69 1313.17) rotate(-45)"/><line class="cls-6" x1="1223.29" y1="1435.66" x2="1223.29" y2="1363.76"/><rect class="cls-6" x="1937.6" y="1246.11" width="235.32" height="235.32" transform="translate(-362.36 1852.72) rotate(-45)"/><rect class="cls-6" x="1988.44" y="1296.95" width="133.64" height="133.64" transform="translate(-362.36 1852.72) rotate(-45)"/><line class="cls-6" x1="2055.26" y1="1269.27" x2="2055.26" y2="1197.37"/><line class="cls-6" x1="1960.76" y1="1363.76" x2="1888.86" y2="1363.76"/><line class="cls-6" x1="2221.65" y1="1363.76" x2="2149.75" y2="1363.76"/><rect class="cls-6" x="2103.99" y="1412.5" width="235.32" height="235.32" transform="translate(-431.28 2019.12) rotate(-45)"/><rect class="cls-6" x="2154.83" y="1463.34" width="133.64" height="133.64" transform="translate(-431.28 2019.12) rotate(-45)"/><line class="cls-6" x1="2221.65" y1="1435.66" x2="2221.65" y2="1363.76"/><rect class="cls-6" x="1771.21" y="1412.5" width="235.32" height="235.32" transform="translate(-528.75 1783.8) rotate(-45)"/><rect class="cls-6" x="1822.05" y="1463.34" width="133.64" height="133.64" transform="translate(-528.75 1783.8) rotate(-45)"/><line class="cls-6" x1="1888.86" y1="1435.66" x2="1888.86" y2="1363.76"/><rect class="cls-6" x="1272.03" y="580.53" width="235.32" height="235.32" transform="translate(-86.67 1187.15) rotate(-45)"/><rect class="cls-6" x="1322.87" y="631.37" width="133.64" height="133.64" transform="translate(-86.67 1187.15) rotate(-45)"/><line class="cls-6" x1="1389.68" y1="864.58" x2="1389.68" y2="792.68"/><line class="cls-6" x1="1389.68" y1="603.69" x2="1389.68" y2="531.8"/><line class="cls-6" x1="1295.19" y1="698.19" x2="1223.29" y2="698.19"/><line class="cls-6" x1="1556.08" y1="698.19" x2="1484.18" y2="698.19"/><rect class="cls-6" x="1272.03" y="913.32" width="235.32" height="235.32" transform="translate(-321.98 1284.62) rotate(-45)"/><rect class="cls-6" x="1322.87" y="964.16" width="133.64" height="133.64" transform="translate(-321.98 1284.62) rotate(-45)"/><line class="cls-6" x1="1389.68" y1="1197.37" x2="1389.68" y2="1125.47"/><line class="cls-6" x1="1389.68" y1="936.48" x2="1389.68" y2="864.58"/><line class="cls-6" x1="1295.19" y1="1030.98" x2="1223.29" y2="1030.98"/><line class="cls-6" x1="1556.08" y1="1030.98" x2="1484.18" y2="1030.98"/><rect class="cls-6" x="1438.42" y="746.92" width="235.32" height="235.32" transform="translate(-155.59 1353.54) rotate(-45)"/><rect class="cls-6" x="1489.26" y="797.76" width="133.64" height="133.64" transform="translate(-155.59 1353.54) rotate(-45)"/><line class="cls-6" x1="1556.08" y1="1030.98" x2="1556.08" y2="959.08"/><line class="cls-6" x1="1556.08" y1="770.09" x2="1556.08" y2="698.19"/><line class="cls-6" x1="1461.58" y1="864.58" x2="1389.68" y2="864.58"/><line class="cls-6" x1="1722.47" y1="864.58" x2="1650.57" y2="864.58"/><rect class="cls-6" x="1105.63" y="746.92" width="235.32" height="235.32" transform="translate(-253.06 1118.23) rotate(-45)"/><rect class="cls-6" x="1156.47" y="797.76" width="133.64" height="133.64" transform="translate(-253.06 1118.23) rotate(-45)"/><line class="cls-6" x1="1223.29" y1="1030.98" x2="1223.29" y2="959.08"/><line class="cls-6" x1="1223.29" y1="770.09" x2="1223.29" y2="698.19"/><line class="cls-6" x1="1128.8" y1="864.58" x2="1056.9" y2="864.58"/><line class="cls-6" x1="1389.68" y1="864.58" x2="1317.79" y2="864.58"/><rect class="cls-6" x="1937.6" y="580.53" width="235.32" height="235.32" transform="translate(108.28 1657.78) rotate(-45)"/><rect class="cls-6" x="1988.44" y="631.37" width="133.64" height="133.64" transform="translate(108.28 1657.78) rotate(-45)"/><line class="cls-6" x1="2055.26" y1="864.58" x2="2055.26" y2="792.68"/><line class="cls-6" x1="2055.26" y1="603.69" x2="2055.26" y2="531.8"/><line class="cls-6" x1="1960.76" y1="698.19" x2="1888.86" y2="698.19"/><line class="cls-6" x1="2221.65" y1="698.19" x2="2149.75" y2="698.19"/><rect class="cls-6" x="1937.6" y="913.32" width="235.32" height="235.32" transform="translate(-127.04 1755.25) rotate(-45)"/><rect class="cls-6" x="1988.44" y="964.16" width="133.64" height="133.64" transform="translate(-127.04 1755.25) rotate(-45)"/><line class="cls-6" x1="2055.26" y1="1197.37" x2="2055.26" y2="1125.47"/><line class="cls-6" x1="2055.26" y1="936.48" x2="2055.26" y2="864.58"/><line class="cls-6" x1="1960.76" y1="1030.98" x2="1888.86" y2="1030.98"/><line class="cls-6" x1="2221.65" y1="1030.98" x2="2149.75" y2="1030.98"/><rect class="cls-6" x="2103.99" y="746.92" width="235.32" height="235.32" transform="translate(39.35 1824.17) rotate(-45)"/><rect class="cls-6" x="2154.83" y="797.76" width="133.64" height="133.64" transform="translate(39.35 1824.17) rotate(-45)"/><line class="cls-6" x1="2221.65" y1="1030.98" x2="2221.65" y2="959.08"/><line class="cls-6" x1="2221.65" y1="770.09" x2="2221.65" y2="698.19"/><line class="cls-6" x1="2127.16" y1="864.58" x2="2055.26" y2="864.58"/><line class="cls-6" x1="2388.04" y1="864.58" x2="2316.15" y2="864.58"/><rect class="cls-6" x="1771.21" y="746.92" width="235.32" height="235.32" transform="translate(-58.12 1588.86) rotate(-45)"/><rect class="cls-6" x="1822.05" y="797.76" width="133.64" height="133.64" transform="translate(-58.12 1588.86) rotate(-45)"/><line class="cls-6" x1="1888.86" y1="1030.98" x2="1888.86" y2="959.08"/><line class="cls-6" x1="1888.86" y1="770.09" x2="1888.86" y2="698.19"/><line class="cls-6" x1="1794.37" y1="864.58" x2="1722.47" y2="864.58"/><line class="cls-6" x1="2055.26" y1="864.58" x2="1983.36" y2="864.58"/><rect class="cls-6" x="1604.81" y="913.32" width="235.32" height="235.32" transform="translate(-224.51 1519.94) rotate(-45)"/><rect class="cls-6" x="1655.65" y="964.16" width="133.64" height="133.64" transform="translate(-224.51 1519.94) rotate(-45)"/><line class="cls-6" x1="1722.47" y1="1197.37" x2="1722.47" y2="1125.47"/><line class="cls-6" x1="1722.47" y1="936.48" x2="1722.47" y2="864.58"/><line class="cls-6" x1="1627.98" y1="1030.98" x2="1556.08" y2="1030.98"/><line class="cls-6" x1="1888.86" y1="1030.98" x2="1816.97" y2="1030.98"/><rect class="cls-6" x="1604.81" y="1246.11" width="235.32" height="235.32" transform="translate(-459.83 1617.41) rotate(-45)"/><rect class="cls-6" x="1655.65" y="1296.95" width="133.64" height="133.64" transform="translate(-459.83 1617.41) rotate(-45)"/><line class="cls-6" x1="1722.47" y1="1269.27" x2="1722.47" y2="1197.37"/><line class="cls-6" x1="1627.98" y1="1363.76" x2="1556.08" y2="1363.76"/><line class="cls-6" x1="1888.86" y1="1363.76" x2="1816.97" y2="1363.76"/><rect class="cls-6" x="1771.21" y="1079.71" width="235.32" height="235.32" transform="translate(-293.43 1686.33) rotate(-45)"/><rect class="cls-6" x="1822.05" y="1130.55" width="133.64" height="133.64" transform="translate(-293.43 1686.33) rotate(-45)"/><line class="cls-6" x1="1888.86" y1="1363.76" x2="1888.86" y2="1291.86"/><line class="cls-6" x1="1888.86" y1="1102.87" x2="1888.86" y2="1030.98"/><line class="cls-6" x1="1794.37" y1="1197.37" x2="1722.47" y2="1197.37"/><line class="cls-6" x1="2055.26" y1="1197.37" x2="1983.36" y2="1197.37"/><rect class="cls-6" x="1438.42" y="1079.71" width="235.32" height="235.32" transform="translate(-390.9 1451.01) rotate(-45)"/><rect class="cls-6" x="1489.26" y="1130.55" width="133.64" height="133.64" transform="translate(-390.9 1451.01) rotate(-45)"/><line class="cls-6" x1="1556.08" y1="1363.76" x2="1556.08" y2="1291.86"/><line class="cls-6" x1="1556.08" y1="1102.87" x2="1556.08" y2="1030.98"/><line class="cls-6" x1="1461.58" y1="1197.37" x2="1389.68" y2="1197.37"/><line class="cls-6" x1="1722.47" y1="1197.37" x2="1650.57" y2="1197.37"/><rect class="cls-6" x="2270.39" y="913.32" width="235.32" height="235.32" transform="translate(-29.57 1990.57) rotate(-45)"/><rect class="cls-6" x="2321.23" y="964.16" width="133.64" height="133.64" transform="translate(-29.57 1990.57) rotate(-45)"/><line class="cls-6" x1="2388.04" y1="1197.37" x2="2388.04" y2="1125.47"/><line class="cls-6" x1="2388.04" y1="936.48" x2="2388.04" y2="864.58"/><line class="cls-6" x1="2293.55" y1="1030.98" x2="2221.65" y2="1030.98"/><line class="cls-6" x1="2554.44" y1="1030.98" x2="2482.54" y2="1030.98"/><rect class="cls-6" x="2270.39" y="1246.11" width="235.32" height="235.32" transform="translate(-264.88 2088.04) rotate(-45)"/><rect class="cls-6" x="2321.23" y="1296.95" width="133.64" height="133.64" transform="translate(-264.88 2088.04) rotate(-45)"/><line class="cls-6" x1="2388.04" y1="1269.27" x2="2388.04" y2="1197.37"/><line class="cls-6" x1="2293.55" y1="1363.76" x2="2221.65" y2="1363.76"/><line class="cls-6" x1="2554.44" y1="1363.76" x2="2482.54" y2="1363.76"/><rect class="cls-6" x="2436.78" y="1079.71" width="235.32" height="235.32" transform="translate(-98.49 2156.96) rotate(-45)"/><rect class="cls-6" x="2487.62" y="1130.55" width="133.64" height="133.64" transform="translate(-98.49 2156.96) rotate(-45)"/><line class="cls-6" x1="2554.44" y1="1363.76" x2="2554.44" y2="1291.86"/><line class="cls-6" x1="2554.44" y1="1102.87" x2="2554.44" y2="1030.98"/><line class="cls-6" x1="2459.94" y1="1197.37" x2="2388.04" y2="1197.37"/><line class="cls-6" x1="2720.83" y1="1197.37" x2="2648.93" y2="1197.37"/><rect class="cls-6" x="2103.99" y="1079.71" width="235.32" height="235.32" transform="translate(-195.96 1921.65) rotate(-45)"/><rect class="cls-6" x="2154.83" y="1130.55" width="133.64" height="133.64" transform="translate(-195.96 1921.65) rotate(-45)"/><line class="cls-6" x1="2221.65" y1="1363.76" x2="2221.65" y2="1291.86"/><line class="cls-6" x1="2221.65" y1="1102.87" x2="2221.65" y2="1030.98"/><line class="cls-6" x1="2127.16" y1="1197.37" x2="2055.26" y2="1197.37"/><line class="cls-6" x1="2388.04" y1="1197.37" x2="2316.15" y2="1197.37"/><rect class="cls-6" x="939.24" y="913.32" width="235.32" height="235.32" transform="translate(-419.45 1049.3) rotate(-45)"/><rect class="cls-6" x="990.08" y="964.16" width="133.64" height="133.64" transform="translate(-419.45 1049.3) rotate(-45)"/><line class="cls-6" x1="1056.9" y1="1197.37" x2="1056.9" y2="1125.47"/><line class="cls-6" x1="1056.9" y1="936.48" x2="1056.9" y2="864.58"/><line class="cls-6" x1="962.4" y1="1030.98" x2="890.5" y2="1030.98"/><line class="cls-6" x1="1223.29" y1="1030.98" x2="1151.39" y2="1030.98"/><rect class="cls-6" x="939.24" y="1246.11" width="235.32" height="235.32" transform="translate(-654.77 1146.78) rotate(-45)"/><rect class="cls-6" x="990.08" y="1296.95" width="133.64" height="133.64" transform="translate(-654.77 1146.78) rotate(-45)"/><line class="cls-6" x1="1056.9" y1="1269.27" x2="1056.9" y2="1197.37"/><line class="cls-6" x1="962.4" y1="1363.76" x2="890.5" y2="1363.76"/><line class="cls-6" x1="1223.29" y1="1363.76" x2="1151.39" y2="1363.76"/><rect class="cls-6" x="1105.63" y="1079.71" width="235.32" height="235.32" transform="translate(-488.37 1215.7) rotate(-45)"/><rect class="cls-6" x="1156.47" y="1130.55" width="133.64" height="133.64" transform="translate(-488.37 1215.7) rotate(-45)"/><line class="cls-6" x1="1223.29" y1="1363.76" x2="1223.29" y2="1291.86"/><line class="cls-6" x1="1223.29" y1="1102.87" x2="1223.29" y2="1030.98"/><line class="cls-6" x1="1128.8" y1="1197.37" x2="1056.9" y2="1197.37"/><line class="cls-6" x1="1389.68" y1="1197.37" x2="1317.79" y2="1197.37"/><rect class="cls-6" x="772.85" y="1079.71" width="235.32" height="235.32" transform="translate(-585.85 980.38) rotate(-45)"/><rect class="cls-6" x="823.69" y="1130.55" width="133.64" height="133.64" transform="translate(-585.85 980.38) rotate(-45)"/><line class="cls-6" x1="890.5" y1="1363.76" x2="890.5" y2="1291.86"/><line class="cls-6" x1="890.5" y1="1102.87" x2="890.5" y2="1030.98"/><line class="cls-6" x1="796.01" y1="1197.37" x2="724.11" y2="1197.37"/><line class="cls-6" x1="1056.9" y1="1197.37" x2="985" y2="1197.37"/></g><g class="cls-5"><rect class="cls-6" x="1272.03" y="580.53" width="235.32" height="235.32" transform="translate(-86.67 1187.15) rotate(-45)"/><rect class="cls-6" x="1272.03" y="913.32" width="235.32" height="235.32" transform="translate(-321.98 1284.62) rotate(-45)"/><rect class="cls-6" x="1322.87" y="964.16" width="133.64" height="133.64" transform="translate(-321.98 1284.62) rotate(-45)"/><line class="cls-6" x1="1389.68" y1="1197.37" x2="1389.68" y2="1125.47"/><line class="cls-6" x1="1389.68" y1="936.48" x2="1389.68" y2="864.58"/><line class="cls-6" x1="1295.19" y1="1030.98" x2="1223.29" y2="1030.98"/><line class="cls-6" x1="1556.08" y1="1030.98" x2="1484.18" y2="1030.98"/><rect class="cls-6" x="1438.42" y="746.92" width="235.32" height="235.32" transform="translate(-155.59 1353.54) rotate(-45)"/><rect class="cls-6" x="1489.26" y="797.76" width="133.64" height="133.64" transform="translate(-155.59 1353.54) rotate(-45)"/><line class="cls-6" x1="1556.08" y1="1030.98" x2="1556.08" y2="959.08"/><line class="cls-6" x1="1461.58" y1="864.58" x2="1389.68" y2="864.58"/><line class="cls-6" x1="1722.47" y1="864.58" x2="1650.57" y2="864.58"/><rect class="cls-6" x="1105.63" y="746.92" width="235.32" height="235.32" transform="translate(-253.06 1118.23) rotate(-45)"/><rect class="cls-6" x="1156.47" y="797.76" width="133.64" height="133.64" transform="translate(-253.06 1118.23) rotate(-45)"/><line class="cls-6" x1="1223.29" y1="1030.98" x2="1223.29" y2="959.08"/><line class="cls-6" x1="1128.8" y1="864.58" x2="1056.9" y2="864.58"/><line class="cls-6" x1="1389.68" y1="864.58" x2="1317.79" y2="864.58"/><rect class="cls-6" x="1937.6" y="580.53" width="235.32" height="235.32" transform="translate(108.28 1657.78) rotate(-45)"/><rect class="cls-6" x="1937.6" y="913.32" width="235.32" height="235.32" transform="translate(-127.04 1755.25) rotate(-45)"/><rect class="cls-6" x="1988.44" y="964.16" width="133.64" height="133.64" transform="translate(-127.04 1755.25) rotate(-45)"/><line class="cls-6" x1="2055.26" y1="1197.37" x2="2055.26" y2="1125.47"/><line class="cls-6" x1="2055.26" y1="936.48" x2="2055.26" y2="864.58"/><line class="cls-6" x1="1960.76" y1="1030.98" x2="1888.86" y2="1030.98"/><line class="cls-6" x1="2221.65" y1="1030.98" x2="2149.75" y2="1030.98"/><rect class="cls-6" x="2103.99" y="746.92" width="235.32" height="235.32" transform="translate(39.35 1824.17) rotate(-45)"/><rect class="cls-6" x="2154.83" y="797.76" width="133.64" height="133.64" transform="translate(39.35 1824.17) rotate(-45)"/><line class="cls-6" x1="2221.65" y1="1030.98" x2="2221.65" y2="959.08"/><line class="cls-6" x1="2127.16" y1="864.58" x2="2055.26" y2="864.58"/><line class="cls-6" x1="2388.04" y1="864.58" x2="2316.15" y2="864.58"/><rect class="cls-6" x="1771.21" y="746.92" width="235.32" height="235.32" transform="translate(-58.12 1588.86) rotate(-45)"/><rect class="cls-6" x="1822.05" y="797.76" width="133.64" height="133.64" transform="translate(-58.12 1588.86) rotate(-45)"/><line class="cls-6" x1="1888.86" y1="1030.98" x2="1888.86" y2="959.08"/><line class="cls-6" x1="1794.37" y1="864.58" x2="1722.47" y2="864.58"/><line class="cls-6" x1="2055.26" y1="864.58" x2="1983.36" y2="864.58"/><rect class="cls-6" x="1604.81" y="580.53" width="235.32" height="235.32" transform="translate(10.81 1422.47) rotate(-45)"/><rect class="cls-6" x="2270.39" y="580.53" width="235.32" height="235.32" transform="translate(205.75 1893.1) rotate(-45)"/><rect class="cls-6" x="939.24" y="580.53" width="235.32" height="235.32" transform="translate(-184.14 951.83) rotate(-45)"/></g></g><g class="cls-9"><g class="cls-10"><rect class="cls-6" x="2603.17" y="-85.04" width="235.32" height="235.32" transform="translate(773.85 1933.47) rotate(-45)"/><rect class="cls-6" x="2654.01" y="-34.2" width="133.64" height="133.64" transform="translate(773.85 1933.47) rotate(-45)"/><line class="cls-6" x1="2720.83" y1="199.01" x2="2720.83" y2="127.11"/><line class="cls-6" x1="2626.34" y1="32.62" x2="2554.44" y2="32.62"/><line class="cls-6" x1="2887.22" y1="32.62" x2="2815.33" y2="32.62"/><rect class="cls-6" x="2603.17" y="247.74" width="235.32" height="235.32" transform="translate(538.53 2030.94) rotate(-45)"/><rect class="cls-6" x="2654.01" y="298.58" width="133.64" height="133.64" transform="translate(538.53 2030.94) rotate(-45)"/><line class="cls-6" x1="2720.83" y1="531.8" x2="2720.83" y2="459.9"/><line class="cls-6" x1="2720.83" y1="270.91" x2="2720.83" y2="199.01"/><line class="cls-6" x1="2626.34" y1="365.4" x2="2554.44" y2="365.4"/><line class="cls-6" x1="2887.22" y1="365.4" x2="2815.33" y2="365.4"/><rect class="cls-6" x="2769.57" y="81.35" width="235.32" height="235.32" transform="translate(704.93 2099.86) rotate(-45)"/><rect class="cls-6" x="2820.41" y="132.19" width="133.64" height="133.64" transform="translate(704.93 2099.86) rotate(-45)"/><line class="cls-6" x1="2887.22" y1="365.4" x2="2887.22" y2="293.5"/><line class="cls-6" x1="2887.22" y1="104.51" x2="2887.22" y2="32.62"/><line class="cls-6" x1="2792.73" y1="199.01" x2="2720.83" y2="199.01"/><line class="cls-6" x1="3053.62" y1="199.01" x2="2981.72" y2="199.01"/><rect class="cls-6" x="2436.78" y="81.35" width="235.32" height="235.32" transform="translate(607.46 1864.55) rotate(-45)"/><rect class="cls-6" x="2487.62" y="132.19" width="133.64" height="133.64" transform="translate(607.46 1864.55) rotate(-45)"/><line class="cls-6" x1="2554.44" y1="365.4" x2="2554.44" y2="293.5"/><line class="cls-6" x1="2554.44" y1="104.51" x2="2554.44" y2="32.62"/><line class="cls-6" x1="2459.94" y1="199.01" x2="2388.04" y2="199.01"/><line class="cls-6" x1="2720.83" y1="199.01" x2="2648.93" y2="199.01"/><rect class="cls-6" x="3102.35" y="81.35" width="235.32" height="235.32" transform="translate(802.4 2335.18) rotate(-45)"/><line class="cls-6" x1="3125.52" y1="199.01" x2="3053.62" y2="199.01"/><rect class="cls-6" x="2603.17" y="580.53" width="235.32" height="235.32" transform="translate(303.22 2128.41) rotate(-45)"/><rect class="cls-6" x="2654.01" y="631.37" width="133.64" height="133.64" transform="translate(303.22 2128.41) rotate(-45)"/><line class="cls-6" x1="2720.83" y1="864.58" x2="2720.83" y2="792.68"/><line class="cls-6" x1="2720.83" y1="603.69" x2="2720.83" y2="531.8"/><line class="cls-6" x1="2626.34" y1="698.19" x2="2554.44" y2="698.19"/><line class="cls-6" x1="2887.22" y1="698.19" x2="2815.33" y2="698.19"/><rect class="cls-6" x="2603.17" y="913.32" width="235.32" height="235.32" transform="translate(67.9 2225.88) rotate(-45)"/><rect class="cls-6" x="2654.01" y="964.16" width="133.64" height="133.64" transform="translate(67.9 2225.88) rotate(-45)"/><line class="cls-6" x1="2720.83" y1="1197.37" x2="2720.83" y2="1125.47"/><line class="cls-6" x1="2720.83" y1="936.48" x2="2720.83" y2="864.58"/><line class="cls-6" x1="2626.34" y1="1030.98" x2="2554.44" y2="1030.98"/><line class="cls-6" x1="2887.22" y1="1030.98" x2="2815.33" y2="1030.98"/><rect class="cls-6" x="2769.57" y="746.92" width="235.32" height="235.32" transform="translate(234.3 2294.81) rotate(-45)"/><rect class="cls-6" x="2820.41" y="797.76" width="133.64" height="133.64" transform="translate(234.3 2294.81) rotate(-45)"/><line class="cls-6" x1="2887.22" y1="1030.98" x2="2887.22" y2="959.08"/><line class="cls-6" x1="2887.22" y1="770.09" x2="2887.22" y2="698.19"/><line class="cls-6" x1="2792.73" y1="864.58" x2="2720.83" y2="864.58"/><line class="cls-6" x1="3053.62" y1="864.58" x2="2981.72" y2="864.58"/><rect class="cls-6" x="2436.78" y="746.92" width="235.32" height="235.32" transform="translate(136.83 2059.49) rotate(-45)"/><rect class="cls-6" x="2487.62" y="797.76" width="133.64" height="133.64" transform="translate(136.83 2059.49) rotate(-45)"/><line class="cls-6" x1="2554.44" y1="1030.98" x2="2554.44" y2="959.08"/><line class="cls-6" x1="2554.44" y1="770.09" x2="2554.44" y2="698.19"/><line class="cls-6" x1="2459.94" y1="864.58" x2="2388.04" y2="864.58"/><line class="cls-6" x1="2720.83" y1="864.58" x2="2648.93" y2="864.58"/><rect class="cls-6" x="3102.35" y="746.92" width="235.32" height="235.32" transform="translate(331.77 2530.12) rotate(-45)"/><line class="cls-6" x1="3125.52" y1="864.58" x2="3053.62" y2="864.58"/><rect class="cls-6" x="2935.96" y="-85.04" width="235.32" height="235.32" transform="translate(871.32 2168.79) rotate(-45)"/><rect class="cls-6" x="2986.8" y="-34.2" width="133.64" height="133.64" transform="translate(871.32 2168.79) rotate(-45)"/><line class="cls-6" x1="3053.62" y1="199.01" x2="3053.62" y2="127.11"/><line class="cls-6" x1="2959.12" y1="32.62" x2="2887.22" y2="32.62"/><rect class="cls-6" x="3102.35" y="-251.44" width="235.32" height="235.32" transform="translate(1037.71 2237.71) rotate(-45)"/><rect class="cls-6" x="2769.57" y="-251.44" width="235.32" height="235.32" transform="translate(940.24 2002.39) rotate(-45)"/><line class="cls-6" x1="2887.22" y1="32.62" x2="2887.22" y2="-39.28"/><rect class="cls-6" x="2270.39" y="-85.04" width="235.32" height="235.32" transform="translate(676.38 1698.16) rotate(-45)"/><rect class="cls-6" x="2321.23" y="-34.2" width="133.64" height="133.64" transform="translate(676.38 1698.16) rotate(-45)"/><line class="cls-6" x1="2388.04" y1="199.01" x2="2388.04" y2="127.11"/><line class="cls-6" x1="2293.55" y1="32.62" x2="2221.65" y2="32.62"/><line class="cls-6" x1="2554.44" y1="32.62" x2="2482.54" y2="32.62"/><rect class="cls-6" x="2436.78" y="-251.44" width="235.32" height="235.32" transform="translate(842.77 1767.08) rotate(-45)"/><line class="cls-6" x1="2554.44" y1="32.62" x2="2554.44" y2="-39.28"/><rect class="cls-6" x="2103.99" y="-251.44" width="235.32" height="235.32" transform="translate(745.3 1531.76) rotate(-45)"/><line class="cls-6" x1="2221.65" y1="32.62" x2="2221.65" y2="-39.28"/><rect class="cls-6" x="2935.96" y="247.74" width="235.32" height="235.32" transform="translate(636.01 2266.26) rotate(-45)"/><rect class="cls-6" x="2986.8" y="298.58" width="133.64" height="133.64" transform="translate(636.01 2266.26) rotate(-45)"/><line class="cls-6" x1="3053.62" y1="531.8" x2="3053.62" y2="459.9"/><line class="cls-6" x1="3053.62" y1="270.91" x2="3053.62" y2="199.01"/><line class="cls-6" x1="2959.12" y1="365.4" x2="2887.22" y2="365.4"/><rect class="cls-6" x="2935.96" y="580.53" width="235.32" height="235.32" transform="translate(400.69 2363.73) rotate(-45)"/><rect class="cls-6" x="2986.8" y="631.37" width="133.64" height="133.64" transform="translate(400.69 2363.73) rotate(-45)"/><line class="cls-6" x1="3053.62" y1="864.58" x2="3053.62" y2="792.68"/><line class="cls-6" x1="3053.62" y1="603.69" x2="3053.62" y2="531.8"/><line class="cls-6" x1="2959.12" y1="698.19" x2="2887.22" y2="698.19"/><rect class="cls-6" x="3102.35" y="414.14" width="235.32" height="235.32" transform="translate(567.08 2432.65) rotate(-45)"/><line class="cls-6" x1="3125.52" y1="531.8" x2="3053.62" y2="531.8"/><rect class="cls-6" x="2769.57" y="414.14" width="235.32" height="235.32" transform="translate(469.61 2197.34) rotate(-45)"/><rect class="cls-6" x="2820.41" y="464.98" width="133.64" height="133.64" transform="translate(469.61 2197.34) rotate(-45)"/><line class="cls-6" x1="2887.22" y1="698.19" x2="2887.22" y2="626.29"/><line class="cls-6" x1="2887.22" y1="437.3" x2="2887.22" y2="365.4"/><line class="cls-6" x1="2792.73" y1="531.8" x2="2720.83" y2="531.8"/><line class="cls-6" x1="3053.62" y1="531.8" x2="2981.72" y2="531.8"/><rect class="cls-6" x="2270.39" y="247.74" width="235.32" height="235.32" transform="translate(441.06 1795.63) rotate(-45)"/><rect class="cls-6" x="2321.23" y="298.58" width="133.64" height="133.64" transform="translate(441.06 1795.63) rotate(-45)"/><line class="cls-6" x1="2388.04" y1="531.8" x2="2388.04" y2="459.9"/><line class="cls-6" x1="2388.04" y1="270.91" x2="2388.04" y2="199.01"/><line class="cls-6" x1="2293.55" y1="365.4" x2="2221.65" y2="365.4"/><line class="cls-6" x1="2554.44" y1="365.4" x2="2482.54" y2="365.4"/><rect class="cls-6" x="2270.39" y="580.53" width="235.32" height="235.32" transform="translate(205.75 1893.1) rotate(-45)"/><rect class="cls-6" x="2321.23" y="631.37" width="133.64" height="133.64" transform="translate(205.75 1893.1) rotate(-45)"/><line class="cls-6" x1="2388.04" y1="864.58" x2="2388.04" y2="792.68"/><line class="cls-6" x1="2388.04" y1="603.69" x2="2388.04" y2="531.8"/><line class="cls-6" x1="2293.55" y1="698.19" x2="2221.65" y2="698.19"/><line class="cls-6" x1="2554.44" y1="698.19" x2="2482.54" y2="698.19"/><rect class="cls-6" x="2436.78" y="414.14" width="235.32" height="235.32" transform="translate(372.14 1962.02) rotate(-45)"/><rect class="cls-6" x="2487.62" y="464.98" width="133.64" height="133.64" transform="translate(372.14 1962.02) rotate(-45)"/><line class="cls-6" x1="2554.44" y1="698.19" x2="2554.44" y2="626.29"/><line class="cls-6" x1="2554.44" y1="437.3" x2="2554.44" y2="365.4"/><line class="cls-6" x1="2459.94" y1="531.8" x2="2388.04" y2="531.8"/><line class="cls-6" x1="2720.83" y1="531.8" x2="2648.93" y2="531.8"/><rect class="cls-6" x="2103.99" y="414.14" width="235.32" height="235.32" transform="translate(274.67 1726.7) rotate(-45)"/><rect class="cls-6" x="2154.83" y="464.98" width="133.64" height="133.64" transform="translate(274.67 1726.7) rotate(-45)"/><line class="cls-6" x1="2221.65" y1="698.19" x2="2221.65" y2="626.29"/><line class="cls-6" x1="2221.65" y1="437.3" x2="2221.65" y2="365.4"/><line class="cls-6" x1="2127.16" y1="531.8" x2="2055.26" y2="531.8"/><line class="cls-6" x1="2388.04" y1="531.8" x2="2316.15" y2="531.8"/></g></g><g class="cls-11"><g class="cls-12"><rect class="cls-6" x="2603.17" y="1246.11" width="235.32" height="235.32" transform="translate(-167.41 2323.36) rotate(-45)"/><rect class="cls-6" x="2654.01" y="1296.95" width="133.64" height="133.64" transform="translate(-167.41 2323.35) rotate(-45)"/><line class="cls-6" x1="2720.83" y1="1269.27" x2="2720.83" y2="1197.37"/><line class="cls-6" x1="2626.34" y1="1363.76" x2="2554.44" y2="1363.76"/><line class="cls-6" x1="2887.22" y1="1363.76" x2="2815.33" y2="1363.76"/><rect class="cls-6" x="2769.57" y="1412.5" width="235.32" height="235.32" transform="translate(-236.34 2489.75) rotate(-45)"/><rect class="cls-6" x="2820.41" y="1463.34" width="133.64" height="133.64" transform="translate(-236.34 2489.75) rotate(-45)"/><line class="cls-6" x1="2887.22" y1="1435.66" x2="2887.22" y2="1363.76"/><rect class="cls-6" x="2436.78" y="1412.5" width="235.32" height="235.32" transform="translate(-333.81 2254.43) rotate(-45)"/><rect class="cls-6" x="2487.62" y="1463.34" width="133.64" height="133.64" transform="translate(-333.81 2254.43) rotate(-45)"/><line class="cls-6" x1="2554.44" y1="1435.66" x2="2554.44" y2="1363.76"/><rect class="cls-6" x="3102.35" y="1412.5" width="235.32" height="235.32" transform="translate(-138.86 2725.06) rotate(-45)"/><rect class="cls-6" x="2603.17" y="580.53" width="235.32" height="235.32" transform="translate(303.22 2128.41) rotate(-45)"/><rect class="cls-6" x="2654.01" y="631.37" width="133.64" height="133.64" transform="translate(303.22 2128.41) rotate(-45)"/><line class="cls-6" x1="2720.83" y1="864.58" x2="2720.83" y2="792.68"/><line class="cls-6" x1="2720.83" y1="603.69" x2="2720.83" y2="531.8"/><line class="cls-6" x1="2626.34" y1="698.19" x2="2554.44" y2="698.19"/><line class="cls-6" x1="2887.22" y1="698.19" x2="2815.33" y2="698.19"/><rect class="cls-6" x="2603.17" y="913.32" width="235.32" height="235.32" transform="translate(67.9 2225.88) rotate(-45)"/><rect class="cls-6" x="2654.01" y="964.16" width="133.64" height="133.64" transform="translate(67.9 2225.88) rotate(-45)"/><line class="cls-6" x1="2720.83" y1="1197.37" x2="2720.83" y2="1125.47"/><line class="cls-6" x1="2720.83" y1="936.48" x2="2720.83" y2="864.58"/><line class="cls-6" x1="2626.34" y1="1030.98" x2="2554.44" y2="1030.98"/><line class="cls-6" x1="2887.22" y1="1030.98" x2="2815.33" y2="1030.98"/><rect class="cls-6" x="2769.57" y="746.92" width="235.32" height="235.32" transform="translate(234.3 2294.81) rotate(-45)"/><rect class="cls-6" x="2820.41" y="797.76" width="133.64" height="133.64" transform="translate(234.3 2294.81) rotate(-45)"/><line class="cls-6" x1="2887.22" y1="1030.98" x2="2887.22" y2="959.08"/><line class="cls-6" x1="2887.22" y1="770.09" x2="2887.22" y2="698.19"/><line class="cls-6" x1="2792.73" y1="864.58" x2="2720.83" y2="864.58"/><line class="cls-6" x1="3053.62" y1="864.58" x2="2981.72" y2="864.58"/><rect class="cls-6" x="2436.78" y="746.92" width="235.32" height="235.32" transform="translate(136.83 2059.49) rotate(-45)"/><rect class="cls-6" x="2487.62" y="797.76" width="133.64" height="133.64" transform="translate(136.82 2059.49) rotate(-45)"/><line class="cls-6" x1="2554.44" y1="1030.98" x2="2554.44" y2="959.08"/><line class="cls-6" x1="2554.44" y1="770.09" x2="2554.44" y2="698.19"/><line class="cls-6" x1="2459.94" y1="864.58" x2="2388.04" y2="864.58"/><line class="cls-6" x1="2720.83" y1="864.58" x2="2648.93" y2="864.58"/><rect class="cls-6" x="3102.35" y="746.92" width="235.32" height="235.32" transform="translate(331.77 2530.12) rotate(-45)"/><line class="cls-6" x1="3125.52" y1="864.58" x2="3053.62" y2="864.58"/><rect class="cls-6" x="2935.96" y="913.32" width="235.32" height="235.32" transform="translate(165.37 2461.2) rotate(-45)"/><rect class="cls-6" x="2986.8" y="964.16" width="133.64" height="133.64" transform="translate(165.37 2461.2) rotate(-45)"/><line class="cls-6" x1="3053.62" y1="1197.37" x2="3053.62" y2="1125.47"/><line class="cls-6" x1="3053.62" y1="936.48" x2="3053.62" y2="864.58"/><line class="cls-6" x1="2959.12" y1="1030.98" x2="2887.22" y2="1030.98"/><rect class="cls-6" x="2935.96" y="1246.11" width="235.32" height="235.32" transform="translate(-69.94 2558.67) rotate(-45)"/><rect class="cls-6" x="2986.8" y="1296.95" width="133.64" height="133.64" transform="translate(-69.94 2558.67) rotate(-45)"/><line class="cls-6" x1="3053.62" y1="1269.27" x2="3053.62" y2="1197.37"/><line class="cls-6" x1="2959.12" y1="1363.76" x2="2887.22" y2="1363.76"/><rect class="cls-6" x="3102.35" y="1079.71" width="235.32" height="235.32" transform="translate(96.45 2627.59) rotate(-45)"/><line class="cls-6" x1="3125.52" y1="1197.37" x2="3053.62" y2="1197.37"/><rect class="cls-6" x="2769.57" y="1079.71" width="235.32" height="235.32" transform="translate(-1.02 2392.28) rotate(-45)"/><rect class="cls-6" x="2820.41" y="1130.55" width="133.64" height="133.64" transform="translate(-1.02 2392.28) rotate(-45)"/><line class="cls-6" x1="2887.22" y1="1363.76" x2="2887.22" y2="1291.86"/><line class="cls-6" x1="2887.22" y1="1102.87" x2="2887.22" y2="1030.98"/><line class="cls-6" x1="2792.73" y1="1197.37" x2="2720.83" y2="1197.37"/><line class="cls-6" x1="3053.62" y1="1197.37" x2="2981.72" y2="1197.37"/><rect class="cls-6" x="2270.39" y="913.32" width="235.32" height="235.32" transform="translate(-29.57 1990.57) rotate(-45)"/><rect class="cls-6" x="2321.23" y="964.16" width="133.64" height="133.64" transform="translate(-29.57 1990.57) rotate(-45)"/><line class="cls-6" x1="2388.04" y1="1197.37" x2="2388.04" y2="1125.47"/><line class="cls-6" x1="2388.04" y1="936.48" x2="2388.04" y2="864.58"/><line class="cls-6" x1="2293.55" y1="1030.98" x2="2221.65" y2="1030.98"/><line class="cls-6" x1="2554.44" y1="1030.98" x2="2482.54" y2="1030.98"/><rect class="cls-6" x="2270.39" y="1246.11" width="235.32" height="235.32" transform="translate(-264.88 2088.04) rotate(-45)"/><rect class="cls-6" x="2321.23" y="1296.95" width="133.64" height="133.64" transform="translate(-264.88 2088.04) rotate(-45)"/><line class="cls-6" x1="2388.04" y1="1269.27" x2="2388.04" y2="1197.37"/><line class="cls-6" x1="2293.55" y1="1363.76" x2="2221.65" y2="1363.76"/><line class="cls-6" x1="2554.44" y1="1363.76" x2="2482.54" y2="1363.76"/><rect class="cls-6" x="2436.78" y="1079.71" width="235.32" height="235.32" transform="translate(-98.49 2156.96) rotate(-45)"/><rect class="cls-6" x="2487.62" y="1130.55" width="133.64" height="133.64" transform="translate(-98.49 2156.96) rotate(-45)"/><line class="cls-6" x1="2554.44" y1="1363.76" x2="2554.44" y2="1291.86"/><line class="cls-6" x1="2554.44" y1="1102.87" x2="2554.44" y2="1030.98"/><line class="cls-6" x1="2459.94" y1="1197.37" x2="2388.04" y2="1197.37"/><line class="cls-6" x1="2720.83" y1="1197.37" x2="2648.93" y2="1197.37"/><rect class="cls-6" x="2103.99" y="1079.71" width="235.32" height="235.32" transform="translate(-195.96 1921.65) rotate(-45)"/><rect class="cls-6" x="2154.83" y="1130.55" width="133.64" height="133.64" transform="translate(-195.96 1921.65) rotate(-45)"/><line class="cls-6" x1="2221.65" y1="1363.76" x2="2221.65" y2="1291.86"/><line class="cls-6" x1="2221.65" y1="1102.87" x2="2221.65" y2="1030.98"/><line class="cls-6" x1="2127.16" y1="1197.37" x2="2055.26" y2="1197.37"/><line class="cls-6" x1="2388.04" y1="1197.37" x2="2316.15" y2="1197.37"/></g><g class="cls-10"><rect class="cls-6" x="2603.17" y="580.53" width="235.32" height="235.32" transform="translate(303.22 2128.41) rotate(-45)"/><rect class="cls-6" x="2603.17" y="913.32" width="235.32" height="235.32" transform="translate(67.9 2225.88) rotate(-45)"/><rect class="cls-6" x="2654.01" y="964.16" width="133.64" height="133.64" transform="translate(67.9 2225.88) rotate(-45)"/><line class="cls-6" x1="2720.83" y1="1197.37" x2="2720.83" y2="1125.47"/><line class="cls-6" x1="2720.83" y1="936.48" x2="2720.83" y2="864.58"/><line class="cls-6" x1="2626.34" y1="1030.98" x2="2554.44" y2="1030.98"/><line class="cls-6" x1="2887.22" y1="1030.98" x2="2815.33" y2="1030.98"/><rect class="cls-6" x="2769.57" y="746.92" width="235.32" height="235.32" transform="translate(234.3 2294.81) rotate(-45)"/><rect class="cls-6" x="2820.41" y="797.76" width="133.64" height="133.64" transform="translate(234.3 2294.81) rotate(-45)"/><line class="cls-6" x1="2887.22" y1="1030.98" x2="2887.22" y2="959.08"/><line class="cls-6" x1="2792.73" y1="864.58" x2="2720.83" y2="864.58"/><line class="cls-6" x1="3053.62" y1="864.58" x2="2981.72" y2="864.58"/><rect class="cls-6" x="2436.78" y="746.92" width="235.32" height="235.32" transform="translate(136.83 2059.49) rotate(-45)"/><rect class="cls-6" x="2487.62" y="797.76" width="133.64" height="133.64" transform="translate(136.82 2059.49) rotate(-45)"/><line class="cls-6" x1="2554.44" y1="1030.98" x2="2554.44" y2="959.08"/><line class="cls-6" x1="2459.94" y1="864.58" x2="2388.04" y2="864.58"/><line class="cls-6" x1="2720.83" y1="864.58" x2="2648.93" y2="864.58"/><rect class="cls-6" x="3102.35" y="746.92" width="235.32" height="235.32" transform="translate(331.77 2530.12) rotate(-45)"/><line class="cls-6" x1="3125.52" y1="864.58" x2="3053.62" y2="864.58"/><rect class="cls-6" x="2935.96" y="580.53" width="235.32" height="235.32" transform="translate(400.69 2363.73) rotate(-45)"/><rect class="cls-6" x="2270.39" y="580.53" width="235.32" height="235.32" transform="translate(205.75 1893.1) rotate(-45)"/></g></g><g class="cls-13"><g class="cls-14"><rect class="cls-6" x="-59.12" y="-85.04" width="235.32" height="235.32" transform="translate(-5.92 50.94) rotate(-45)"/><rect class="cls-6" x="-8.28" y="-34.2" width="133.64" height="133.64" transform="translate(-5.92 50.94) rotate(-45)"/><line class="cls-6" x1="58.54" y1="199.01" x2="58.54" y2="127.11"/><line class="cls-6" x1="224.93" y1="32.62" x2="153.03" y2="32.62"/><rect class="cls-6" x="-59.12" y="247.74" width="235.32" height="235.32" transform="translate(-241.23 148.42) rotate(-45)"/><rect class="cls-6" x="-8.28" y="298.58" width="133.64" height="133.64" transform="translate(-241.23 148.42) rotate(-45)"/><line class="cls-6" x1="58.54" y1="531.8" x2="58.54" y2="459.9"/><line class="cls-6" x1="58.54" y1="270.91" x2="58.54" y2="199.01"/><line class="cls-6" x1="224.93" y1="365.4" x2="153.03" y2="365.4"/><rect class="cls-6" x="107.27" y="81.35" width="235.32" height="235.32" transform="translate(-74.84 217.34) rotate(-45)"/><rect class="cls-6" x="158.11" y="132.19" width="133.64" height="133.64" transform="translate(-74.84 217.34) rotate(-45)"/><line class="cls-6" x1="224.93" y1="365.4" x2="224.93" y2="293.5"/><line class="cls-6" x1="224.93" y1="104.51" x2="224.93" y2="32.62"/><line class="cls-6" x1="130.43" y1="199.01" x2="58.54" y2="199.01"/><line class="cls-6" x1="391.32" y1="199.01" x2="319.42" y2="199.01"/><rect class="cls-6" x="-225.52" y="81.35" width="235.32" height="235.32" transform="translate(-172.31 -17.98) rotate(-45)"/><line class="cls-6" x1="58.54" y1="199.01" x2="-13.36" y2="199.01"/><rect class="cls-6" x="606.45" y="-85.04" width="235.32" height="235.32" transform="translate(189.02 521.58) rotate(-45)"/><rect class="cls-6" x="657.29" y="-34.2" width="133.64" height="133.64" transform="translate(189.02 521.58) rotate(-45)"/><line class="cls-6" x1="724.11" y1="199.01" x2="724.11" y2="127.11"/><line class="cls-6" x1="629.61" y1="32.62" x2="557.72" y2="32.62"/><line class="cls-6" x1="890.5" y1="32.62" x2="818.6" y2="32.62"/><rect class="cls-6" x="606.45" y="247.74" width="235.32" height="235.32" transform="translate(-46.29 619.05) rotate(-45)"/><rect class="cls-6" x="657.29" y="298.58" width="133.64" height="133.64" transform="translate(-46.29 619.05) rotate(-45)"/><line class="cls-6" x1="724.11" y1="531.8" x2="724.11" y2="459.9"/><line class="cls-6" x1="724.11" y1="270.91" x2="724.11" y2="199.01"/><line class="cls-6" x1="629.61" y1="365.4" x2="557.72" y2="365.4"/><line class="cls-6" x1="890.5" y1="365.4" x2="818.6" y2="365.4"/><rect class="cls-6" x="772.85" y="81.35" width="235.32" height="235.32" transform="translate(120.1 687.97) rotate(-45)"/><rect class="cls-6" x="823.69" y="132.19" width="133.64" height="133.64" transform="translate(120.1 687.97) rotate(-45)"/><line class="cls-6" x1="890.5" y1="365.4" x2="890.5" y2="293.5"/><line class="cls-6" x1="890.5" y1="104.51" x2="890.5" y2="32.62"/><line class="cls-6" x1="796.01" y1="199.01" x2="724.11" y2="199.01"/><line class="cls-6" x1="1056.9" y1="199.01" x2="985" y2="199.01"/><rect class="cls-6" x="440.06" y="81.35" width="235.32" height="235.32" transform="translate(22.63 452.65) rotate(-45)"/><rect class="cls-6" x="490.9" y="132.19" width="133.64" height="133.64" transform="translate(22.63 452.65) rotate(-45)"/><line class="cls-6" x1="557.72" y1="365.4" x2="557.72" y2="293.5"/><line class="cls-6" x1="557.72" y1="104.51" x2="557.72" y2="32.62"/><line class="cls-6" x1="463.22" y1="199.01" x2="391.32" y2="199.01"/><line class="cls-6" x1="724.11" y1="199.01" x2="652.21" y2="199.01"/><rect class="cls-6" x="-59.12" y="580.53" width="235.32" height="235.32" transform="translate(-476.55 245.89) rotate(-45)"/><rect class="cls-6" x="-8.28" y="631.37" width="133.64" height="133.64" transform="translate(-476.55 245.89) rotate(-45)"/><line class="cls-6" x1="58.54" y1="864.58" x2="58.54" y2="792.68"/><line class="cls-6" x1="58.54" y1="603.69" x2="58.54" y2="531.8"/><line class="cls-6" x1="224.93" y1="698.19" x2="153.03" y2="698.19"/><rect class="cls-6" x="-59.12" y="913.32" width="235.32" height="235.32" transform="translate(-711.87 343.36) rotate(-45)"/><rect class="cls-6" x="-8.28" y="964.16" width="133.64" height="133.64" transform="translate(-711.87 343.36) rotate(-45)"/><line class="cls-6" x1="58.54" y1="1197.37" x2="58.54" y2="1125.47"/><line class="cls-6" x1="58.54" y1="936.48" x2="58.54" y2="864.58"/><line class="cls-6" x1="224.93" y1="1030.98" x2="153.03" y2="1030.98"/><rect class="cls-6" x="107.27" y="746.92" width="235.32" height="235.32" transform="translate(-545.47 412.28) rotate(-45)"/><rect class="cls-6" x="158.11" y="797.76" width="133.64" height="133.64" transform="translate(-545.47 412.28) rotate(-45)"/><line class="cls-6" x1="224.93" y1="1030.98" x2="224.93" y2="959.08"/><line class="cls-6" x1="224.93" y1="770.09" x2="224.93" y2="698.19"/><line class="cls-6" x1="130.43" y1="864.58" x2="58.54" y2="864.58"/><line class="cls-6" x1="391.32" y1="864.58" x2="319.42" y2="864.58"/><rect class="cls-6" x="-225.52" y="746.92" width="235.32" height="235.32" transform="translate(-642.94 176.96) rotate(-45)"/><line class="cls-6" x1="58.54" y1="864.58" x2="-13.36" y2="864.58"/><rect class="cls-6" x="606.45" y="580.53" width="235.32" height="235.32" transform="translate(-281.61 716.52) rotate(-45)"/><rect class="cls-6" x="657.29" y="631.37" width="133.64" height="133.64" transform="translate(-281.61 716.52) rotate(-45)"/><line class="cls-6" x1="724.11" y1="864.58" x2="724.11" y2="792.68"/><line class="cls-6" x1="724.11" y1="603.69" x2="724.11" y2="531.8"/><line class="cls-6" x1="629.61" y1="698.19" x2="557.72" y2="698.19"/><line class="cls-6" x1="890.5" y1="698.19" x2="818.6" y2="698.19"/><rect class="cls-6" x="606.45" y="913.32" width="235.32" height="235.32" transform="translate(-516.92 813.99) rotate(-45)"/><rect class="cls-6" x="657.29" y="964.16" width="133.64" height="133.64" transform="translate(-516.92 813.99) rotate(-45)"/><line class="cls-6" x1="724.11" y1="1197.37" x2="724.11" y2="1125.47"/><line class="cls-6" x1="724.11" y1="936.48" x2="724.11" y2="864.58"/><line class="cls-6" x1="629.61" y1="1030.98" x2="557.72" y2="1030.98"/><line class="cls-6" x1="890.5" y1="1030.98" x2="818.6" y2="1030.98"/><rect class="cls-6" x="772.85" y="746.92" width="235.32" height="235.32" transform="translate(-350.53 882.91) rotate(-45)"/><rect class="cls-6" x="823.69" y="797.76" width="133.64" height="133.64" transform="translate(-350.53 882.91) rotate(-45)"/><line class="cls-6" x1="890.5" y1="1030.98" x2="890.5" y2="959.08"/><line class="cls-6" x1="890.5" y1="770.09" x2="890.5" y2="698.19"/><line class="cls-6" x1="796.01" y1="864.58" x2="724.11" y2="864.58"/><line class="cls-6" x1="1056.9" y1="864.58" x2="985" y2="864.58"/><rect class="cls-6" x="440.06" y="746.92" width="235.32" height="235.32" transform="translate(-448 647.6) rotate(-45)"/><rect class="cls-6" x="490.9" y="797.76" width="133.64" height="133.64" transform="translate(-448 647.6) rotate(-45)"/><line class="cls-6" x1="557.72" y1="1030.98" x2="557.72" y2="959.08"/><line class="cls-6" x1="557.72" y1="770.09" x2="557.72" y2="698.19"/><line class="cls-6" x1="463.22" y1="864.58" x2="391.32" y2="864.58"/><line class="cls-6" x1="724.11" y1="864.58" x2="652.21" y2="864.58"/><rect class="cls-6" x="273.67" y="-85.04" width="235.32" height="235.32" transform="translate(91.55 286.26) rotate(-45)"/><rect class="cls-6" x="324.5" y="-34.2" width="133.64" height="133.64" transform="translate(91.55 286.26) rotate(-45)"/><line class="cls-6" x1="391.32" y1="199.01" x2="391.32" y2="127.11"/><line class="cls-6" x1="296.83" y1="32.62" x2="224.93" y2="32.62"/><line class="cls-6" x1="557.72" y1="32.62" x2="485.82" y2="32.62"/><rect class="cls-6" x="440.06" y="-251.44" width="235.32" height="235.32" transform="translate(257.95 355.18) rotate(-45)"/><line class="cls-6" x1="557.72" y1="32.62" x2="557.72" y2="-39.28"/><rect class="cls-6" x="107.27" y="-251.44" width="235.32" height="235.32" transform="translate(160.48 119.87) rotate(-45)"/><line class="cls-6" x1="224.93" y1="32.62" x2="224.93" y2="-39.28"/><rect class="cls-6" x="939.24" y="-85.04" width="235.32" height="235.32" transform="translate(286.5 756.89) rotate(-45)"/><rect class="cls-6" x="990.08" y="-34.2" width="133.64" height="133.64" transform="translate(286.5 756.89) rotate(-45)"/><line class="cls-6" x1="1056.9" y1="199.01" x2="1056.9" y2="127.11"/><line class="cls-6" x1="962.4" y1="32.62" x2="890.5" y2="32.62"/><line class="cls-6" x1="1223.29" y1="32.62" x2="1151.39" y2="32.62"/><rect class="cls-6" x="1105.63" y="-251.44" width="235.32" height="235.32" transform="translate(452.89 825.81) rotate(-45)"/><line class="cls-6" x1="1223.29" y1="32.62" x2="1223.29" y2="-39.28"/><rect class="cls-6" x="772.85" y="-251.44" width="235.32" height="235.32" transform="translate(355.42 590.5) rotate(-45)"/><line class="cls-6" x1="890.5" y1="32.62" x2="890.5" y2="-39.28"/><rect class="cls-6" x="-225.52" y="-251.44" width="235.32" height="235.32" transform="translate(63 -115.45) rotate(-45)"/><rect class="cls-6" x="273.67" y="247.74" width="235.32" height="235.32" transform="translate(-143.76 383.73) rotate(-45)"/><rect class="cls-6" x="324.5" y="298.58" width="133.64" height="133.64" transform="translate(-143.76 383.73) rotate(-45)"/><line class="cls-6" x1="391.32" y1="531.8" x2="391.32" y2="459.9"/><line class="cls-6" x1="391.32" y1="270.91" x2="391.32" y2="199.01"/><line class="cls-6" x1="296.83" y1="365.4" x2="224.93" y2="365.4"/><line class="cls-6" x1="557.72" y1="365.4" x2="485.82" y2="365.4"/><rect class="cls-6" x="273.67" y="580.53" width="235.32" height="235.32" transform="translate(-379.08 481.2) rotate(-45)"/><rect class="cls-6" x="324.5" y="631.37" width="133.64" height="133.64" transform="translate(-379.08 481.2) rotate(-45)"/><line class="cls-6" x1="391.32" y1="864.58" x2="391.32" y2="792.68"/><line class="cls-6" x1="391.32" y1="603.69" x2="391.32" y2="531.8"/><line class="cls-6" x1="296.83" y1="698.19" x2="224.93" y2="698.19"/><line class="cls-6" x1="557.72" y1="698.19" x2="485.82" y2="698.19"/><rect class="cls-6" x="440.06" y="414.14" width="235.32" height="235.32" transform="translate(-212.69 550.12) rotate(-45)"/><rect class="cls-6" x="490.9" y="464.98" width="133.64" height="133.64" transform="translate(-212.69 550.12) rotate(-45)"/><line class="cls-6" x1="557.72" y1="698.19" x2="557.72" y2="626.29"/><line class="cls-6" x1="557.72" y1="437.3" x2="557.72" y2="365.4"/><line class="cls-6" x1="463.22" y1="531.8" x2="391.32" y2="531.8"/><line class="cls-6" x1="724.11" y1="531.8" x2="652.21" y2="531.8"/><rect class="cls-6" x="107.27" y="414.14" width="235.32" height="235.32" transform="translate(-310.16 314.81) rotate(-45)"/><rect class="cls-6" x="158.11" y="464.98" width="133.64" height="133.64" transform="translate(-310.16 314.81) rotate(-45)"/><line class="cls-6" x1="224.93" y1="698.19" x2="224.93" y2="626.29"/><line class="cls-6" x1="224.93" y1="437.3" x2="224.93" y2="365.4"/><line class="cls-6" x1="130.43" y1="531.8" x2="58.54" y2="531.8"/><line class="cls-6" x1="391.32" y1="531.8" x2="319.42" y2="531.8"/><rect class="cls-6" x="939.24" y="247.74" width="235.32" height="235.32" transform="translate(51.18 854.36) rotate(-45)"/><rect class="cls-6" x="990.08" y="298.58" width="133.64" height="133.64" transform="translate(51.18 854.36) rotate(-45)"/><line class="cls-6" x1="1056.9" y1="531.8" x2="1056.9" y2="459.9"/><line class="cls-6" x1="1056.9" y1="270.91" x2="1056.9" y2="199.01"/><line class="cls-6" x1="962.4" y1="365.4" x2="890.5" y2="365.4"/><line class="cls-6" x1="1223.29" y1="365.4" x2="1151.39" y2="365.4"/><rect class="cls-6" x="939.24" y="580.53" width="235.32" height="235.32" transform="translate(-184.14 951.83) rotate(-45)"/><rect class="cls-6" x="990.08" y="631.37" width="133.64" height="133.64" transform="translate(-184.14 951.83) rotate(-45)"/><line class="cls-6" x1="1056.9" y1="864.58" x2="1056.9" y2="792.68"/><line class="cls-6" x1="1056.9" y1="603.69" x2="1056.9" y2="531.8"/><line class="cls-6" x1="962.4" y1="698.19" x2="890.5" y2="698.19"/><line class="cls-6" x1="1223.29" y1="698.19" x2="1151.39" y2="698.19"/><rect class="cls-6" x="1105.63" y="414.14" width="235.32" height="235.32" transform="translate(-17.74 1020.76) rotate(-45)"/><rect class="cls-6" x="1156.47" y="464.98" width="133.64" height="133.64" transform="translate(-17.74 1020.76) rotate(-45)"/><line class="cls-6" x1="1223.29" y1="698.19" x2="1223.29" y2="626.29"/><line class="cls-6" x1="1223.29" y1="437.3" x2="1223.29" y2="365.4"/><line class="cls-6" x1="1128.8" y1="531.8" x2="1056.9" y2="531.8"/><line class="cls-6" x1="1389.68" y1="531.8" x2="1317.79" y2="531.8"/><rect class="cls-6" x="772.85" y="414.14" width="235.32" height="235.32" transform="translate(-115.21 785.44) rotate(-45)"/><rect class="cls-6" x="823.69" y="464.98" width="133.64" height="133.64" transform="translate(-115.21 785.44) rotate(-45)"/><line class="cls-6" x1="890.5" y1="698.19" x2="890.5" y2="626.29"/><line class="cls-6" x1="890.5" y1="437.3" x2="890.5" y2="365.4"/><line class="cls-6" x1="796.01" y1="531.8" x2="724.11" y2="531.8"/><line class="cls-6" x1="1056.9" y1="531.8" x2="985" y2="531.8"/><rect class="cls-6" x="-225.52" y="414.14" width="235.32" height="235.32" transform="translate(-407.63 79.49) rotate(-45)"/><line class="cls-6" x1="58.54" y1="531.8" x2="-13.36" y2="531.8"/></g></g><g class="cls-15"><g class="cls-16"><rect class="cls-6" x="-59.12" y="1246.11" width="235.32" height="235.32" transform="translate(-947.18 440.83) rotate(-45)"/><rect class="cls-6" x="-8.28" y="1296.95" width="133.64" height="133.64" transform="translate(-947.18 440.83) rotate(-45)"/><line class="cls-6" x1="58.54" y1="1269.27" x2="58.54" y2="1197.37"/><line class="cls-6" x1="224.93" y1="1363.76" x2="153.03" y2="1363.76"/><rect class="cls-6" x="107.27" y="1412.5" width="235.32" height="235.32" transform="translate(-1016.1 607.22) rotate(-45)"/><rect class="cls-6" x="158.11" y="1463.34" width="133.64" height="133.64" transform="translate(-1016.1 607.22) rotate(-45)"/><line class="cls-6" x1="224.93" y1="1435.66" x2="224.93" y2="1363.76"/><rect class="cls-6" x="-225.52" y="1412.5" width="235.32" height="235.32" transform="translate(-1113.57 371.91) rotate(-45)"/><rect class="cls-6" x="606.45" y="1246.11" width="235.32" height="235.32" transform="translate(-752.24 911.46) rotate(-45)"/><rect class="cls-6" x="657.29" y="1296.95" width="133.64" height="133.64" transform="translate(-752.24 911.46) rotate(-45)"/><line class="cls-6" x1="724.11" y1="1269.27" x2="724.11" y2="1197.37"/><line class="cls-6" x1="629.61" y1="1363.76" x2="557.72" y2="1363.76"/><line class="cls-6" x1="890.5" y1="1363.76" x2="818.6" y2="1363.76"/><rect class="cls-6" x="772.85" y="1412.5" width="235.32" height="235.32" transform="translate(-821.16 1077.85) rotate(-45)"/><rect class="cls-6" x="823.69" y="1463.34" width="133.64" height="133.64" transform="translate(-821.16 1077.85) rotate(-45)"/><line class="cls-6" x1="890.5" y1="1435.66" x2="890.5" y2="1363.76"/><rect class="cls-6" x="440.06" y="1412.5" width="235.32" height="235.32" transform="translate(-918.63 842.54) rotate(-45)"/><rect class="cls-6" x="490.9" y="1463.34" width="133.64" height="133.64" transform="translate(-918.63 842.54) rotate(-45)"/><line class="cls-6" x1="557.72" y1="1435.66" x2="557.72" y2="1363.76"/><rect class="cls-6" x="-59.12" y="580.53" width="235.32" height="235.32" transform="translate(-476.55 245.89) rotate(-45)"/><rect class="cls-6" x="-8.28" y="631.37" width="133.64" height="133.64" transform="translate(-476.55 245.89) rotate(-45)"/><line class="cls-6" x1="58.54" y1="864.58" x2="58.54" y2="792.68"/><line class="cls-6" x1="58.54" y1="603.69" x2="58.54" y2="531.8"/><line class="cls-6" x1="224.93" y1="698.19" x2="153.03" y2="698.19"/><rect class="cls-6" x="-59.12" y="913.32" width="235.32" height="235.32" transform="translate(-711.87 343.36) rotate(-45)"/><rect class="cls-6" x="-8.28" y="964.16" width="133.64" height="133.64" transform="translate(-711.87 343.36) rotate(-45)"/><line class="cls-6" x1="58.54" y1="1197.37" x2="58.54" y2="1125.47"/><line class="cls-6" x1="58.54" y1="936.48" x2="58.54" y2="864.58"/><line class="cls-6" x1="224.93" y1="1030.98" x2="153.03" y2="1030.98"/><rect class="cls-6" x="107.27" y="746.92" width="235.32" height="235.32" transform="translate(-545.47 412.28) rotate(-45)"/><rect class="cls-6" x="158.11" y="797.76" width="133.64" height="133.64" transform="translate(-545.47 412.28) rotate(-45)"/><line class="cls-6" x1="224.93" y1="1030.98" x2="224.93" y2="959.08"/><line class="cls-6" x1="224.93" y1="770.09" x2="224.93" y2="698.19"/><line class="cls-6" x1="130.43" y1="864.58" x2="58.54" y2="864.58"/><line class="cls-6" x1="391.32" y1="864.58" x2="319.42" y2="864.58"/><rect class="cls-6" x="-225.52" y="746.92" width="235.32" height="235.32" transform="translate(-642.94 176.96) rotate(-45)"/><line class="cls-6" x1="58.54" y1="864.58" x2="-13.36" y2="864.58"/><rect class="cls-6" x="606.45" y="580.53" width="235.32" height="235.32" transform="translate(-281.61 716.52) rotate(-45)"/><rect class="cls-6" x="657.29" y="631.37" width="133.64" height="133.64" transform="translate(-281.61 716.52) rotate(-45)"/><line class="cls-6" x1="724.11" y1="864.58" x2="724.11" y2="792.68"/><line class="cls-6" x1="724.11" y1="603.69" x2="724.11" y2="531.8"/><line class="cls-6" x1="629.61" y1="698.19" x2="557.72" y2="698.19"/><line class="cls-6" x1="890.5" y1="698.19" x2="818.6" y2="698.19"/><rect class="cls-6" x="606.45" y="913.32" width="235.32" height="235.32" transform="translate(-516.92 813.99) rotate(-45)"/><rect class="cls-6" x="657.29" y="964.16" width="133.64" height="133.64" transform="translate(-516.92 813.99) rotate(-45)"/><line class="cls-6" x1="724.11" y1="1197.37" x2="724.11" y2="1125.47"/><line class="cls-6" x1="724.11" y1="936.48" x2="724.11" y2="864.58"/><line class="cls-6" x1="629.61" y1="1030.98" x2="557.72" y2="1030.98"/><line class="cls-6" x1="890.5" y1="1030.98" x2="818.6" y2="1030.98"/><rect class="cls-6" x="772.85" y="746.92" width="235.32" height="235.32" transform="translate(-350.53 882.91) rotate(-45)"/><rect class="cls-6" x="823.69" y="797.76" width="133.64" height="133.64" transform="translate(-350.53 882.91) rotate(-45)"/><line class="cls-6" x1="890.5" y1="1030.98" x2="890.5" y2="959.08"/><line class="cls-6" x1="890.5" y1="770.09" x2="890.5" y2="698.19"/><line class="cls-6" x1="796.01" y1="864.58" x2="724.11" y2="864.58"/><line class="cls-6" x1="1056.9" y1="864.58" x2="985" y2="864.58"/><rect class="cls-6" x="440.06" y="746.92" width="235.32" height="235.32" transform="translate(-448 647.6) rotate(-45)"/><rect class="cls-6" x="490.9" y="797.76" width="133.64" height="133.64" transform="translate(-448 647.6) rotate(-45)"/><line class="cls-6" x1="557.72" y1="1030.98" x2="557.72" y2="959.08"/><line class="cls-6" x1="557.72" y1="770.09" x2="557.72" y2="698.19"/><line class="cls-6" x1="463.22" y1="864.58" x2="391.32" y2="864.58"/><line class="cls-6" x1="724.11" y1="864.58" x2="652.21" y2="864.58"/><rect class="cls-6" x="273.67" y="913.32" width="235.32" height="235.32" transform="translate(-614.39 578.67) rotate(-45)"/><rect class="cls-6" x="324.5" y="964.16" width="133.64" height="133.64" transform="translate(-614.39 578.67) rotate(-45)"/><line class="cls-6" x1="391.32" y1="1197.37" x2="391.32" y2="1125.47"/><line class="cls-6" x1="391.32" y1="936.48" x2="391.32" y2="864.58"/><line class="cls-6" x1="296.83" y1="1030.98" x2="224.93" y2="1030.98"/><line class="cls-6" x1="557.72" y1="1030.98" x2="485.82" y2="1030.98"/><rect class="cls-6" x="273.67" y="1246.11" width="235.32" height="235.32" transform="translate(-849.71 676.14) rotate(-45)"/><rect class="cls-6" x="324.5" y="1296.95" width="133.64" height="133.64" transform="translate(-849.71 676.14) rotate(-45)"/><line class="cls-6" x1="391.32" y1="1269.27" x2="391.32" y2="1197.37"/><line class="cls-6" x1="296.83" y1="1363.76" x2="224.93" y2="1363.76"/><line class="cls-6" x1="557.72" y1="1363.76" x2="485.82" y2="1363.76"/><rect class="cls-6" x="440.06" y="1079.71" width="235.32" height="235.32" transform="translate(-683.32 745.07) rotate(-45)"/><rect class="cls-6" x="490.9" y="1130.55" width="133.64" height="133.64" transform="translate(-683.32 745.07) rotate(-45)"/><line class="cls-6" x1="557.72" y1="1363.76" x2="557.72" y2="1291.86"/><line class="cls-6" x1="557.72" y1="1102.87" x2="557.72" y2="1030.98"/><line class="cls-6" x1="463.22" y1="1197.37" x2="391.32" y2="1197.37"/><line class="cls-6" x1="724.11" y1="1197.37" x2="652.21" y2="1197.37"/><rect class="cls-6" x="107.27" y="1079.71" width="235.32" height="235.32" transform="translate(-780.79 509.75) rotate(-45)"/><rect class="cls-6" x="158.11" y="1130.55" width="133.64" height="133.64" transform="translate(-780.79 509.75) rotate(-45)"/><line class="cls-6" x1="224.93" y1="1363.76" x2="224.93" y2="1291.86"/><line class="cls-6" x1="224.93" y1="1102.87" x2="224.93" y2="1030.98"/><line class="cls-6" x1="130.43" y1="1197.37" x2="58.54" y2="1197.37"/><line class="cls-6" x1="391.32" y1="1197.37" x2="319.42" y2="1197.37"/><rect class="cls-6" x="939.24" y="913.32" width="235.32" height="235.32" transform="translate(-419.45 1049.3) rotate(-45)"/><rect class="cls-6" x="990.08" y="964.16" width="133.64" height="133.64" transform="translate(-419.45 1049.3) rotate(-45)"/><line class="cls-6" x1="1056.9" y1="1197.37" x2="1056.9" y2="1125.47"/><line class="cls-6" x1="1056.9" y1="936.48" x2="1056.9" y2="864.58"/><line class="cls-6" x1="962.4" y1="1030.98" x2="890.5" y2="1030.98"/><line class="cls-6" x1="1223.29" y1="1030.98" x2="1151.39" y2="1030.98"/><rect class="cls-6" x="939.24" y="1246.11" width="235.32" height="235.32" transform="translate(-654.77 1146.78) rotate(-45)"/><rect class="cls-6" x="990.08" y="1296.95" width="133.64" height="133.64" transform="translate(-654.77 1146.78) rotate(-45)"/><line class="cls-6" x1="1056.9" y1="1269.27" x2="1056.9" y2="1197.37"/><line class="cls-6" x1="962.4" y1="1363.76" x2="890.5" y2="1363.76"/><line class="cls-6" x1="1223.29" y1="1363.76" x2="1151.39" y2="1363.76"/><rect class="cls-6" x="1105.63" y="1079.71" width="235.32" height="235.32" transform="translate(-488.37 1215.7) rotate(-45)"/><rect class="cls-6" x="1156.47" y="1130.55" width="133.64" height="133.64" transform="translate(-488.37 1215.7) rotate(-45)"/><line class="cls-6" x1="1223.29" y1="1363.76" x2="1223.29" y2="1291.86"/><line class="cls-6" x1="1223.29" y1="1102.87" x2="1223.29" y2="1030.98"/><line class="cls-6" x1="1128.8" y1="1197.37" x2="1056.9" y2="1197.37"/><line class="cls-6" x1="1389.68" y1="1197.37" x2="1317.79" y2="1197.37"/><rect class="cls-6" x="772.85" y="1079.71" width="235.32" height="235.32" transform="translate(-585.85 980.38) rotate(-45)"/><rect class="cls-6" x="823.69" y="1130.55" width="133.64" height="133.64" transform="translate(-585.85 980.38) rotate(-45)"/><line class="cls-6" x1="890.5" y1="1363.76" x2="890.5" y2="1291.86"/><line class="cls-6" x1="890.5" y1="1102.87" x2="890.5" y2="1030.98"/><line class="cls-6" x1="796.01" y1="1197.37" x2="724.11" y2="1197.37"/><line class="cls-6" x1="1056.9" y1="1197.37" x2="985" y2="1197.37"/><rect class="cls-6" x="-225.52" y="1079.71" width="235.32" height="235.32" transform="translate(-878.26 274.43) rotate(-45)"/><line class="cls-6" x1="58.54" y1="1197.37" x2="-13.36" y2="1197.37"/></g><g class="cls-14"><rect class="cls-6" x="-59.12" y="580.53" width="235.32" height="235.32" transform="translate(-476.55 245.89) rotate(-45)"/><rect class="cls-6" x="-59.12" y="913.32" width="235.32" height="235.32" transform="translate(-711.87 343.36) rotate(-45)"/><rect class="cls-6" x="-8.28" y="964.16" width="133.64" height="133.64" transform="translate(-711.87 343.36) rotate(-45)"/><line class="cls-6" x1="58.54" y1="1197.37" x2="58.54" y2="1125.47"/><line class="cls-6" x1="58.54" y1="936.48" x2="58.54" y2="864.58"/><line class="cls-6" x1="224.93" y1="1030.98" x2="153.03" y2="1030.98"/><rect class="cls-6" x="107.27" y="746.92" width="235.32" height="235.32" transform="translate(-545.47 412.28) rotate(-45)"/><rect class="cls-6" x="158.11" y="797.76" width="133.64" height="133.64" transform="translate(-545.47 412.28) rotate(-45)"/><line class="cls-6" x1="224.93" y1="1030.98" x2="224.93" y2="959.08"/><line class="cls-6" x1="130.43" y1="864.58" x2="58.54" y2="864.58"/><line class="cls-6" x1="391.32" y1="864.58" x2="319.42" y2="864.58"/><rect class="cls-6" x="-225.52" y="746.92" width="235.32" height="235.32" transform="translate(-642.94 176.96) rotate(-45)"/><line class="cls-6" x1="58.54" y1="864.58" x2="-13.36" y2="864.58"/><rect class="cls-6" x="606.45" y="580.53" width="235.32" height="235.32" transform="translate(-281.61 716.52) rotate(-45)"/><rect class="cls-6" x="606.45" y="913.32" width="235.32" height="235.32" transform="translate(-516.92 813.99) rotate(-45)"/><rect class="cls-6" x="657.29" y="964.16" width="133.64" height="133.64" transform="translate(-516.92 813.99) rotate(-45)"/><line class="cls-6" x1="724.11" y1="1197.37" x2="724.11" y2="1125.47"/><line class="cls-6" x1="724.11" y1="936.48" x2="724.11" y2="864.58"/><line class="cls-6" x1="629.61" y1="1030.98" x2="557.72" y2="1030.98"/><line class="cls-6" x1="890.5" y1="1030.98" x2="818.6" y2="1030.98"/><rect class="cls-6" x="772.85" y="746.92" width="235.32" height="235.32" transform="translate(-350.53 882.91) rotate(-45)"/><rect class="cls-6" x="823.69" y="797.76" width="133.64" height="133.64" transform="translate(-350.53 882.91) rotate(-45)"/><line class="cls-6" x1="890.5" y1="1030.98" x2="890.5" y2="959.08"/><line class="cls-6" x1="796.01" y1="864.58" x2="724.11" y2="864.58"/><line class="cls-6" x1="1056.9" y1="864.58" x2="985" y2="864.58"/><rect class="cls-6" x="440.06" y="746.92" width="235.32" height="235.32" transform="translate(-448 647.6) rotate(-45)"/><rect class="cls-6" x="490.9" y="797.76" width="133.64" height="133.64" transform="translate(-448 647.6) rotate(-45)"/><line class="cls-6" x1="557.72" y1="1030.98" x2="557.72" y2="959.08"/><line class="cls-6" x1="463.22" y1="864.58" x2="391.32" y2="864.58"/><line class="cls-6" x1="724.11" y1="864.58" x2="652.21" y2="864.58"/><rect class="cls-6" x="273.67" y="580.53" width="235.32" height="235.32" transform="translate(-379.08 481.2) rotate(-45)"/><rect class="cls-6" x="939.24" y="580.53" width="235.32" height="235.32" transform="translate(-184.14 951.83) rotate(-45)"/></g></g></g></g></svg>