<?xml version="1.0" encoding="utf-8"?>
<!-- Generator: Adobe Illustrator 26.0.2, SVG Export Plug-In . SVG Version: 6.00 Build 0)  -->
<svg version="1.1" id="Layer_1" xmlns="http://www.w3.org/2000/svg" xmlns:xlink="http://www.w3.org/1999/xlink" x="0px" y="0px"
	 viewBox="0 0 545.7 502.7" style="enable-background:new 0 0 545.7 502.7;" xml:space="preserve">
<style type="text/css">
	.st0{fill:#6429A2;}
	.st1{opacity:0.7;fill:#FFFFFF;enable-background:new    ;}
	.st2{fill:none;stroke:#FFFFFF;stroke-miterlimit:10;}
	.st3{fill:#FFFFFF;stroke:#263238;stroke-miterlimit:10;}
	.st4{fill:#263238;stroke:#263238;stroke-miterlimit:10;}
	.st5{fill:#6429A2;stroke:#263238;stroke-miterlimit:10;}
	.st6{fill:none;stroke:#263238;stroke-miterlimit:10;}
	.st7{fill:#263238;}
	.st8{fill:#828282;stroke:#263238;stroke-miterlimit:10;}
	.st9{fill:none;stroke:#263238;stroke-width:2;stroke-miterlimit:10;}
</style>
<path id="Path_113" class="st0" d="M532,196.6c13-12.2,10.3-36.4,8-52.2c-2.9-20.5-10.7-40.3-23.6-56.6
	c-6.1-7.4-13.5-13.7-21.8-18.5c-46.3-27.8-100.9-40.9-154.3-46c-36.6-3.5-64.9-0.7-98.3,14.6c0,0-102.7,36.4-160.3,83.1
	S31.1,183.7,60,165.6c-15.9,15.1-38.9,34.6-45.2,56.7c-13.3,46.7,38.9,250,129.3,272.6s300.7-5.5,351.3-67.8s38.9-185.4,15.6-232.9
	C487.6,146.8,518.7,209.1,532,196.6z"/>
<path id="Path_114" class="st1" d="M532,196.6c13-12.2,10.3-36.4,8-52.2c-2.9-20.5-10.7-40.3-23.6-56.6
	c-6.1-7.4-13.5-13.7-21.8-18.5c-46.3-27.8-100.9-40.9-154.3-46c-36.6-3.5-64.9-0.7-98.3,14.6c0,0-102.7,36.4-160.3,83.1
	S31.1,183.7,60,165.6c-15.9,15.1-38.9,34.6-45.2,56.7c-13.3,46.7,38.9,250,129.3,272.6s300.7-5.5,351.3-67.8s38.9-185.4,15.6-232.9
	C487.6,146.8,518.7,209.1,532,196.6z"/>
<g id="Floor" transform="translate(17.986 492.424)">
	<line id="Line_9" class="st2" x1="-4.8" y1="-26.5" x2="527.4" y2="-26.5"/>
</g>
<g id="Lamps" transform="translate(6.18 26.97)">
	<g id="Group_81">
		<g id="Group_78">
			<path id="Path_115" class="st2" d="M14.4-26.5L-4.8-10.8h53.1L29.2-26.5H14.4z"/>
			<path id="Path_116" class="st2" d="M11.9-10.7c2.1,5.4,8.1,8.2,13.6,6.1c2.8-1.1,5-3.3,6.1-6.1H11.9z"/>
		</g>
		<g id="Group_79" transform="translate(244.891)">
			<path id="Path_117" class="st2" d="M14.4-26.5L-4.8-10.8h53.1L29.1-26.5H14.4z"/>
			<path id="Path_118" class="st2" d="M11.9-10.7c2.1,5.4,8.1,8.2,13.6,6.1c2.8-1.1,5-3.3,6.1-6.1H11.9z"/>
		</g>
		<g id="Group_80" transform="translate(489.782)">
			<path id="Path_119" class="st2" d="M14.4-26.5L-4.8-10.8h53.1L29.1-26.5H14.4z"/>
			<path id="Path_120" class="st2" d="M11.9-10.7c2.1,5.4,8.1,8.2,13.6,6.1c2.8-1.1,5-3.3,6.1-6.1H11.9z"/>
		</g>
	</g>
</g>
<g id="Mirrors" transform="translate(58.618 73.936)">
	<g id="Group_83" transform="translate(0 0)">
		<g id="Group_82">
			<rect id="Rectangle_48" x="-4.8" y="-26.5" class="st2" width="165.6" height="213.3"/>
			<rect id="Rectangle_49" x="0.6" y="-19.5" class="st2" width="154.8" height="199.4"/>
		</g>
		<line id="Line_10" class="st2" x1="90.1" y1="-17.7" x2="4.4" y2="67.9"/>
		<line id="Line_11" class="st2" x1="48.7" y1="36.4" x2="19" y2="66.1"/>
		<line id="Line_12" class="st2" x1="8.2" y1="167.1" x2="43.1" y2="132.2"/>
	</g>
	<g id="Group_85" transform="translate(265.247 0)">
		<g id="Group_84">
			<rect id="Rectangle_50" x="-4.8" y="-26.5" class="st2" width="165.6" height="213.3"/>
			<rect id="Rectangle_51" x="0.6" y="-19.5" class="st2" width="154.8" height="199.4"/>
		</g>
		<line id="Line_13" class="st2" x1="116.3" y1="-15.5" x2="11.9" y2="89"/>
		<line id="Line_14" class="st2" x1="70.5" y1="52.2" x2="46.1" y2="76.6"/>
	</g>
</g>
<g id="Table" transform="translate(12.928 291.333)">
	<g id="Group_89">
		<line id="Line_15" class="st2" x1="-4.8" y1="-26.5" x2="531" y2="-26.5"/>
		<line id="Line_16" class="st2" x1="-4.8" y1="-16.3" x2="531" y2="-16.3"/>
		<g id="Group_86" transform="translate(11.705 10.318)">
			<rect id="Rectangle_52" x="-4.8" y="-26.5" class="st2" width="79.5" height="30.6"/>
			<rect id="Rectangle_53" x="22.3" y="-13.8" class="st2" width="25.4" height="5.2"/>
		</g>
		<g id="Group_87" transform="translate(226.047 10.318)">
			<rect id="Rectangle_54" x="-4.8" y="-26.5" class="st2" width="79.5" height="30.6"/>
			<rect id="Rectangle_55" x="22.3" y="-13.8" class="st2" width="25.4" height="5.2"/>
		</g>
		<g id="Group_88" transform="translate(440.399 10.318)">
			<rect id="Rectangle_56" x="-4.8" y="-26.5" class="st2" width="79.5" height="30.6"/>
			<rect id="Rectangle_57" x="22.3" y="-13.8" class="st2" width="25.4" height="5.2"/>
		</g>
	</g>
</g>
<g id="Chair" transform="translate(133.291 147.069)">
	<g id="Group_100">
		<g id="Group_90" transform="translate(66.618 144.817)">
			<path id="Path_121" class="st3" d="M2.2-17.6c0,0,3-0.2,3.2,1.9S1.5-10-0.9-10.9S2.2-17.6,2.2-17.6z"/>
			<path id="Path_122" class="st3" d="M1.3-22.9c0,0,3.1-0.2,3.4,2s-4,5.8-6.5,4.9C-4.3-16.8,1.3-22.9,1.3-22.9z"/>
			<path id="Path_123" class="st3" d="M-1-26.5c0,0,3.1-0.2,3.4,2s-4,5.8-6.5,4.9S-1-26.5-1-26.5z"/>
			<path id="Path_124" class="st3" d="M3.5-12.3c0,0,1.6,1.5,1.3,2.5S0.3-6.2-0.5-6.2s-0.9-1.3-0.3-2.1l1.9-2.5L3.5-12.3z"/>
		</g>
		<path id="Path_125" class="st4" d="M3,129.6c0,0-9.2,17.7-7.6,35.8S7.7,224.2,7.7,230s-1.1,19.2-1.1,19.2
			c-1.7,6.5-2.3,13.3-1.7,20c0.9,11.9,7.8,31.3,8.2,31.9s-2.5,10.2-2,10.9s1.3,7.2,1.3,7.2l0.4,2.7l14.1-1.1c0,0,0.9-7,1.3-8.8
			c0.7-2.2,0.9-4.5,0.4-6.7c-0.7-2.7-0.6-3.6-1-7.6s2.8-59.2,2.8-59.2l6-62.2c0,0,12.5,26.2,17,38.9c3,8.3,6.6,16.4,10.7,24.2
			c-1,7.1-1.1,14.3-0.5,21.4c1.1,11.9,1.4,30.1,2.3,33.4s0.2,14.9,0.2,14.9s-8.7,11.6-8.5,13s9.6,7.6,13,9.6s13.9,9,20.6,9.2
			s3.6-4.5,2.5-5.4c-3.1-3.3-6-6.7-8.7-10.3c-1.8-2.5-6.5-14.5-6.5-17.9s9.1-39,9.9-60.8c0.1-5.4-0.5-10.9-1.9-16.1
			c0,0-2.7-25.7-8.3-46.3s-11.6-29.8-11.6-29.8l-4-13.9v-10.3L6.1,122L3,129.6z"/>
		<path id="Path_126" class="st5" d="M20,45.4c0,0-11.7,18-12.7,23.8s2.2,33.5,2,36.1s-8.3,27.6-8.3,27.6s22.6,10.9,35.7,12.5
			s19.2,1.4,19.2,1.4l2.4-10.1l2,9.5l9.3-4c0,0-3.2-14.5-2.8-17.8s3-21.4,3.2-25.8s2.2-20,0.2-25.8S59.4,48.4,58.8,47.2
			s-11.1-8.7-14.5-10.7C40.8,34.5,26.1,34.5,20,45.4z"/>
		<g id="Group_92" transform="translate(32.878 42.576)">
			<path id="Path_127" class="st3" d="M7.7,6.6c0,0,0,1.8,6.5,7.9s15.9,10.7,15.9,10.7L22.9,4.8L7.7,0.2V6.6z"/>
			<g id="Group_91">
				<path id="Path_128" class="st3" d="M21.3,11.9l1.6-7.1l-0.2-8.1L15-6.1L21.3,11.9z"/>
				<path id="Path_129" class="st3" d="M22.7-3.3l6.3,10.7l-6.1-2.6L22.7-3.3z"/>
				<path id="Path_130" class="st3" d="M17.8-10.9c0,0,1.2,10.5,1.2,11.9s2.2,10.9,2.2,10.9l-5-4.2L14.8,2L1.7-6.5l-2-20L17.8-10.9z
					"/>
				<path id="Path_131" class="st3" d="M14.8,2L12,10.9L-4.8-0.6l6.5-5.9L14.8,2z"/>
			</g>
		</g>
		<g id="Group_94" transform="translate(11.236)">
			<path id="Path_132" class="st4" d="M51.2-13.1c0,0,6.7,5.4,7.4,8.2s-7.1,7.7-7.1,7.7L45.3-9.3L51.2-13.1z"/>
			<g id="Group_93" transform="translate(24.485 13.336)">
				<path id="Path_133" class="st3" d="M25.6-24.7c0,0,2.5,7.7,2.8,13.3s2,8.2,2.1,12.8s-2.1,11-4.8,14.5s-5.9,5.3-9.5,5.1
					S2.9,14.1,1.6,12.6s-4.8-6.4-4.8-6.4L-4.8-8.9l27.6-17.6L25.6-24.7z"/>
				<path id="Path_134" class="st6" d="M12.5,7.5c2.3,2.1,5.5,2.9,8.5,2.1"/>
				<path id="Path_135" class="st7" d="M12.4-3.3C12.4-2,11.8-1,11-1S9.6-2,9.6-3.3s0.6-2.3,1.4-2.3S12.4-4.6,12.4-3.3z"/>
				<ellipse id="Ellipse_6" class="st7" cx="24" cy="-5.7" rx="1.1" ry="1.9"/>
				<path id="Path_136" class="st6" d="M26.4,2.3c-1.1,1.3-2.5,2.3-4.1,2.8"/>
				<path id="Path_137" class="st6" d="M22.9-5.7c0,0-2.4-5.5,3.9-7.3"/>
				<path id="Path_138" class="st6" d="M14.9-9.4c-2.7-0.8-5.6-0.3-7.7,1.5"/>
			</g>
			<path id="Path_139" class="st4" d="M22.8,8.1c0,0,25.8-16.4,28.1-18.1c1.8-1.3,2.7-3.5,2.5-5.8c-0.3-1-22.5-11.3-29.1-10.7
				S2.3-12.6,1.6-6.6S0.5,11.3,0.5,11.3l-5.2,30.4c0,0,5.6,3.3,16.1,5.1s17.9-1.5,17.9-1.5c-1.6-2.8-3-5.8-4.1-8.9
				C23.8,32.5,22.8,8.1,22.8,8.1z"/>
		</g>
		<g id="Group_96" transform="translate(83.814 40.775)">
			<path id="Path_140" class="st4" d="M15,9.5c0,0,14.7,19.5,14.8,19.9s-0.3,1.3,0.3,1.2s6.2-6.5,6.6-7s-0.1-1.2-0.9-0.9
				S34,23.3,34,23.3l-5.5-6.7L22.3,3.2L15,9.5z"/>
			<g id="Group_95">
				<path id="Path_141" class="st4" d="M45.4-13.4l3.6-1.8l-4.1-7.9l-3.6,1.8c-8.4,4.2-17.5,6.8-26.8,7.7c-2.9,0.3-5.7,1.2-8.3,2.6
					C-2.2-6.7-6.8,1.3-3.9,6.9s12,6.6,20.5,2.2c2.6-1.3,4.9-3.1,6.9-5.2C29.7-3.1,37.1-9,45.4-13.4z"/>
				<path id="Path_142" class="st6" d="M54.3-16.8l-4.9-9.7l-4.4,3.3l4.1,8L54.3-16.8z"/>
			</g>
		</g>
		<g id="Group_97" transform="translate(12.154 340.798)">
			<path id="Path_143" class="st5" d="M15.4-18.7c0,0-1.3-6.8-3.4-7.6S1.9-26,1.7-24.5s-2,6.1-2.3,7.1s-3.3,10.1-4,12.7
				S-4.1,0.6-1.9,1s19.3,0,19.3,0s1.9,0,1.4-3.4s-3.3-11.1-3.3-12S15.4-18.7,15.4-18.7z"/>
			<path id="Path_144" class="st3" d="M-1.8,1c2.3,0.4,19.3,0,19.3,0s1.7,0,1.5-3.1H-4.6C-4.5-0.6-3.3,0.6-1.8,1z"/>
		</g>
		<g id="Group_98" transform="translate(62.629 334.08)">
			<path id="Path_145" class="st5" d="M31.3,1.5c-3.1-3.3-6-6.7-8.7-10.3c-1.7-2.3-5.8-12.8-6.4-17l-1-0.4c0,0-0.6-0.9-1.9,0.6
				c-1,1.3-1.9,2.7-2.6,4.1l-7.2-3.2C2.3-23-5-13.2-4.8-11.9c0.2,1.3,9.6,7.6,13,9.6s13.9,9,20.6,9.2C35.5,7.1,32.4,2.4,31.3,1.5z"
				/>
			<path id="Path_146" class="st3" d="M9.4-5.1c-4.2-3.4-8.5-6.4-13.1-9.2c-0.5,0.7-0.9,1.5-1.1,2.4c0.2,1.3,9.6,7.6,13,9.6
				s13.9,9,20.6,9.2c2.8,0.1,3.9-0.7,4.1-1.7C26.6,4.3,14.8-0.6,9.4-5.1z"/>
		</g>
		<g id="Group_99" transform="translate(20.295 70.62)">
			<path id="Path_147" class="st3" d="M37.3,16.7c0,0-18.8-29.3-23.6-31.9S1.1-15.8-1.9-8.1S-2.7,5.2,0.3,9.2s33.1,33.5,33.1,33.5
				s3.4-0.6,4.6-1.6S86.7-4.3,86.7-4.3s9.1-3.8,10.1-4.8c0.8-0.9,1.6-1.8,2.2-2.8c0,0-1.8-3.6-2.4-4.6s-1.2-4-2-5S92.8-24,92.8-24
				s-0.2-2.6-1.6-2.4s-5.7,4-6.7,4.6s-6.7,4.2-6.7,5.7S78-11.3,78-9.9s-10.7,9.7-19,14.1S37.3,16.7,37.3,16.7z"/>
			<path id="Path_148" class="st3" d="M-1.3-13.8c0,0-4,6.7-3.4,13.5S8.8,24.2,8.8,24.2L29.6,1.6c0,0-9.7-13.9-14.3-17.6
				S0.7-16.6-1.3-13.8z"/>
		</g>
	</g>
	<g id="Group_109" transform="translate(23.594 96.906)">
		<rect id="Rectangle_58" x="170.3" y="143.8" class="st4" width="6.3" height="19"/>
		<path id="Path_149" class="st4" d="M95.6,137c0,0,5.9,6.6,21.7,10s35.8-0.9,35.8-0.9s-1.1,4.5-3.2,13.1s-10.2,40.7-10.6,41.7
			s-1.1,2.5-1.1,2.5l-57.3-10.6C80.9,192.7,87.2,154.9,95.6,137z"/>
		<path id="Path_150" class="st4" d="M90.4,53c0,0,2.7,3.6,2,7.5s-8.1,19-6.8,22s3.9,5.9,4.3,8.6s-3.2,31.2-4.3,34.4s2.5,3.4,2.9,5
			s-9.3,32.1-11.5,43.5s-3.6,25.8-3.6,25.8l8.1-0.2c0,0,7.2-40.1,11.3-51.2s8.1-17.7,7.5-18.8s-3.2-3.2-3.2-4.3s3.4-8.4,3.6-13.1
			S99,97.6,98.5,94.2s0.9-6.3-0.4-8.8s-4.3-5.4-4.3-7.7s6.1-16.8,7.5-18.6c1.2-1.4,2.6-2.6,4.1-3.6L90.4,53z"/>
		<path id="Path_151" class="st4" d="M144.9,57.6c0,0,5,3.9,7,8.4s3.4,13.1,4.5,16.1s2.7,3.2,2.9,6.8s-5.7,14.9-5.7,14.9l10.9,0.4
			c0,0,2.9-13.4,3.2-15.8l0.2-2.5c1.8-2.6,4.4-4.5,7.5-5.4c3.3-0.7,6.6-0.9,10-0.7L181.1,61c0,0-8.8,7.2-14.3,8.4s-8.4-1.4-8.8-5
			c-0.5-3.6,2.3-7,2.3-7L144.9,57.6z"/>
		<path id="Path_152" class="st5" d="M232.5-26.4c0,0-17.2,1.1-19,2.5s-5.7,16.1-4.3,17.7s7.9,4.3,7.9,4.3S198.6,8.4,190,21.1
			c-8.6,12.7-10.6,31.7-10.9,46.6s15.8,24.7,25.8,29s22.4,3.4,29.9,0s13.1-7.5,14.5-8.1s4.5-2.5,7.7-11.1c3.2-8.6,8.4-32.6,3.9-49.3
			S245.4,3.5,242.9,1.9c-1.5-0.9-3-1.8-4.5-2.5c0,0,10,0.9,10.6-0.7s4.8-15.4,2.7-18.3S238.9-27.1,232.5-26.4z"/>
		<path id="Path_153" class="st6" d="M233,94.4c-5.4,2.7-9.6,2.9-11.8,3.3"/>
		<path id="Path_154" class="st6" d="M247.3,12.9c3.4,4.7,6,9.8,7.6,15.4c6.6,21.5,0,46.1-10.7,57.4c-1.8,1.9-3.8,3.7-5.9,5.3"/>
		<path id="Path_155" class="st6" d="M234.1,1c3.9,2.2,7.4,5,10.3,8.4"/>
		<path id="Path_156" class="st6" d="M241.3-12.4c-1.8,6.3-2.1,8.2-4.7,8.4c-2.9,0.2-22-0.7-22-0.7"/>
		<path id="Path_157" class="st6" d="M239.1-24.1c0,0,4.5-0.5,3.8,5.4"/>
		<path id="Path_158" class="st6" d="M219.6-2.2c0,0,11.8-1.1,16.3,0.7"/>
		<g id="Group_102" transform="translate(107.154 130.176)">
			<path id="Path_159" class="st5" d="M-4.8-9.5c0,0-0.4-10,11.5-14.5c12-4.5,77.6-2,94.4,0.2s27.8,8.6,30.3,12.4s0.7,10.6,0.7,10.6
				L63.6,2.8L0.7-5.2L-4.8-9.5z"/>
			<g id="Group_101" transform="translate(5.53 10.566)">
				<path id="Path_160" class="st6" d="M115.3-20.9c2.7-0.2,5.4-0.5,8.1-0.7"/>
				<path id="Path_161" class="st6" d="M-4.8-26.5c0,0,34,12.1,113.2,6.2"/>
			</g>
		</g>
		<path id="Path_162" class="st4" d="M230,129.3c0,0-53.4,1.1-64.7,0.9s-51.2-5.7-55.7-7s-7.2-2.5-7.2-2.5v17.4
			c0,0,15.2,4.8,46.9,8.4s40.3,2.7,42.8,2.7s55.4-2.7,56.4-3.4s0.4-16.8,0.4-16.8L230,129.3z"/>
		<path id="Path_163" class="st4" d="M191.6,60.5c0,0-7.7,26.9-9.7,29.2s-10,5.2-10.2,7.5s-2.7,32.6-2.7,32.6s-1.4,3.6-2.7,5
			c-1.4,1.1-2.9,2-4.5,2.7c0,0,13.6-0.9,15.2-1.6s5-8.1,5.7-14s-1.8-22-0.7-25.1s6.8-5,7.9-8.8s8.1-23.8,8.1-23.8l3.4-3.4
			L191.6,60.5z"/>
		<path id="Path_164" class="st4" d="M185.2,122.2c0,2.4-2,4.4-4.4,4.4s-4.4-2-4.4-4.4s2-4.4,4.4-4.4l0,0
			C183.2,117.8,185.2,119.8,185.2,122.2z"/>
		<path id="Path_165" class="st4" d="M241.1,61.4c0,0,7.2,11.8,8.6,17.2s-5.2,13.6-7.7,16.3s-6.1,15.8-4.5,17.4
			c1.2,1.1,2.7,1.8,4.3,2c0.1,3-0.8,6-2.7,8.4c-3.2,4.1-8.8,5.4-9.1,6.6s16.3,0,16.3,0s1.8,0,2.5-2.7s0.4-10,0.4-10
			s-0.4-4.8-0.4-8.1s1.6-10.2,3.4-12.4s8.4-8.4,8.6-14.7s-3.4-12.4-3.9-14.5s2.5-5.7,2.5-5.7L241.1,61.4z"/>
		<circle id="Ellipse_7" class="st4" cx="247.4" cy="111.9" r="3.7"/>
		<path id="Path_166" class="st8" d="M31.8,201.1l43.5-3.4l65,11.3l-52.3,13.1L31.8,201.1z"/>
		<path id="Path_167" class="st4" d="M131.6,210.1l-43.5,2.9l-0.2,9.1l51.4-2.7l0.9-10.4L131.6,210.1z"/>
		<path id="Path_168" class="st4" d="M161.7,137.5c0,0-3.4,1.4-4.3,3.9l-0.9,2.5c0,0-3.2-0.7-3.8,0.4s-11.8,36.7-14,48.7
			s-3.4,17.2-3.4,17.2s-6.3-0.7-6.6,0.9s-2.3,4.5,1.1,5.9s10.2,1.1,12-0.4s3.2-14.3,3.9-18.1s11.8-30.1,15.6-39.4s7-15.6,9.5-18.1
			c1.5-1.5,2.8-3.1,4.1-4.8L161.7,137.5z"/>
		<g id="Group_103" transform="translate(185.702 76.051)">
			<path id="Path_169" class="st5" d="M-3.6-16.7c0,0,3.9,2.3,6.8,2.5s71.5,2.7,72.7,1.8c1.6-1.6,2-4,1.1-6.1
				c-1.1-2.5-12.2-6.6-17.2-7S6.5-27.3,1.3-25.7s-6.1,3.4-6.1,5.4C-4.7-19-4.4-17.7-3.6-16.7z"/>
			<path id="Path_170" class="st4" d="M3.1-14.2c2.9,0.2,71.5,2.7,72.7,1.8c1.2-1.3,1.8-3,1.5-4.8c-20.3-1-66-3.2-69-3.2H-4.8
				c0,1.3,0.4,2.5,1.1,3.6C-3.6-16.7,0.2-14.4,3.1-14.2z"/>
		</g>
		<g id="Group_104" transform="translate(90.11 71.354)">
			<path id="Path_171" class="st5" d="M8-26c0,0-10.6,0.7-12,2.3s-0.7,6.8,0.4,7.2s74,4.5,76.1,3.8s2.7-1.6,2.7-3.4s0-3.6-2.9-5.2
				S18.2-28,8-26z"/>
			<path id="Path_172" class="st4" d="M-3.6-16.5c1.1,0.4,74,4.5,76.1,3.9s2.7-1.6,2.7-3.4c0-0.4,0-0.9,0-1.3l-79.9-3.8
				C-4.9-19.1-4.3-16.8-3.6-16.5z"/>
		</g>
		<g id="Group_106" transform="translate(88.742 180.468)">
			<path id="Path_173" class="st5" d="M2.3-26.5c0,0-5.4,20.1-6.6,25.3s-0.2,5.4,0.7,5.4s46.2,9.5,46.9,8.1S51-18.3,51-18.3
				S25-24,2.3-26.5z"/>
			<g id="Group_105" transform="translate(45.998 10.888)">
				<path id="Path_174" class="st6" d="M-0.3-23.2c-3.1,6.7-4.6,14-4.4,21.4"/>
				<path id="Path_175" class="st6" d="M1.4-26.5c0,0-0.4,0.7-1.1,1.9"/>
			</g>
		</g>
		<path id="Path_176" class="st4" d="M88.1,213.1l-56.4-12l-0.5,8.6l56.6,12.5L88.1,213.1z"/>
		<path id="Path_177" class="st4" d="M58,187.9c0,0,3.9,2.9,4.5,4.1s4.3,18.8,6.1,19.7s11.3,1.6,11.3,1.6v6.3c0,0-11.8,0-14.7-2.9
			s-5.2-6.6-5.9-9.3s-2.9-12-2.9-12l-4.1-1.8L58,187.9z"/>
		<path id="Path_178" class="st4" d="M11.9,199.5c0,0,7,6.6,9.7,7.9s9.5,0,9.5,0l0.2-4.8L11.9,199.5z"/>
		<g id="Group_108" transform="translate(0 185.288)">
			<path id="Path_179" class="st4" d="M68-16.4l3.4,6.8L39.2,20.8c0,0-38.9-9.3-40.1-10.2s-2.3-4.8-2.3-4.8L68-16.4z"/>
			<path id="Path_180" class="st5" d="M68-16.4c0,0-27.8,30.1-30.9,31.6c-1.6,0.9-3.6,1.1-5.3,0.6c0,0-31.7-7.2-33.7-8.4
				s-3.2-2.5-2.7-4.1s18.6-23.5,26-27.2s12.4-2.5,12.4-2.5s33.5,6.3,34.4,7.9C69.1-16.8,68-16.4,68-16.4z"/>
			<g id="Group_107" transform="translate(40.651 10.611)">
				<path id="Path_181" class="st6" d="M18.6-23c1.6-1.3,3.2-2.4,4.8-3.5"/>
				<path id="Path_182" class="st6" d="M-4.8,2.1C1.3-6.3,8.3-14,16-20.9"/>
			</g>
		</g>
		<path id="Path_183" class="st4" d="M157.4,167.3l69-14.9l-0.7-5l-65.6,14L157.4,167.3z"/>
		<ellipse id="Ellipse_8" class="st4" cx="174.7" cy="235.3" rx="77.8" ry="12.9"/>
		<ellipse id="Ellipse_9" class="st4" cx="172.9" cy="232.6" rx="73" ry="10.3"/>
		<path id="Path_184" class="st4" d="M186.4,161.9h-20c-2,0-3.7,1.3-4.1,3.3c-2.8,11.8-12.4,51.8-13.9,53.6c-1.8,2-9.5,2-13.6,5
			s0.2,7.9,19.5,10.4s44.6,2.3,54.8-0.9s9.3-7,7.2-9.3s-11.3-3.2-14.3-5s-12.4-52.7-12.9-54.8C188.7,162.9,187.6,162,186.4,161.9z"
			/>
		<path id="Path_185" class="st9" d="M196.1,209.7c0,0,17.2-21,19.7-23.5s9.7-8.8,9.1-10.9s-18.3-6.6-24.7-6.6
			c-3.3,0-6.7,0.1-10,0.4"/>
	</g>
</g>
</svg>
