<svg xmlns="http://www.w3.org/2000/svg" width="214" height="215" viewBox="0 0 214 215">
  <g id="makeup" transform="translate(-1047 -1637)">
    <rect id="Rectangle_46" data-name="Rectangle 46" width="214" height="215" rx="20" transform="translate(1047 1637)" fill="#efe9f6"/>
    <g id="make-up-bag" transform="translate(738 1323.071)">
      <path id="Path_102" data-name="Path 102" d="M348,444.5c.309-2.32.571-4.651.933-6.964,1.561-9.977,6.62-18.019,13.925-24.753a4.081,4.081,0,0,0,1.628-3.746,30.359,30.359,0,0,1,.011-3.853,8.062,8.062,0,0,1,3.636-6.876,1.27,1.27,0,0,0,.646-1.515c-.309-1.565-.571-3.136-.827-4.708-.557-3.4-.124-4.229,2.98-5.662-.582-3.324-1.164-6.677-1.753-10.026-.2-1.135-.436-2.263-.61-3.4a3.907,3.907,0,0,1,3.087-4.577c2.469-.514,4.956-.969,7.454-1.327,2.6-.372,4.314,1.057,4.793,3.807q1.112,6.4,2.242,12.8a14.951,14.951,0,0,1,2.129.333,3.27,3.27,0,0,1,2.356,2.636c.372,1.912.727,3.828,1.029,5.751a1.7,1.7,0,0,0,1.384,1.607,20.34,20.34,0,0,1,3.36,1.8c.365.2.791.5,1.146.454,3.1-.451,6.2-.969,9.49-1.5,0-1.639-.007-3.353,0-5.066.011-2.693.954-3.743,3.786-4.1,0-1.657-.007-3.331,0-5.006.011-1.639.773-2.6,2.026-2.583s1.955.951,1.958,2.629c.007,1.632,0,3.26,0,4.967H425.08c.021-.447.06-.873.06-1.3,0-4.169-.035-8.337.018-12.5a7.735,7.735,0,0,0-1.816-5.141,23.557,23.557,0,0,0-6.94-5.5c-.993-.564-1.568-.181-1.582,1.032-.028,2.661,0,5.322-.011,7.979-.007,1.593-.7,2.466-1.944,2.487-1.3.021-2.036-.873-2.044-2.54-.011-2.7-.032-5.41,0-8.114.053-4.183,3.945-6.383,7.585-4.3a27.763,27.763,0,0,1,8.036,6.461,11.452,11.452,0,0,1,2.7,7.589c-.057,4.123-.014,8.245-.014,12.371v1.419c3.026.536,3.782,1.462,3.786,4.5,0,1.639-.028,3.282.025,4.921.011.358.255.958.5,1.018,3.257.788,6.535,1.5,9.941,2.264.408-2.3.742-4.609,1.252-6.883a29.519,29.519,0,0,1,1.228-3.133,2.073,2.073,0,0,0,.053-1.316c-1.178-3.055-2.48-6.063-3.608-9.132a41.371,41.371,0,0,1-1.813-6.092c-.752-3.722.706-6.6,4.2-8.1a19.128,19.128,0,0,1,5.737-1.508,36.175,36.175,0,0,1,19.385,3.431,20.871,20.871,0,0,1,5.162,3.654,6.232,6.232,0,0,1,1.313,7.908,33.45,33.45,0,0,1-3.828,5.552c-2.143,2.593-4.474,5.034-6.727,7.536a1.948,1.948,0,0,0-.419,2.012,8.456,8.456,0,0,1-.092,3.25q-.915,5.572-1.983,11.115a1.71,1.71,0,0,0,.937,1.934,48.153,48.153,0,0,1,16.437,19.641,45.41,45.41,0,0,1,3.378,14.688c.05.568.167,1.128.252,1.692v9.047c-.174,1.444-.355,2.888-.518,4.332a48.774,48.774,0,0,1-6.482,20.2c-3.523,5.79-8.5,8.873-15.571,8.827-22.88-.149-45.763-.057-68.647-.057-.486,0-.976.014-1.462-.018A1.822,1.822,0,0,1,389.69,485a1.855,1.855,0,0,1,1.671-2.054,7.388,7.388,0,0,1,1.458-.057q17.828-.005,35.652,0c11.307,0,22.617-.05,33.924.025a12.031,12.031,0,0,0,9.842-4.641,28.248,28.248,0,0,0,4.981-9.607c.018-.053-.067-.138-.117-.238H354.886c1.387,4.133,3.122,7.922,6.18,10.966a11.42,11.42,0,0,0,8.6,3.509c4.034-.074,8.071-.025,12.105-.014,1.582,0,2.473.724,2.5,1.951.032,1.306-.844,2.026-2.526,2.033-3.814.011-7.631-.11-11.442.028-6.2.227-10.835-2.473-14.362-7.355-3.935-5.449-5.776-11.711-6.883-18.229-.451-2.657-.717-5.347-1.068-8.018C348,450.351,348,447.424,348,444.5Zm68.178,19.839q30.456,0,60.913.025c1.082,0,1.543-.27,1.763-1.366a76.121,76.121,0,0,0,1.338-17.856,9.72,9.72,0,0,0-1.408-4.626,40.591,40.591,0,0,0-15.163-14.578c-12.016-7-25.211-9.916-38.905-10.959a114.8,114.8,0,0,0-28.219,1.316,82.542,82.542,0,0,0-26.339,8.756c-7.064,3.906-13.1,8.93-17.026,16.146a6.713,6.713,0,0,0-.876,2.459,69.918,69.918,0,0,0,1.086,19.052c.234,1.3.752,1.664,2.061,1.66Q385.788,464.306,416.178,464.336Zm37.564-98.75a69.956,69.956,0,0,0-6.961,1.44c-2.21.681-2.86,1.99-2.324,4.24a53.5,53.5,0,0,0,1.856,5.8c1.238,3.4,2.537,6.787,3.867,10.154a1.548,1.548,0,0,0,1.011.777q4.561.878,9.15,1.614a1.437,1.437,0,0,0,1.125-.348c2.6-2.952,5.2-5.911,7.72-8.937a34.991,34.991,0,0,0,3.331-4.612,2.757,2.757,0,0,0-.624-4.041,16.21,16.21,0,0,0-3.583-2.473A39.358,39.358,0,0,0,453.743,365.586ZM398.968,411.85c-1.511-4.115-2.867-8.039-4.406-11.885a3.954,3.954,0,0,0-4.541-2.235q-8.967,1.549-17.924,3.168a4.22,4.22,0,0,0-3.6,4.3c-.035,1.242-.074,2.483-.039,3.725.117,4.009.27,8.018.415,12.293C378.426,416.171,388.328,413.464,398.968,411.85Zm29.851-.759V389.775H411.126v20.776Zm32.633-17.218c-4.335-.763-8.529-1.5-12.832-2.256-.749,4.247-1.472,8.359-2.207,12.545,4.328.763,8.5,1.5,12.825,2.263C459.969,402.246,460.7,398.134,461.452,393.873Zm-28.464,6.038v11.814c3.516.66,6.964,1.306,10.47,1.962.3-1.646.568-3.165.855-4.68a1.268,1.268,0,0,0-.653-1.607,2.849,2.849,0,0,1-1.327-3.09c.089-.607.184-1.21.312-2.033C439.431,401.49,436.28,400.717,432.988,399.911Zm26.79,10.608c-.426,2.37-.781,4.637-1.256,6.879a1.419,1.419,0,0,0,.961,1.912,54.221,54.221,0,0,1,17.991,12.669,1.067,1.067,0,0,0,.319.16C476.31,425.441,466.284,413.343,459.778,410.519Zm-77.534-25.935c-.82-4.633-1.6-9.065-2.405-13.6-2.5.447-4.878.869-7.34,1.306.82,4.612,1.611,9.079,2.409,13.592C377.422,385.443,379.764,385.025,382.244,384.585Zm4.559,3.257-15.1,2.682c.39,2.139.749,4.119,1.125,6.177,4.946-.866,9.732-1.7,14.518-2.544a3.1,3.1,0,0,0,.543-.224C387.53,391.915,387.175,389.928,386.8,387.842Zm20.226,23.032V398.861c-2.785.4-5.368.77-7.99,1.15.961,2.789,1.87,5.322,2.707,7.876C402.959,411.594,402.938,411.6,407.029,410.874Zm47.509,6.269c.433-2.476.844-4.839,1.27-7.273l-7.387-1.288c-.369,2.161-.713,4.183-1.054,6.184C449.8,415.571,452.057,416.32,454.537,417.143Zm-89.941-.287c-3.243,1.983-9.739,11.917-10.058,15.4A50.7,50.7,0,0,1,364.8,423.6a.993.993,0,0,0,.458-.7C365.072,420.893,364.827,418.892,364.6,416.856Z" fill="#6429a2"/>
      <path id="Path_103" data-name="Path 103" d="M511.588,581c-3.942,0-7.887.007-11.828,0-2.473-.007-3.686-1.174-3.718-3.644q-.053-4.055,0-8.107c.032-2.444,1.263-3.647,3.736-3.651q11.83-.021,23.657,0c2.537,0,3.768,1.217,3.793,3.736q.043,3.986,0,7.975c-.028,2.523-1.249,3.686-3.81,3.693Q517.5,581,511.588,581Zm11.594-11.36H500.122V576.9h23.061Z" transform="translate(-95.502 -134.625)" fill="#6429a2"/>
    </g>
  </g>
</svg>
