<svg xmlns="http://www.w3.org/2000/svg" width="214" height="215" viewBox="0 0 214 215">
  <g id="nails" transform="translate(-281 -1637)">
    <rect id="Rectangle_46" data-name="Rectangle 46" width="214" height="215" rx="20" transform="translate(281 1637)" fill="#efe9f6"/>
    <g id="manicure" transform="translate(-26.372 1332)">
      <path id="Path_104" data-name="Path 104" d="M475.249,583.458c-.792-.687-1.618-1.334-2.366-2.065q-14.919-14.518-29.821-29.053c-1.374-1.341-1.584-1.324-2.725.21-3.03,4.069-5.931,8.25-9.137,12.177a55.125,55.125,0,0,1-7.177,7.292c-3.687,3.1-7.617,5.914-11.5,8.771a11.193,11.193,0,0,1-15.068-1.4,4.9,4.9,0,0,1-.061-7.069c3.47-3.88,6.906-7.786,10.451-11.6a9.371,9.371,0,0,0,2.746-5.691,42.89,42.89,0,0,1,.738-4.374,2.211,2.211,0,0,0-.857-2.465,2.327,2.327,0,0,0-2.627.02q-7.988,4.286-15.986,8.551-10.679,5.7-21.368,11.388c-7.265,3.863-14.713,2.018-19.334-4.77a4.084,4.084,0,0,1,1.493-6.073c2.18-1.209,4.4-2.346,6.6-3.517.4-.213.8-.44,1.354-.751-.542-.217-.914-.376-1.3-.518a13.626,13.626,0,0,1-7.729-6.943,3.7,3.7,0,0,1,2.244-5.494c2.742-.961,5.5-1.886,8.45-2.891a11.473,11.473,0,0,1-5.714-7.5,11.591,11.591,0,0,1,.294-6.256,3.835,3.835,0,0,1,4.367-2.651c5.417.623,10.823,1.462,16.256,1.808,7.972.5,15.969.66,23.958.934a4.64,4.64,0,0,0,1.591-.349q21.871-7.505,43.732-15.034a9.883,9.883,0,0,1,11.138,2.559c2.041,2.085,4.12,4.137,6.178,6.209,1.388,1.395,1.574,2.437.613,3.365-.907.877-2.014.64-3.368-.721q-3.179-3.194-6.358-6.388a5.955,5.955,0,0,0-6.628-1.527q-46.372,15.935-92.741,31.876c-.156.054-.311.112-.576.21a7.856,7.856,0,0,0,.386.907,9.8,9.8,0,0,0,10.9,4.6,38.568,38.568,0,0,0,7.089-2.962c6.943-3.588,13.822-7.309,20.735-10.958.511-.271,1.185-.674,1.625-.532a3.07,3.07,0,0,1,1.73,1.354,1.673,1.673,0,0,1-.978,2.2q-3.184,1.711-6.375,3.4-17.473,9.262-34.947,18.521c-.328.173-.64.376-.955.562a10.017,10.017,0,0,0,13.474,4.452c4.035-2.041,7.993-4.228,11.984-6.358q13.142-7.008,26.284-14.025a5.973,5.973,0,0,1,6.8.257,5.591,5.591,0,0,1,2.38,5.538,46.538,46.538,0,0,1-1.2,6.862,13.005,13.005,0,0,1-2.427,4.641c-3.555,4.194-7.306,8.223-10.982,12.312-1.056,1.175-1.033,1.645.139,2.742a7.237,7.237,0,0,0,9.123.765c4.712-3.439,9.5-6.835,13.856-10.691,2.844-2.515,5.054-5.769,7.434-8.782,2.231-2.817,4.3-5.758,6.463-8.633,2.187-2.915,5.207-3.172,7.81-.64q14.193,13.807,28.366,27.638c.322.311.65.616,1.158,1.1.034-.62.071-.978.071-1.337q.005-21.135-.034-42.269a3.182,3.182,0,0,0-.819-1.953c-1.757-1.889-3.622-3.676-5.437-5.511-1.066-1.077-1.192-2.16-.386-3.006.867-.914,1.94-.812,3.081.325,2.038,2.031,4.052,4.086,6.1,6.107a4.244,4.244,0,0,1,1.31,3.179q-.015,23.359.007,46.714a3.21,3.21,0,0,1-2.011,3.2C476.265,583.458,475.757,583.458,475.249,583.458Zm-114.83-58.624a7.3,7.3,0,0,0,1.672,7.441,7.421,7.421,0,0,0,7.732,2.251c4.736-1.364,9.357-3.131,14.022-4.736,2.17-.745,4.333-1.5,6.571-2.282C380.409,526.619,370.534,525.735,360.419,524.834Z" transform="translate(0 -105.462)" fill="#6429a2"/>
      <path id="Path_105" data-name="Path 105" d="M421.644,348c.714.217,1.439.413,2.146.653a12.559,12.559,0,0,1,8.7,11.889c.1,7.617.037,15.234.024,22.851,0,1.4-.731,2.217-1.886,2.234-1.215.017-1.9-.8-1.913-2.305-.014-1.635,0-3.274,0-5.068-.484.23-.823.369-1.137.548-5.237,3.02-10.464,6.053-15.715,9.049a1.569,1.569,0,0,0-.928,1.584c.044,3.3,0,6.6.024,9.9a8.874,8.874,0,1,0,17.746.146c.051-2.156,0-4.316.017-6.473.01-1.4.714-2.241,1.848-2.265a1.943,1.943,0,0,1,1.936,2.2c-.088,3.206.142,6.49-.491,9.591a12.339,12.339,0,0,1-13.264,9.594c-6.662-.741-11.547-5.884-11.578-12.434q-.091-19.611,0-39.226a12.566,12.566,0,0,1,10.1-12.2c.281-.061.548-.173.823-.261C419.275,348,420.46,348,421.644,348Zm7.075,19.584c-.281.024-.376,0-.44.041q-8.4,4.834-16.781,9.692a1.114,1.114,0,0,0-.511.755c-.044,1.886-.024,3.771-.024,5.7a1.746,1.746,0,0,0,.481-.071q8.343-4.8,16.669-9.631a1.378,1.378,0,0,0,.576-.985C428.75,371.281,428.72,369.47,428.72,367.584ZM410.96,372.97c.21,0,.3.03.366,0q8.4-4.834,16.791-9.682c.234-.135.555-.389.562-.6a10.506,10.506,0,0,0-.836-5.616c-5.5,3.179-10.952,6.317-16.385,9.482a1.1,1.1,0,0,0-.477.779C410.94,369.212,410.96,371.1,410.96,372.97Zm.115-10.62c4.9-2.83,9.641-5.576,14.435-8.345a8.574,8.574,0,0,0-9.675-1.236C412.369,354.527,410.585,358.024,411.075,362.35Z" transform="translate(-37.545)" fill="#6429a2"/>
      <path id="Path_106" data-name="Path 106" d="M522.187,422.11a3.38,3.38,0,0,1,3.091,1.859,5.086,5.086,0,0,1,.443,1.046,11.748,11.748,0,0,0,8.287,8.321c2.109.664,2.949,1.855,2.928,3.632a3.416,3.416,0,0,1-1.855,3.1,3.008,3.008,0,0,1-.691.311c-4.655,1.27-7.488,4.306-8.87,8.88a3.325,3.325,0,0,1-3.44,2.475,3.521,3.521,0,0,1-3.365-2.444c-.217-.548-.406-1.11-.609-1.662a10.8,10.8,0,0,0-6.666-6.676c-.592-.22-1.192-.427-1.777-.67a3.582,3.582,0,0,1-.017-6.723c.589-.23,1.178-.464,1.774-.677a10.742,10.742,0,0,0,6.72-6.774c.23-.633.45-1.276.731-1.889A3.4,3.4,0,0,1,522.187,422.11Zm-10.308,14.8A15.767,15.767,0,0,1,522.137,447.6a15.765,15.765,0,0,1,10.318-10.7,15.767,15.767,0,0,1-10.322-10.335A15.95,15.95,0,0,1,511.879,436.914Z" transform="translate(-103.808 -49.021)" fill="#6429a2"/>
      <path id="Path_107" data-name="Path 107" d="M607.943,368.08a2.763,2.763,0,0,1,2.928,1.913,7.91,7.91,0,0,0,5.626,5.637,2.72,2.72,0,0,1,1.94,2.83,2.765,2.765,0,0,1-2.011,2.789,7.768,7.768,0,0,0-5.538,5.555,2.987,2.987,0,0,1-5.609-.02,7.78,7.78,0,0,0-5.549-5.545,2.982,2.982,0,0,1-.044-5.609,7.9,7.9,0,0,0,5.626-5.64A2.7,2.7,0,0,1,607.943,368.08Zm.132,15.495a10.442,10.442,0,0,1,5.163-5.149,10.435,10.435,0,0,1-5.152-5.156,10.213,10.213,0,0,1-5.156,5.146A10.157,10.157,0,0,1,608.075,383.575Z" transform="translate(-163.626 -13.282)" fill="#6429a2"/>
    </g>
  </g>
</svg>
