<svg xmlns="http://www.w3.org/2000/svg" width="214" height="215" viewBox="0 0 214 215">
  <g id="shinion" transform="translate(-1047 -1125)">
    <rect id="Rectangle_46" data-name="Rectangle 46" width="214" height="215" rx="20" transform="translate(1047 1125)" fill="#efe9f6"/>
    <g id="woman" transform="translate(721.815 820.03)">
      <path id="Path_108" data-name="Path 108" d="M396.751,510.825c-2.268-.965-3.087-2.684-3.057-5.128a16.7,16.7,0,0,1,6.651-13.617c.389-.308.779-.616,1.161-.921-2.62-1.466-5.233-2.84-7.762-4.36a64.325,64.325,0,0,1-13.127-10.53,10.924,10.924,0,0,1-2.745-11.8,51.687,51.687,0,0,1,2.789-6.228,37.545,37.545,0,0,1,2.468-4.282c3.381-5.023,4.113-10.537,3.656-16.471-.542-7.078-.829-14.186-.887-21.281a31.7,31.7,0,0,1,2.965-13.78c.088-.193.173-.386.271-.572a1.911,1.911,0,0,1,2.617-1.066,1.97,1.97,0,0,1,.819,2.715,50.688,50.688,0,0,0-1.882,5.365c-1.439,5.819-1.239,11.752-.917,17.672.264,4.9.6,9.792.924,14.687a21.85,21.85,0,0,1-2.969,12.27c-1.54,2.769-3.131,5.511-4.644,8.3a24.718,24.718,0,0,0-1.479,3.358,7.748,7.748,0,0,0,1.973,8.716,62.141,62.141,0,0,0,13.364,10.425c2.64,1.5,5.412,2.769,8.151,4.086a2.081,2.081,0,0,0,1.411.047c4.857-1.574,9.688-3.229,14.555-4.766,1.151-.362,1.652-.823,1.6-2.1-.108-2.661-.058-5.331-.017-8a1.808,1.808,0,0,0-.826-1.682,40.593,40.593,0,0,1-13.837-17.324,2.028,2.028,0,0,0-1.124-.944,21.613,21.613,0,0,0-2.684-.589c0,.988.014,1.892,0,2.8-.027,1.439-.691,2.217-1.862,2.227a1.813,1.813,0,0,1-1.9-2.183c.349-2.931-.562-4.922-2.908-6.959-4.092-3.551-3.876-9.041-.074-12.93a15.735,15.735,0,0,1,7.816-4.224,1.385,1.385,0,0,0,1.225-1.3,35.828,35.828,0,0,1,7.118-16.329,2.521,2.521,0,0,0,.4-1.513,17.1,17.1,0,0,1,1.11-7.457,12.688,12.688,0,0,1,24.27,4.908c.1,6.133.01,12.27.037,18.4a22.6,22.6,0,0,0,18.4,22.516c3.239.626,6.651.352,9.982.5a7.682,7.682,0,0,1,1.632.149,1.854,1.854,0,0,1-.362,3.629c-1.395.061-2.793.061-4.187.017a1.313,1.313,0,0,0-1.439.88,41.1,41.1,0,0,1-13.059,15.757,2.227,2.227,0,0,0-.792,1.52c-.074,2.874-.017,5.754-.051,8.628a1.249,1.249,0,0,0,1.053,1.435c3.967,1.175,7.907,2.444,11.878,3.615a2.188,2.188,0,0,0,1.53-.278c3.608-2.105,7.179-4.279,10.784-6.394a3.046,3.046,0,0,1,1.824-.609,2.575,2.575,0,0,1,1.527,1.276,1.662,1.662,0,0,1-.826,2.166c-2.732,1.767-5.484,3.5-8.232,5.24-.454.284-.931.531-1.489.85a23.685,23.685,0,0,1,7.247,5.7,16.682,16.682,0,0,1,3.514,12.24c-.132,1.831-1.425,2.759-2.874,3.544Q436.112,510.82,396.751,510.825Zm62.864-55.583c-.531-.1-.856-.186-1.185-.234a25.826,25.826,0,0,1-14.288-6.854,26.127,26.127,0,0,1-8.554-19.642c-.027-6.133.01-12.267-.024-18.4-.014-2.339-.271-2.529-2.4-2.285-9.44,1.083-16.159,5.964-20.211,14.528-2.484,5.25-3.239,10.869-3.649,16.6-1.222,17.168,11.353,29.648,21.67,33.707a13.216,13.216,0,0,0,10.348-.068,35.456,35.456,0,0,0,12.754-9.187A34.124,34.124,0,0,0,459.615,455.242Zm-28.5,44.471c-1.053-.569-2.288-1.137-3.415-1.865a26.566,26.566,0,0,1-8.093-8.794c-.376-.616-.667-.914-1.483-.63-2.667.934-5.416,1.648-8.056,2.654-3.737,1.425-7.267,3.246-9.847,6.462a12.853,12.853,0,0,0-2.613,9.478h3.375q12.373,0,24.75-.017c.41,0,1.026-.095,1.2-.366C428.363,504.367,429.72,502.041,431.111,499.712Zm43.394,7.271c.034-.41.071-.7.081-.985.173-5.558-2.5-9.474-7.095-12.284-4.265-2.606-9.007-3.987-13.756-5.345a1.142,1.142,0,0,0-.982.41c-2.972,4.776-6.573,8.865-11.871,10.92,1.581,2.41,3.121,4.766,4.769,7.284Zm-48.069-32.268c0,2.4-.078,4.471.02,6.536.129,2.765-.69,4.895-3.581,5.866a22.448,22.448,0,0,0,7.491,7.924,10.4,10.4,0,0,0,9.721.823c4.136-1.723,6.79-5.016,9.2-8.743-2.823-.958-3.75-2.958-3.568-5.663.074-1.093.014-2.2.014-3.3v-3.483C439.231,478.408,432.932,478.428,426.437,474.715Zm-21.054-39.078c-2.772.921-5.423,2.187-6.685,5.236a4.562,4.562,0,0,0,1.6,5.4c.024-.274.034-.525.071-.772a1.95,1.95,0,0,1,2.068-1.933,1.922,1.922,0,0,1,1.726,2.119c.02.592.007,1.181.007,1.774,0,1.7.345,2,1.784,1.916C405.768,444.83,405.579,440.294,405.383,435.637Zm12.538-26.074a75.3,75.3,0,0,1,6.993-3.558,77.059,77.059,0,0,1,7.663-2.18,8.458,8.458,0,0,0-9.163-1.743C420.178,403.372,417.856,406.6,417.92,409.563Zm23.014,97.417c.085-.108.166-.217.25-.325-1.652-2.089-3.3-4.174-5.131-6.482-1.835,2.353-3.48,4.461-5.308,6.807Z" transform="translate(0 -32.865)" fill="#6429a2"/>
      <path id="Path_109" data-name="Path 109" d="M481.479,347.98c2.224.454,4.482.785,6.668,1.381a34.94,34.94,0,0,1,13.716,7.474c.521-1.07,1.046-2.007,1.445-2.992.7-1.736,1.642-2.556,3.087-2.552s2.441.779,3.046,2.576a7.531,7.531,0,0,0,4.983,5c1.831.623,2.583,1.577,2.6,3.026.017,1.489-.782,2.41-2.647,3.134a12.751,12.751,0,0,0-1.943.921c-1.973,1.178-2.119,1.72-1.283,3.811a33.642,33.642,0,0,1,2.41,17.994,1.38,1.38,0,0,0,.481,1.1,3.651,3.651,0,0,1,1.676,3.595,3.487,3.487,0,0,1-2.671,3.053,1.508,1.508,0,0,0-1.195,1.5c-.819,6.326.542,12.27,3.07,18.014,1.8,4.1,3.767,8.124,5.446,12.27,1.733,4.282,2.183,8.689.193,13.059a22.078,22.078,0,0,1-1.821,3.182,1.836,1.836,0,0,1-2.66.572,1.807,1.807,0,0,1-.467-2.677c3.148-4.353,2.941-8.929.927-13.59-1.824-4.224-3.811-8.378-5.636-12.605a35.13,35.13,0,0,1-3.046-16.173.961.961,0,0,0-.3-.735A23.989,23.989,0,0,0,505.6,401c-.66,1.219-1.127,2.542-1.672,3.822a3.514,3.514,0,0,1-3.415,2.363,3.189,3.189,0,0,1-3.338-2.244,13.278,13.278,0,0,0-9.657-9.644,3.184,3.184,0,0,1-2.237-3.348,3.492,3.492,0,0,1,2.261-3.361,3.352,3.352,0,0,1,.47-.193,12.369,12.369,0,0,0,8.939-8.851,3.58,3.58,0,0,1,3.6-2.84c1.672.024,2.867.985,3.561,2.911.911,2.535,2.028,4.932,4.312,6.563a10.952,10.952,0,0,0,.961.609,1.457,1.457,0,0,0,.437.058,29.324,29.324,0,0,0-1.716-14.5,13.018,13.018,0,0,1-2.779-.037c-1.178-.271-1.689-1.307-2.034-2.4a7.015,7.015,0,0,0-4.783-4.851c-1.493-.47-2.63-1.276-2.742-2.935s.856-2.664,2.485-3.3a26.769,26.769,0,0,0-7.931-4.708c-11.647-4.353-22.438-2.732-32.187,5.006a9.97,9.97,0,0,1-7.762,2.234,31.029,31.029,0,0,0-12.947.826,32.29,32.29,0,0,0-4.844,2.143c-1.313.67-2.386.616-3.009-.372s-.281-2.041.975-2.857a24.142,24.142,0,0,1,12.24-3.683,70.387,70.387,0,0,1,8.232.2,6.1,6.1,0,0,0,4.671-1.418,34.677,34.677,0,0,1,18.857-8,5.437,5.437,0,0,0,.843-.223C477.417,347.98,479.448,347.98,481.479,347.98Zm8.185,44.007a16.4,16.4,0,0,1,10.849,10.818c1.838-5.467,5.467-8.99,11.241-10.835a16.163,16.163,0,0,1-11.248-10.821A16.479,16.479,0,0,1,489.663,391.987Zm11.214-30.054a10.409,10.409,0,0,1,5.511,5.49,10.71,10.71,0,0,1,5.5-5.5,10.651,10.651,0,0,1-5.514-5.484A10.548,10.548,0,0,1,500.877,361.933Z" transform="translate(-34.452)" fill="#6429a2"/>
      <path id="Path_110" data-name="Path 110" d="M534.46,570.319a16.113,16.113,0,0,1-7.013-1.608,1.94,1.94,0,0,1-1.178-2.569,1.889,1.889,0,0,1,2.661-.914,12.972,12.972,0,0,0,11.262.017,1.9,1.9,0,0,1,2.684.853c.481,1.059.034,2.061-1.225,2.644A16.149,16.149,0,0,1,534.46,570.319Z" transform="translate(-98.518 -143.573)" fill="#6429a2"/>
      <path id="Path_111" data-name="Path 111" d="M505.5,494.509c-.423.579-.7,1.344-1.2,1.533a2.753,2.753,0,0,1-2.088-.112,8.844,8.844,0,0,0-6.966-.745,11.057,11.057,0,0,0-1.923.934,1.871,1.871,0,0,1-2.542-.64,1.8,1.8,0,0,1,.443-2.488c3.033-2.667,10.351-2.671,13.3.02A7.686,7.686,0,0,1,505.5,494.509Z" transform="translate(-74.939 -94.612)" fill="#6429a2"/>
      <path id="Path_112" data-name="Path 112" d="M506.79,517.44c.007-1.6.653-2.424,1.9-2.42,1.222.007,1.906.88,1.909,2.44,0,1.648-.7,2.522-1.994,2.481C507.382,519.9,506.787,519.078,506.79,517.44Z" transform="translate(-85.735 -110.505)" fill="#6429a2"/>
    </g>
  </g>
</svg>
